LibreCaslonText-Italic.ufo
<glyph name="exclam" format="1">
  <advance width="336"/>
  <unicode hex="0021"/>
  <outline>
    <contour>
      <point x="172" y="230" type="line"/>
      <point x="219" y="374"/>
      <point x="258" y="464"/>
      <point x="312" y="553" type="curve" smooth="yes"/>
      <point x="377" y="659"/>
      <point x="391" y="688"/>
      <point x="391" y="717" type="curve" smooth="yes"/>
      <point x="391" y="754"/>
      <point x="365" y="780"/>
      <point x="327" y="780" type="curve" smooth="yes"/>
      <point x="294" y="780"/>
      <point x="269" y="759"/>
      <point x="259" y="729" type="curve" smooth="yes"/>
      <point x="252" y="709"/>
      <point x="236" y="648"/>
      <point x="218" y="571" type="curve" smooth="yes"/>
      <point x="137" y="230" type="line"/>
    </contour>
    <contour>
      <point x="107" y="115" type="curve" smooth="yes"/>
      <point x="142" y="115"/>
      <point x="170" y="90"/>
      <point x="170" y="57" type="curve" smooth="yes"/>
      <point x="170" y="21"/>
      <point x="135" y="-10"/>
      <point x="95" y="-10" type="curve" smooth="yes"/>
      <point x="60" y="-10"/>
      <point x="36" y="14"/>
      <point x="36" y="47" type="curve" smooth="yes"/>
      <point x="36" y="84"/>
      <point x="68" y="115"/>
    </contour>
  </outline>
</glyph>
<glyph name="quotedbl" format="1">
  <advance width="372"/>
  <unicode hex="0022"/>
  <outline>
    <contour>
      <point x="240" y="545" type="line"/>
      <point x="289" y="681"/>
      <point x="356" y="742"/>
      <point x="356" y="795" type="curve" smooth="yes"/>
      <point x="356" y="816"/>
      <point x="344" y="830"/>
      <point x="318" y="830" type="curve" smooth="yes"/>
      <point x="285" y="830"/>
      <point x="257" y="807"/>
      <point x="245" y="770" type="curve" smooth="yes"/>
      <point x="230" y="722"/>
      <point x="246" y="665"/>
      <point x="210" y="545" type="curve"/>
    </contour>
    <contour>
      <point x="392" y="545" type="line"/>
      <point x="441" y="681"/>
      <point x="508" y="742"/>
      <point x="508" y="795" type="curve" smooth="yes"/>
      <point x="508" y="816"/>
      <point x="496" y="830"/>
      <point x="470" y="830" type="curve" smooth="yes"/>
      <point x="437" y="830"/>
      <point x="409" y="807"/>
      <point x="397" y="770" type="curve" smooth="yes"/>
      <point x="382" y="722"/>
      <point x="398" y="665"/>
      <point x="362" y="545" type="curve"/>
    </contour>
  </outline>
</glyph>
<glyph name="dollar" format="1">
  <advance width="577"/>
  <unicode hex="0024"/>
  <outline>
    <contour>
      <point x="560" y="912" type="line"/>
      <point x="515" y="912" type="line"/>
      <point x="461" y="779" type="line"/>
      <point x="454" y="779"/>
      <point x="446" y="780"/>
      <point x="438" y="780" type="curve" smooth="yes"/>
      <point x="289" y="780"/>
      <point x="182" y="684"/>
      <point x="182" y="551" type="curve" smooth="yes"/>
      <point x="182" y="455"/>
      <point x="235" y="401"/>
      <point x="287" y="346" type="curve"/>
      <point x="162" y="36" type="line"/>
      <point x="132" y="47"/>
      <point x="119" y="75"/>
      <point x="111" y="135" type="curve" smooth="yes"/>
      <point x="105" y="180"/>
      <point x="87" y="202"/>
      <point x="56" y="202" type="curve" smooth="yes"/>
      <point x="23" y="202"/>
      <point x="3" y="179"/>
      <point x="3" y="141" type="curve" smooth="yes"/>
      <point x="3" y="69"/>
      <point x="61" y="12"/>
      <point x="145" y="-5" type="curve"/>
      <point x="87" y="-150" type="line"/>
      <point x="132" y="-150" type="line"/>
      <point x="188" y="-10" type="line"/>
      <point x="198" y="-10" type="line" smooth="yes"/>
      <point x="362" y="-10"/>
      <point x="479" y="88"/>
      <point x="479" y="223" type="curve" smooth="yes"/>
      <point x="479" y="285"/>
      <point x="459" y="326"/>
      <point x="367" y="434" type="curve"/>
      <point x="485" y="728" type="line"/>
      <point x="507" y="714"/>
      <point x="518" y="686"/>
      <point x="525" y="635" type="curve" smooth="yes"/>
      <point x="531" y="590"/>
      <point x="549" y="568"/>
      <point x="580" y="568" type="curve" smooth="yes"/>
      <point x="613" y="568"/>
      <point x="633" y="591"/>
      <point x="633" y="629" type="curve" smooth="yes"/>
      <point x="633" y="697"/>
      <point x="581" y="752"/>
      <point x="503" y="772" type="curve"/>
    </contour>
    <contour>
      <point x="204" y="30" type="curve"/>
      <point x="317" y="311" type="line"/>
      <point x="347" y="274"/>
      <point x="371" y="233"/>
      <point x="371" y="177" type="curve" smooth="yes"/>
      <point x="371" y="86"/>
      <point x="309" y="30"/>
    </contour>
    <contour>
      <point x="287" y="586" type="curve" smooth="yes"/>
      <point x="287" y="685"/>
      <point x="338" y="740"/>
      <point x="429" y="740" type="curve" smooth="yes"/>
      <point x="435" y="740"/>
      <point x="440" y="740"/>
      <point x="445" y="739" type="curve"/>
      <point x="337" y="469" type="line"/>
      <point x="293" y="523"/>
      <point x="287" y="542"/>
    </contour>
  </outline>
</glyph>
<glyph name="ampersand" format="1">
  <advance width="931"/>
  <unicode hex="0026"/>
  <outline>
    <contour>
      <point x="449" y="88" type="curve" smooth="yes"/>
      <point x="280" y="88"/>
      <point x="158" y="172"/>
      <point x="158" y="294" type="curve" smooth="yes"/>
      <point x="158" y="359"/>
      <point x="193" y="415"/>
      <point x="241" y="433" type="curve"/>
      <point x="264" y="414"/>
      <point x="295" y="402"/>
      <point x="319" y="402" type="curve" smooth="yes"/>
      <point x="352" y="402"/>
      <point x="375" y="423"/>
      <point x="375" y="452" type="curve" smooth="yes"/>
      <point x="375" y="479"/>
      <point x="349" y="498"/>
      <point x="312" y="498" type="curve" smooth="yes"/>
      <point x="294" y="498"/>
      <point x="272" y="494"/>
      <point x="255" y="487" type="curve"/>
      <point x="243" y="506"/>
      <point x="237" y="536"/>
      <point x="237" y="564" type="curve" smooth="yes"/>
      <point x="237" y="633"/>
      <point x="287" y="689"/>
      <point x="346" y="689" type="curve" smooth="yes"/>
      <point x="438" y="689"/>
      <point x="358" y="564"/>
      <point x="443" y="564" type="curve" smooth="yes"/>
      <point x="477" y="564"/>
      <point x="499" y="589"/>
      <point x="499" y="626" type="curve" smooth="yes"/>
      <point x="499" y="684"/>
      <point x="440" y="733"/>
      <point x="368" y="733" type="curve" smooth="yes"/>
      <point x="274" y="733"/>
      <point x="194" y="650"/>
      <point x="194" y="554" type="curve" smooth="yes"/>
      <point x="194" y="520"/>
      <point x="204" y="487"/>
      <point x="220" y="464" type="curve"/>
      <point x="139" y="419"/>
      <point x="93" y="344"/>
      <point x="93" y="248" type="curve" smooth="yes"/>
      <point x="93" y="94"/>
      <point x="223" y="-10"/>
      <point x="416" y="-10" type="curve" smooth="yes"/>
      <point x="642" y="-10"/>
      <point x="832" y="131"/>
      <point x="832" y="311" type="curve" smooth="yes"/>
      <point x="832" y="377"/>
      <point x="805" y="427"/>
      <point x="760" y="446" type="curve"/>
      <point x="761" y="450" type="line"/>
      <point x="905" y="474"/>
      <point x="984" y="539"/>
      <point x="984" y="660" type="curve" smooth="yes"/>
      <point x="984" y="742"/>
      <point x="933" y="780"/>
      <point x="862" y="780" type="curve" smooth="yes"/>
      <point x="797" y="780"/>
      <point x="745" y="747"/>
      <point x="745" y="701" type="curve" smooth="yes"/>
      <point x="745" y="676"/>
      <point x="761" y="662"/>
      <point x="784" y="662" type="curve" smooth="yes"/>
      <point x="827" y="662"/>
      <point x="838" y="714"/>
      <point x="885" y="714" type="curve" smooth="yes"/>
      <point x="917" y="714"/>
      <point x="946" y="691"/>
      <point x="946" y="643" type="curve" smooth="yes"/>
      <point x="946" y="546"/>
      <point x="851" y="526"/>
      <point x="733" y="507" type="curve" smooth="yes"/>
      <point x="518" y="471"/>
      <point x="473" y="433"/>
      <point x="473" y="350" type="curve" smooth="yes"/>
      <point x="473" y="296"/>
      <point x="513" y="268"/>
      <point x="547" y="268" type="curve" smooth="yes"/>
      <point x="575" y="268"/>
      <point x="601" y="282"/>
      <point x="601" y="309" type="curve" smooth="yes"/>
      <point x="601" y="364"/>
      <point x="523" y="336"/>
      <point x="523" y="381" type="curve" smooth="yes"/>
      <point x="523" y="414"/>
      <point x="577" y="449"/>
      <point x="642" y="449" type="curve" smooth="yes"/>
      <point x="722" y="449"/>
      <point x="775" y="404"/>
      <point x="775" y="326" type="curve" smooth="yes"/>
      <point x="775" y="192"/>
      <point x="635" y="88"/>
    </contour>
  </outline>
</glyph>
<glyph name="quotesingle" format="1">
  <advance width="220"/>
  <unicode hex="0027"/>
  <outline>
    <contour>
      <point x="240" y="545" type="line"/>
      <point x="289" y="681"/>
      <point x="356" y="742"/>
      <point x="356" y="795" type="curve" smooth="yes"/>
      <point x="356" y="816"/>
      <point x="344" y="830"/>
      <point x="318" y="830" type="curve" smooth="yes"/>
      <point x="285" y="830"/>
      <point x="257" y="807"/>
      <point x="245" y="770" type="curve" smooth="yes"/>
      <point x="230" y="722"/>
      <point x="246" y="665"/>
      <point x="210" y="545" type="curve"/>
    </contour>
  </outline>
</glyph>
<glyph name="parenright" format="1">
  <advance width="329"/>
  <unicode hex="0029"/>
  <outline>
    <contour>
      <point x="-105" y="-187" type="line"/>
      <point x="-14" y="-90"/>
      <point x="232" y="222"/>
      <point x="232" y="630" type="curve" smooth="yes"/>
      <point x="232" y="715"/>
      <point x="222" y="783"/>
      <point x="210" y="820" type="curve"/>
      <point x="224" y="830" type="line"/>
      <point x="271" y="777"/>
      <point x="310" y="665"/>
      <point x="310" y="530" type="curve" smooth="yes"/>
      <point x="310" y="164"/>
      <point x="44" y="-95"/>
      <point x="-93" y="-200" type="curve"/>
    </contour>
  </outline>
</glyph>
<glyph name="plus" format="1">
  <advance width="512"/>
  <unicode hex="002B"/>
  <outline>
    <contour>
      <point x="247" y="134" type="line"/>
      <point x="298" y="134" type="line"/>
      <point x="298" y="315" type="line"/>
      <point x="477" y="315" type="line"/>
      <point x="477" y="364" type="line"/>
      <point x="298" y="364" type="line"/>
      <point x="298" y="544" type="line"/>
      <point x="247" y="544" type="line"/>
      <point x="247" y="364" type="line"/>
      <point x="67" y="364" type="line"/>
      <point x="67" y="315" type="line"/>
      <point x="247" y="315" type="line"/>
    </contour>
  </outline>
</glyph>
<glyph name="comma" format="1">
  <advance width="289"/>
  <unicode hex="002C"/>
  <outline>
    <contour>
      <point x="30" y="0" type="curve" smooth="yes"/>
      <point x="-8" y="7"/>
      <point x="-27" y="28"/>
      <point x="-27" y="64" type="curve" smooth="yes"/>
      <point x="-27" y="109"/>
      <point x="3" y="137"/>
      <point x="49" y="137" type="curve" smooth="yes"/>
      <point x="100" y="137"/>
      <point x="129" y="104"/>
      <point x="129" y="45" type="curve" smooth="yes"/>
      <point x="129" y="-36"/>
      <point x="76" y="-116"/>
      <point x="-26" y="-186" type="curve"/>
      <point x="-44" y="-165" type="line"/>
      <point x="14" y="-123"/>
      <point x="65" y="-55"/>
      <point x="65" y="-21" type="curve" smooth="yes"/>
      <point x="65" y="-8"/>
      <point x="62" y="-6"/>
    </contour>
  </outline>
</glyph>
<glyph name="hyphen" format="1">
  <advance width="480"/>
  <unicode hex="002D"/>
  <outline>
    <contour>
      <point x="363" y="210" type="line"/>
      <point x="396" y="294" type="line"/>
      <point x="77" y="294" type="line"/>
      <point x="44" y="210" type="line"/>
    </contour>
  </outline>
</glyph>
<glyph name="period" format="1">
  <advance width="282"/>
  <unicode hex="002E"/>
  <outline>
    <contour>
      <point x="54" y="137" type="curve" smooth="yes"/>
      <point x="94" y="137"/>
      <point x="129" y="109"/>
      <point x="129" y="72" type="curve" smooth="yes"/>
      <point x="129" y="30"/>
      <point x="85" y="-10"/>
      <point x="41" y="-10" type="curve" smooth="yes"/>
      <point x="-4" y="-10"/>
      <point x="-32" y="17"/>
      <point x="-32" y="57" type="curve" smooth="yes"/>
      <point x="-32" y="101"/>
      <point x="9" y="137"/>
    </contour>
  </outline>
</glyph>
<glyph name="slash" format="1">
  <advance width="345"/>
  <unicode hex="002F"/>
  <outline>
    <contour>
      <point x="66" y="-169" type="line"/>
      <point x="370" y="819" type="line"/>
      <point x="301" y="819" type="line"/>
      <point x="-1" y="-169" type="line"/>
    </contour>
  </outline>
</glyph>
<glyph name="one" format="1">
  <advance width="429"/>
  <unicode hex="0031"/>
  <outline>
    <contour>
      <point x="-37" y="23" type="line"/>
      <point x="81" y="47" type="line"/>
      <point x="317" y="654" type="line"/>
      <point x="314" y="656" type="line"/>
      <point x="179" y="624" type="line"/>
      <point x="171" y="651" type="line"/>
      <point x="257" y="674"/>
      <point x="381" y="735"/>
      <point x="433" y="780" type="curve"/>
      <point x="467" y="780" type="line"/>
      <point x="184" y="42" type="line"/>
      <point x="310" y="23" type="line"/>
      <point x="300" y="0" type="line"/>
      <point x="-46" y="0" type="line"/>
    </contour>
  </outline>
</glyph>
<glyph name="four" format="1">
  <advance width="556"/>
  <unicode hex="0034"/>
  <outline>
    <contour>
      <point x="279" y="221" type="line"/>
      <point x="1" y="221" type="line"/>
      <point x="16" y="269" type="line"/>
      <point x="470" y="770" type="line"/>
      <point x="572" y="770" type="line"/>
      <point x="405" y="298" type="line"/>
      <point x="505" y="298" type="line"/>
      <point x="479" y="221" type="line"/>
      <point x="379" y="221" type="line"/>
      <point x="306" y="0" type="line"/>
      <point x="201" y="0" type="line"/>
    </contour>
    <contour>
      <point x="306" y="298" type="line"/>
      <point x="439" y="675" type="line"/>
      <point x="435" y="675" type="line"/>
      <point x="95" y="298" type="line"/>
    </contour>
  </outline>
</glyph>
<glyph name="six" format="1">
  <advance width="578"/>
  <unicode hex="0036"/>
  <outline>
    <contour>
      <point x="570" y="754" type="line"/>
      <point x="445" y="706"/>
      <point x="311" y="588"/>
      <point x="235" y="466" type="curve"/>
      <point x="238" y="463" type="line"/>
      <point x="272" y="484"/>
      <point x="317" y="499"/>
      <point x="367" y="499" type="curve" smooth="yes"/>
      <point x="474" y="499"/>
      <point x="529" y="447"/>
      <point x="529" y="346" type="curve" smooth="yes"/>
      <point x="529" y="170"/>
      <point x="359" y="-10"/>
      <point x="197" y="-10" type="curve" smooth="yes"/>
      <point x="102" y="-10"/>
      <point x="53" y="52"/>
      <point x="53" y="171" type="curve" smooth="yes"/>
      <point x="53" y="441"/>
      <point x="265" y="687"/>
      <point x="560" y="780" type="curve"/>
    </contour>
    <contour>
      <point x="221" y="33" type="curve" smooth="yes"/>
      <point x="315" y="33"/>
      <point x="417" y="215"/>
      <point x="417" y="356" type="curve" smooth="yes"/>
      <point x="417" y="422"/>
      <point x="392" y="455"/>
      <point x="342" y="455" type="curve" smooth="yes"/>
      <point x="240" y="455"/>
      <point x="155" y="313"/>
      <point x="155" y="143" type="curve" smooth="yes"/>
      <point x="155" y="66"/>
      <point x="173" y="33"/>
    </contour>
  </outline>
</glyph>
<glyph name="seven" format="1">
  <advance width="520"/>
  <unicode hex="0037"/>
  <outline>
    <contour>
      <point x="255" y="820" type="line"/>
      <point x="282" y="820" type="line"/>
      <point x="282" y="770" type="line"/>
      <point x="628" y="770" type="line"/>
      <point x="638" y="745" type="line"/>
      <point x="437" y="461"/>
      <point x="331" y="272"/>
      <point x="263" y="72" type="curve" smooth="yes"/>
      <point x="241" y="8"/>
      <point x="225" y="-10"/>
      <point x="190" y="-10" type="curve" smooth="yes"/>
      <point x="157" y="-10"/>
      <point x="139" y="9"/>
      <point x="139" y="43" type="curve" smooth="yes"/>
      <point x="139" y="108"/>
      <point x="220" y="239"/>
      <point x="536" y="680" type="curve"/>
      <point x="257" y="680" type="line"/>
      <point x="197" y="619" type="line"/>
      <point x="161" y="619" type="line"/>
    </contour>
  </outline>
</glyph>
<glyph name="eight" format="1">
  <advance width="621"/>
  <unicode hex="0038"/>
  <outline>
    <contour>
      <point x="253" y="447" type="line" smooth="yes"/>
      <point x="238" y="465"/>
      <point x="203" y="520"/>
      <point x="203" y="585" type="curve" smooth="yes"/>
      <point x="203" y="717"/>
      <point x="310" y="780"/>
      <point x="420" y="780" type="curve" smooth="yes"/>
      <point x="526" y="780"/>
      <point x="591" y="723"/>
      <point x="591" y="641" type="curve" smooth="yes"/>
      <point x="591" y="533"/>
      <point x="485" y="477"/>
      <point x="401" y="440" type="curve"/>
      <point x="433" y="401" type="line" smooth="yes"/>
      <point x="469" y="357"/>
      <point x="503" y="295"/>
      <point x="503" y="230" type="curve" smooth="yes"/>
      <point x="503" y="65"/>
      <point x="381" y="-10"/>
      <point x="258" y="-10" type="curve" smooth="yes"/>
      <point x="106" y="-10"/>
      <point x="37" y="78"/>
      <point x="37" y="172" type="curve" smooth="yes"/>
      <point x="37" y="309"/>
      <point x="177" y="381"/>
      <point x="274" y="421" type="curve"/>
    </contour>
    <contour>
      <point x="298" y="390" type="line"/>
      <point x="204" y="339"/>
      <point x="141" y="294"/>
      <point x="141" y="179" type="curve" smooth="yes"/>
      <point x="141" y="99"/>
      <point x="184" y="32"/>
      <point x="270" y="32" type="curve" smooth="yes"/>
      <point x="359" y="32"/>
      <point x="413" y="90"/>
      <point x="413" y="181" type="curve" smooth="yes"/>
      <point x="413" y="233"/>
      <point x="391" y="274"/>
      <point x="359" y="314" type="curve" smooth="yes"/>
    </contour>
    <contour>
      <point x="376" y="467" type="curve"/>
      <point x="443" y="513"/>
      <point x="498" y="569"/>
      <point x="498" y="651" type="curve" smooth="yes"/>
      <point x="498" y="702"/>
      <point x="473" y="738"/>
      <point x="415" y="738" type="curve" smooth="yes"/>
      <point x="344" y="738"/>
      <point x="289" y="693"/>
      <point x="289" y="623" type="curve" smooth="yes"/>
      <point x="289" y="559"/>
      <point x="338" y="507"/>
    </contour>
  </outline>
</glyph>
<glyph name="less" format="1">
  <advance width="589"/>
  <unicode hex="003C"/>
  <outline>
    <contour>
      <point x="474" y="116" type="line"/>
      <point x="474" y="181" type="line"/>
      <point x="137" y="337" type="line"/>
      <point x="137" y="341" type="line"/>
      <point x="474" y="495" type="line"/>
      <point x="474" y="556" type="line"/>
      <point x="65" y="361" type="line"/>
      <point x="65" y="310" type="line"/>
    </contour>
  </outline>
</glyph>
<glyph name="equal" format="1">
  <advance width="628"/>
  <unicode hex="003D"/>
  <outline>
    <contour>
      <point x="139" y="274" type="line"/>
      <point x="505" y="274" type="line"/>
      <point x="505" y="232" type="line"/>
      <point x="139" y="232" type="line"/>
    </contour>
    <contour>
      <point x="139" y="424" type="line"/>
      <point x="505" y="424" type="line"/>
      <point x="505" y="382" type="line"/>
      <point x="139" y="382" type="line"/>
    </contour>
  </outline>
</glyph>
<glyph name="F" format="1">
  <advance width="644"/>
  <unicode hex="0046"/>
  <outline>
    <contour>
      <point x="-68" y="0" type="line"/>
      <point x="-58" y="23" type="line"/>
      <point x="34" y="42" type="line"/>
      <point x="318" y="728" type="line"/>
      <point x="240" y="747" type="line"/>
      <point x="250" y="770" type="line"/>
      <point x="738" y="770" type="line"/>
      <point x="738" y="550" type="line"/>
      <point x="711" y="550" type="line"/>
      <point x="701" y="621"/>
      <point x="684" y="680"/>
      <point x="661" y="730" type="curve"/>
      <point x="427" y="730" type="line"/>
      <point x="298" y="414" type="line"/>
      <point x="466" y="414" type="line"/>
      <point x="499" y="452"/>
      <point x="527" y="490"/>
      <point x="550" y="528" type="curve"/>
      <point x="579" y="528" type="line"/>
      <point x="466" y="254" type="line"/>
      <point x="437" y="254" type="line"/>
      <point x="448" y="294"/>
      <point x="452" y="334"/>
      <point x="454" y="374" type="curve"/>
      <point x="280" y="374" type="line"/>
      <point x="143" y="40" type="line"/>
      <point x="260" y="23" type="line"/>
      <point x="250" y="0" type="line"/>
    </contour>
  </outline>
</glyph>
<glyph name="H" format="1">
  <advance width="859"/>
  <unicode hex="0048"/>
  <outline>
    <contour>
      <point x="501" y="42" type="line"/>
      <point x="404" y="23" type="line"/>
      <point x="394" y="0" type="line"/>
      <point x="684" y="0" type="line"/>
      <point x="693" y="21" type="line"/>
      <point x="612" y="42" type="line"/>
      <point x="897" y="728" type="line"/>
      <point x="993" y="745" type="line"/>
      <point x="1003" y="770" type="line"/>
      <point x="713" y="770" type="line"/>
      <point x="703" y="747" type="line"/>
      <point x="786" y="728" type="line"/>
      <point x="660" y="425" type="line"/>
      <point x="304" y="425" type="line"/>
      <point x="430" y="728" type="line"/>
      <point x="526" y="747" type="line"/>
      <point x="536" y="770" type="line"/>
      <point x="246" y="770" type="line"/>
      <point x="236" y="747" type="line"/>
      <point x="319" y="728" type="line"/>
      <point x="35" y="42" type="line"/>
      <point x="-62" y="23" type="line"/>
      <point x="-72" y="0" type="line"/>
      <point x="217" y="0" type="line"/>
      <point x="227" y="23" type="line"/>
      <point x="145" y="42" type="line"/>
      <point x="287" y="385" type="line"/>
      <point x="643" y="385" type="line"/>
    </contour>
    <contour>
      <point x="645" y="830" type="move" name="topcap"/>
    </contour>
    <contour>
      <point x="302" y="0" type="move" name="bottom"/>
    </contour>
  </outline>
</glyph>
<glyph name="I" format="1">
  <advance width="392"/>
  <unicode hex="0049"/>
  <outline>
    <contour>
      <point x="319" y="728" type="line"/>
      <point x="236" y="747" type="line"/>
      <point x="246" y="770" type="line"/>
      <point x="536" y="770" type="line"/>
      <point x="526" y="747" type="line"/>
      <point x="430" y="728" type="line"/>
      <point x="145" y="42" type="line"/>
      <point x="227" y="23" type="line"/>
      <point x="217" y="0" type="line"/>
      <point x="-72" y="0" type="line"/>
      <point x="-62" y="23" type="line"/>
      <point x="35" y="42" type="line"/>
    </contour>
    <contour>
      <point x="420" y="830" type="move" name="topcap"/>
    </contour>
    <contour>
      <point x="75" y="0" type="move" name="bottom"/>
    </contour>
  </outline>
</glyph>
<glyph name="J" format="1">
  <advance width="380"/>
  <unicode hex="004A"/>
  <outline>
    <contour>
      <point x="429" y="728" type="line"/>
      <point x="525" y="747" type="line"/>
      <point x="535" y="770" type="line"/>
      <point x="245" y="770" type="line"/>
      <point x="235" y="747" type="line"/>
      <point x="318" y="728" type="line"/>
      <point x="3" y="-27" type="line" smooth="yes"/>
      <point x="-58" y="-172"/>
      <point x="-85" y="-216"/>
      <point x="-128" y="-216" type="curve" smooth="yes"/>
      <point x="-188" y="-216"/>
      <point x="-160" y="-127"/>
      <point x="-225" y="-127" type="curve" smooth="yes"/>
      <point x="-251" y="-127"/>
      <point x="-276" y="-145"/>
      <point x="-276" y="-177" type="curve" smooth="yes"/>
      <point x="-276" y="-220"/>
      <point x="-230" y="-256"/>
      <point x="-157" y="-256" type="curve" smooth="yes"/>
      <point x="-48" y="-256"/>
      <point x="56" y="-169"/>
      <point x="115" y="-27" type="curve" smooth="yes"/>
    </contour>
    <contour>
      <point x="420" y="830" type="move" name="topcap"/>
    </contour>
  </outline>
</glyph>
<glyph name="K" format="1">
  <advance width="743"/>
  <unicode hex="004B"/>
  <outline>
    <contour>
      <point x="429" y="729" type="line"/>
      <point x="295" y="407" type="line"/>
      <point x="610" y="655" type="line" smooth="yes"/>
      <point x="640" y="679"/>
      <point x="655" y="696"/>
      <point x="655" y="710" type="curve" smooth="yes"/>
      <point x="655" y="730"/>
      <point x="634" y="745"/>
      <point x="586" y="747" type="curve"/>
      <point x="595" y="770" type="line"/>
      <point x="854" y="770" type="line"/>
      <point x="840" y="742" type="line"/>
      <point x="781" y="738"/>
      <point x="751" y="724"/>
      <point x="707" y="689" type="curve" smooth="yes"/>
      <point x="417" y="458" type="line"/>
      <point x="574" y="42" type="line"/>
      <point x="662" y="23" type="line"/>
      <point x="655" y="0" type="line"/>
      <point x="474" y="0" type="line"/>
      <point x="335" y="392" type="line"/>
      <point x="266" y="338" type="line"/>
      <point x="143" y="42" type="line"/>
      <point x="262" y="23" type="line"/>
      <point x="252" y="0" type="line"/>
      <point x="-64" y="0" type="line"/>
      <point x="-55" y="23" type="line"/>
      <point x="33" y="42" type="line"/>
      <point x="319" y="728" type="line"/>
      <point x="241" y="747" type="line"/>
      <point x="250" y="770" type="line"/>
      <point x="520" y="770" type="line"/>
      <point x="510" y="747" type="line"/>
    </contour>
    <contour>
      <point x="281" y="0" type="move" name="bottom"/>
    </contour>
  </outline>
</glyph>
<glyph name="M" format="1">
  <advance width="994"/>
  <unicode hex="004D"/>
  <outline>
    <contour>
      <point x="-90" y="23" type="line"/>
      <point x="7" y="42" type="line"/>
      <point x="358" y="728" type="line"/>
      <point x="268" y="747" type="line"/>
      <point x="277" y="770" type="line"/>
      <point x="511" y="770" type="line"/>
      <point x="439" y="169" type="line"/>
      <point x="443" y="169" type="line"/>
      <point x="904" y="770" type="line"/>
      <point x="1138" y="770" type="line"/>
      <point x="1129" y="747" type="line"/>
      <point x="1032" y="728" type="line"/>
      <point x="747" y="42" type="line"/>
      <point x="829" y="23" type="line"/>
      <point x="819" y="0" type="line"/>
      <point x="535" y="0" type="line"/>
      <point x="545" y="23" type="line"/>
      <point x="642" y="42" type="line"/>
      <point x="921" y="710" type="line"/>
      <point x="917" y="710" type="line"/>
      <point x="359" y="-10" type="line"/>
      <point x="306" y="-10" type="line"/>
      <point x="393" y="690" type="line"/>
      <point x="389" y="690" type="line"/>
      <point x="55" y="42" type="line"/>
      <point x="137" y="23" type="line"/>
      <point x="127" y="0" type="line"/>
      <point x="-100" y="0" type="line"/>
    </contour>
  </outline>
</glyph>
<glyph name="N" format="1">
  <advance width="815"/>
  <unicode hex="004E"/>
  <outline>
    <contour>
      <point x="498" y="-10" type="line"/>
      <point x="556" y="-10" type="line"/>
      <point x="863" y="728" type="line"/>
      <point x="959" y="747" type="line"/>
      <point x="969" y="770" type="line"/>
      <point x="741" y="770" type="line"/>
      <point x="731" y="747" type="line"/>
      <point x="814" y="728" type="line"/>
      <point x="583" y="171" type="line"/>
      <point x="579" y="171" type="line"/>
      <point x="455" y="770" type="line"/>
      <point x="243" y="770" type="line"/>
      <point x="233" y="747" type="line"/>
      <point x="316" y="728" type="line"/>
      <point x="32" y="42" type="line"/>
      <point x="-65" y="23" type="line"/>
      <point x="-75" y="0" type="line"/>
      <point x="152" y="0" type="line"/>
      <point x="162" y="23" type="line"/>
      <point x="80" y="42" type="line"/>
      <point x="349" y="690" type="line"/>
      <point x="353" y="690" type="line"/>
    </contour>
    <contour>
      <point x="648" y="830" type="move" name="topcap"/>
    </contour>
    <contour>
      <point x="291" y="-10" type="move" name="bottom"/>
    </contour>
  </outline>
</glyph>
<glyph name="O" format="1">
  <advance width="804"/>
  <unicode hex="004F"/>
  <outline>
    <contour>
      <point x="304" y="-10" type="curve" smooth="yes"/>
      <point x="159" y="-10"/>
      <point x="75" y="80"/>
      <point x="75" y="236" type="curve" smooth="yes"/>
      <point x="75" y="508"/>
      <point x="323" y="780"/>
      <point x="571" y="780" type="curve" smooth="yes"/>
      <point x="717" y="780"/>
      <point x="801" y="689"/>
      <point x="801" y="531" type="curve" smooth="yes"/>
      <point x="801" y="259"/>
      <point x="554" y="-10"/>
    </contour>
    <contour>
      <point x="319" y="37" type="curve" smooth="yes"/>
      <point x="502" y="37"/>
      <point x="690" y="305"/>
      <point x="690" y="565" type="curve" smooth="yes"/>
      <point x="690" y="680"/>
      <point x="649" y="736"/>
      <point x="565" y="736" type="curve" smooth="yes"/>
      <point x="382" y="736"/>
      <point x="191" y="467"/>
      <point x="191" y="210" type="curve" smooth="yes"/>
      <point x="191" y="93"/>
      <point x="232" y="37"/>
    </contour>
    <contour>
      <point x="629" y="830" type="move" name="topcap"/>
    </contour>
    <contour>
      <point x="286" y="0" type="move" name="bottom"/>
    </contour>
  </outline>
</glyph>
<glyph name="P" format="1">
  <advance width="653"/>
  <unicode hex="0050"/>
  <outline>
    <contour>
      <point x="265" y="341" type="line"/>
      <point x="143" y="42" type="line"/>
      <point x="262" y="23" type="line"/>
      <point x="252" y="0" type="line"/>
      <point x="-64" y="0" type="line"/>
      <point x="-55" y="23" type="line"/>
      <point x="33" y="42" type="line"/>
      <point x="319" y="728" type="line"/>
      <point x="241" y="747" type="line"/>
      <point x="250" y="770" type="line"/>
      <point x="490" y="770" type="line" smooth="yes"/>
      <point x="635" y="770"/>
      <point x="720" y="705"/>
      <point x="720" y="594" type="curve" smooth="yes"/>
      <point x="720" y="442"/>
      <point x="577" y="341"/>
      <point x="363" y="341" type="curve" smooth="yes"/>
    </contour>
    <contour>
      <point x="377" y="385" type="line" smooth="yes"/>
      <point x="509" y="385"/>
      <point x="616" y="485"/>
      <point x="616" y="608" type="curve" smooth="yes"/>
      <point x="616" y="686"/>
      <point x="572" y="729"/>
      <point x="490" y="729" type="curve" smooth="yes"/>
      <point x="429" y="729" type="line"/>
      <point x="284" y="385" type="line"/>
    </contour>
  </outline>
</glyph>
<glyph name="Q" format="1">
  <advance width="804"/>
  <unicode hex="0051"/>
  <outline>
    <contour>
      <point x="270" y="-8" type="line"/>
      <point x="148" y="6"/>
      <point x="76" y="91"/>
      <point x="76" y="237" type="curve" smooth="yes"/>
      <point x="76" y="508"/>
      <point x="324" y="780"/>
      <point x="574" y="780" type="curve" smooth="yes"/>
      <point x="718" y="780"/>
      <point x="802" y="689"/>
      <point x="802" y="530" type="curve" smooth="yes"/>
      <point x="802" y="299"/>
      <point x="624" y="88"/>
      <point x="425" y="8" type="curve" smooth="yes"/>
      <point x="190" y="-87" type="line"/>
      <point x="227" y="-115"/>
      <point x="266" y="-127"/>
      <point x="325" y="-127" type="curve" smooth="yes"/>
      <point x="413" y="-127"/>
      <point x="481" y="-100"/>
      <point x="508" y="-63" type="curve"/>
      <point x="542" y="-63" type="line"/>
      <point x="530" y="-109"/>
      <point x="457" y="-227"/>
      <point x="325" y="-227" type="curve" smooth="yes"/>
      <point x="202" y="-227"/>
      <point x="191" y="-126"/>
      <point x="108" y="-126" type="curve" smooth="yes"/>
      <point x="90" y="-126"/>
      <point x="86" y="-131"/>
      <point x="86" y="-140" type="curve" smooth="yes"/>
      <point x="86" y="-148"/>
      <point x="90" y="-157"/>
      <point x="90" y="-166" type="curve" smooth="yes"/>
      <point x="90" y="-185"/>
      <point x="73" y="-201"/>
      <point x="50" y="-201" type="curve" smooth="yes"/>
      <point x="23" y="-201"/>
      <point x="12" y="-180"/>
      <point x="12" y="-159" type="curve" smooth="yes"/>
      <point x="12" y="-129"/>
      <point x="34" y="-108"/>
      <point x="79" y="-90" type="curve" smooth="yes"/>
      <point x="270" y="-12" type="line"/>
    </contour>
    <contour>
      <point x="318" y="37" type="curve" smooth="yes"/>
      <point x="503" y="37"/>
      <point x="691" y="305"/>
      <point x="691" y="562" type="curve" smooth="yes"/>
      <point x="691" y="680"/>
      <point x="651" y="736"/>
      <point x="567" y="736" type="curve" smooth="yes"/>
      <point x="383" y="736"/>
      <point x="192" y="467"/>
      <point x="192" y="212" type="curve" smooth="yes"/>
      <point x="192" y="94"/>
      <point x="233" y="37"/>
    </contour>
  </outline>
</glyph>
<glyph name="S" format="1">
  <advance width="589"/>
  <unicode hex="0053"/>
  <outline>
    <contour>
      <point x="-37" y="0" type="line"/>
      <point x="-6" y="0" type="line"/>
      <point x="45" y="72" type="line"/>
      <point x="73" y="18"/>
      <point x="131" y="-10"/>
      <point x="216" y="-10" type="curve" smooth="yes"/>
      <point x="375" y="-10"/>
      <point x="494" y="88"/>
      <point x="494" y="219" type="curve" smooth="yes"/>
      <point x="494" y="286"/>
      <point x="469" y="333"/>
      <point x="379" y="438" type="curve" smooth="yes"/>
      <point x="314" y="512"/>
      <point x="302" y="536"/>
      <point x="302" y="591" type="curve" smooth="yes"/>
      <point x="302" y="687"/>
      <point x="354" y="740"/>
      <point x="450" y="740" type="curve" smooth="yes"/>
      <point x="529" y="740"/>
      <point x="572" y="703"/>
      <point x="572" y="637" type="curve" smooth="yes"/>
      <point x="572" y="613"/>
      <point x="566" y="575"/>
      <point x="559" y="550" type="curve"/>
      <point x="589" y="550" type="line"/>
      <point x="675" y="770" type="line"/>
      <point x="643" y="770" type="line"/>
      <point x="597" y="718" type="line"/>
      <point x="558" y="761"/>
      <point x="511" y="780"/>
      <point x="446" y="780" type="curve" smooth="yes"/>
      <point x="300" y="780"/>
      <point x="197" y="685"/>
      <point x="197" y="552" type="curve" smooth="yes"/>
      <point x="197" y="372"/>
      <point x="386" y="338"/>
      <point x="386" y="177" type="curve" smooth="yes"/>
      <point x="386" y="86"/>
      <point x="324" y="30"/>
      <point x="222" y="30" type="curve" smooth="yes"/>
      <point x="130" y="30"/>
      <point x="85" y="75"/>
      <point x="85" y="165" type="curve" smooth="yes"/>
      <point x="85" y="193"/>
      <point x="89" y="225"/>
      <point x="98" y="261" type="curve"/>
      <point x="69" y="261" type="line"/>
    </contour>
    <contour>
      <point x="487" y="830" type="move" name="topcap"/>
    </contour>
    <contour>
      <point x="192" y="0" type="move" name="bottom"/>
    </contour>
  </outline>
</glyph>
<glyph name="U" format="1">
  <advance width="778"/>
  <unicode hex="0055"/>
  <outline>
    <contour>
      <point x="310" y="728" type="line"/>
      <point x="228" y="747" type="line"/>
      <point x="237" y="770" type="line"/>
      <point x="522" y="770" type="line"/>
      <point x="512" y="747" type="line"/>
      <point x="416" y="727" type="line"/>
      <point x="225" y="269" type="line" smooth="yes"/>
      <point x="207" y="227"/>
      <point x="196" y="179"/>
      <point x="196" y="144" type="curve" smooth="yes"/>
      <point x="196" y="72"/>
      <point x="243" y="37"/>
      <point x="340" y="37" type="curve" smooth="yes"/>
      <point x="447" y="37"/>
      <point x="514" y="90"/>
      <point x="587" y="259" type="curve" smooth="yes"/>
      <point x="790" y="728" type="line"/>
      <point x="706" y="747" type="line"/>
      <point x="717" y="770" type="line"/>
      <point x="938" y="770" type="line"/>
      <point x="929" y="747" type="line"/>
      <point x="834" y="728" type="line"/>
      <point x="623" y="230" type="line" smooth="yes"/>
      <point x="541" y="36"/>
      <point x="432" y="-10"/>
      <point x="310" y="-10" type="curve" smooth="yes"/>
      <point x="169" y="-10"/>
      <point x="94" y="46"/>
      <point x="94" y="150" type="curve" smooth="yes"/>
      <point x="94" y="195"/>
      <point x="108" y="252"/>
      <point x="137" y="320" type="curve" smooth="yes"/>
    </contour>
    <contour>
      <point x="652" y="830" type="move" name="topcap"/>
    </contour>
    <contour>
      <point x="309" y="0" type="move" name="bottom"/>
    </contour>
  </outline>
</glyph>
<glyph name="Z" format="1">
  <advance width="697"/>
  <unicode hex="005A"/>
  <outline>
    <contour>
      <point x="-29" y="0" type="line"/>
      <point x="-7" y="51" type="line"/>
      <point x="618" y="730" type="line"/>
      <point x="349" y="730" type="line"/>
      <point x="284" y="676"/>
      <point x="222" y="611"/>
      <point x="177" y="553" type="curve"/>
      <point x="150" y="553" type="line"/>
      <point x="270" y="770" type="line"/>
      <point x="766" y="770" type="line"/>
      <point x="744" y="718" type="line"/>
      <point x="122" y="42" type="line"/>
      <point x="434" y="42" type="line"/>
      <point x="504" y="108"/>
      <point x="565" y="177"/>
      <point x="612" y="244" type="curve"/>
      <point x="646" y="244" type="line"/>
      <point x="523" y="0" type="line"/>
    </contour>
    <contour>
      <point x="242" y="0" type="move" name="bottom"/>
    </contour>
    <contour>
      <point x="547" y="830" type="move" name="topcap"/>
    </contour>
  </outline>
</glyph>
<glyph name="asciicircum" format="1">
  <advance width="498"/>
  <unicode hex="005E"/>
  <outline>
    <contour>
      <point x="68" y="332" type="line"/>
      <point x="409" y="711" type="line"/>
      <point x="445" y="711" type="line"/>
      <point x="472" y="332" type="line"/>
      <point x="436" y="332" type="line"/>
      <point x="408" y="649" type="line"/>
      <point x="404" y="649" type="line"/>
      <point x="116" y="332" type="line"/>
    </contour>
  </outline>
</glyph>
<glyph name="grave" format="1">
  <advance width="119"/>
  <unicode hex="0060"/>
  <outline>
    <contour>
      <point x="68" y="636" type="line"/>
      <point x="23" y="755" type="line" smooth="yes"/>
      <point x="13" y="781"/>
      <point x="10" y="794"/>
      <point x="10" y="811" type="curve" smooth="yes"/>
      <point x="10" y="838"/>
      <point x="35" y="857"/>
      <point x="62" y="857" type="curve" smooth="yes"/>
      <point x="94" y="857"/>
      <point x="109" y="843"/>
      <point x="109" y="815" type="curve" smooth="yes"/>
      <point x="109" y="802"/>
      <point x="108" y="797"/>
      <point x="108" y="792" type="curve" smooth="yes"/>
      <point x="96" y="642" type="line"/>
    </contour>
    <contour>
      <point x="59" y="651" type="move" name="_top"/>
    </contour>
  </outline>
</glyph>
<glyph name="b" format="1">
  <advance width="575"/>
  <unicode hex="0062"/>
  <outline>
    <contour>
      <point x="201" y="820" type="line" name="hr00"/>
      <point x="393" y="820" type="line"/>
      <point x="252" y="462" type="line"/>
      <point x="257" y="462" type="line"/>
      <point x="302" y="512"/>
      <point x="357" y="540"/>
      <point x="408" y="540" type="curve" smooth="yes"/>
      <point x="483" y="540"/>
      <point x="532" y="485"/>
      <point x="532" y="386" type="curve" smooth="yes"/>
      <point x="532" y="193"/>
      <point x="354" y="-10"/>
      <point x="177" y="-10" type="curve" smooth="yes"/>
      <point x="84" y="-10"/>
      <point x="34" y="43"/>
      <point x="34" y="131" type="curve" smooth="yes"/>
      <point x="34" y="165"/>
      <point x="43" y="205"/>
      <point x="61" y="249" type="curve" smooth="yes"/>
      <point x="283" y="793" type="line"/>
      <point x="205" y="805" type="line"/>
    </contour>
    <contour>
      <point x="189" y="310" type="curve" smooth="yes"/>
      <point x="161" y="253"/>
      <point x="116" y="143"/>
      <point x="116" y="82" type="curve" smooth="yes"/>
      <point x="116" y="47"/>
      <point x="138" y="25"/>
      <point x="169" y="25" type="curve" smooth="yes"/>
      <point x="270" y="25"/>
      <point x="435" y="269"/>
      <point x="435" y="416" type="curve" smooth="yes"/>
      <point x="435" y="469"/>
      <point x="415" y="505"/>
      <point x="383" y="505" type="curve" smooth="yes"/>
      <point x="328" y="505"/>
      <point x="241" y="419"/>
    </contour>
  </outline>
</glyph>
<glyph name="c" format="1">
  <advance width="498"/>
  <unicode hex="0063"/>
  <outline>
    <contour>
      <point x="387" y="509" type="curve" smooth="yes"/>
      <point x="412" y="509"/>
      <point x="424" y="494"/>
      <point x="430" y="457" type="curve" smooth="yes"/>
      <point x="435" y="424"/>
      <point x="450" y="409"/>
      <point x="476" y="409" type="curve" smooth="yes" name="hr01"/>
      <point x="502" y="409"/>
      <point x="520" y="425"/>
      <point x="520" y="449" type="curve" smooth="yes"/>
      <point x="520" y="499"/>
      <point x="468" y="540"/>
      <point x="399" y="540" type="curve" smooth="yes"/>
      <point x="333" y="540"/>
      <point x="249" y="507"/>
      <point x="177" y="451" type="curve" smooth="yes"/>
      <point x="72" y="369"/>
      <point x="11" y="252"/>
      <point x="10" y="143" type="curve" smooth="yes"/>
      <point x="10" y="43"/>
      <point x="54" y="-10"/>
      <point x="140" y="-10" type="curve" smooth="yes"/>
      <point x="227" y="-10"/>
      <point x="319" y="44"/>
      <point x="406" y="146" type="curve"/>
      <point x="384" y="159" type="line"/>
      <point x="297" y="70"/>
      <point x="224" y="25"/>
      <point x="168" y="25" type="curve" smooth="yes"/>
      <point x="125" y="25"/>
      <point x="109" y="49"/>
      <point x="109" y="99" type="curve" smooth="yes"/>
      <point x="109" y="253"/>
      <point x="267" y="509"/>
    </contour>
    <contour>
      <point x="423" y="651" type="move" name="top"/>
    </contour>
    <contour>
      <point x="144" y="0" type="move" name="bottom"/>
    </contour>
  </outline>
</glyph>
<glyph name="e" format="1">
  <advance width="485"/>
  <unicode hex="0065"/>
  <outline>
    <contour>
      <point x="398" y="540" type="curve" smooth="yes" name="hr00"/>
      <point x="457" y="540"/>
      <point x="494" y="514"/>
      <point x="494" y="471" type="curve" smooth="yes"/>
      <point x="494" y="387"/>
      <point x="354" y="304"/>
      <point x="154" y="269" type="curve"/>
      <point x="116" y="198"/>
      <point x="97" y="138"/>
      <point x="97" y="92" type="curve" smooth="yes"/>
      <point x="97" y="46"/>
      <point x="116" y="25"/>
      <point x="155" y="25" type="curve" smooth="yes"/>
      <point x="217" y="25"/>
      <point x="302" y="80"/>
      <point x="361" y="159" type="curve"/>
      <point x="383" y="145" type="line"/>
      <point x="301" y="42"/>
      <point x="215" y="-10"/>
      <point x="130" y="-10" type="curve" smooth="yes"/>
      <point x="48" y="-10"/>
      <point x="0" y="39"/>
      <point x="0" y="125" type="curve" smooth="yes"/>
      <point x="0" y="309"/>
      <point x="221" y="540"/>
    </contour>
    <contour>
      <point x="176" y="302" type="line"/>
      <point x="300" y="326"/>
      <point x="414" y="410"/>
      <point x="414" y="479" type="curve" smooth="yes"/>
      <point x="414" y="499"/>
      <point x="404" y="509"/>
      <point x="382" y="509" type="curve" smooth="yes"/>
      <point x="327" y="509"/>
      <point x="253" y="446"/>
      <point x="208" y="361" type="curve" smooth="yes"/>
    </contour>
    <contour>
      <point x="140" y="0" type="move" name="bottom"/>
    </contour>
    <contour>
      <point x="423" y="651" type="move" name="top"/>
    </contour>
  </outline>
</glyph>
<glyph name="f" format="1">
  <advance width="324"/>
  <unicode hex="0066"/>
  <outline>
    <contour>
      <point x="517" y="830" type="curve" smooth="yes"/>
      <point x="589" y="830"/>
      <point x="651" y="785"/>
      <point x="651" y="726" type="curve" smooth="yes"/>
      <point x="651" y="697"/>
      <point x="633" y="678"/>
      <point x="603" y="678" type="curve" smooth="yes"/>
      <point x="577" y="678"/>
      <point x="556" y="696"/>
      <point x="556" y="722" type="curve" smooth="yes"/>
      <point x="556" y="741"/>
      <point x="563" y="753"/>
      <point x="563" y="768" type="curve" smooth="yes"/>
      <point x="563" y="790"/>
      <point x="542" y="803"/>
      <point x="512" y="803" type="curve" smooth="yes"/>
      <point x="446" y="803"/>
      <point x="389" y="739"/>
      <point x="329" y="590" type="curve" smooth="yes"/>
      <point x="305" y="530" type="line"/>
      <point x="403" y="530" type="line" name="hr01"/>
      <point x="390" y="498" type="line"/>
      <point x="293" y="498" type="line"/>
      <point x="166" y="203" type="line" smooth="yes"/>
      <point x="29" y="-116"/>
      <point x="-93" y="-256"/>
      <point x="-233" y="-256" type="curve" smooth="yes"/>
      <point x="-300" y="-256"/>
      <point x="-342" y="-222"/>
      <point x="-342" y="-173" type="curve" smooth="yes"/>
      <point x="-342" y="-147"/>
      <point x="-324" y="-132"/>
      <point x="-295" y="-132" type="curve" smooth="yes"/>
      <point x="-227" y="-132"/>
      <point x="-256" y="-221"/>
      <point x="-203" y="-221" type="curve" smooth="yes"/>
      <point x="-150" y="-221"/>
      <point x="-71" y="-129"/>
      <point x="39" y="143" type="curve" smooth="yes"/>
      <point x="183" y="498" type="line"/>
      <point x="95" y="498" type="line"/>
      <point x="107" y="530" type="line"/>
      <point x="196" y="530" type="line" name="hr02"/>
      <point x="227" y="600" type="line" smooth="yes"/>
      <point x="301" y="767"/>
      <point x="411" y="830"/>
    </contour>
  </outline>
</glyph>
<glyph name="g" format="1">
  <advance width="527"/>
  <unicode hex="0067"/>
  <outline>
    <contour>
      <point x="232" y="218" type="curve" smooth="yes"/>
      <point x="305" y="218"/>
      <point x="376" y="326"/>
      <point x="376" y="436" type="curve" smooth="yes"/>
      <point x="376" y="482"/>
      <point x="361" y="503"/>
      <point x="322" y="503" type="curve" smooth="yes"/>
      <point x="256" y="503"/>
      <point x="172" y="393"/>
      <point x="172" y="300" type="curve" smooth="yes"/>
      <point x="172" y="248"/>
      <point x="194" y="218"/>
    </contour>
    <contour>
      <point x="528" y="540" type="curve" smooth="yes"/>
      <point x="562" y="540"/>
      <point x="584" y="517"/>
      <point x="584" y="490" type="curve" smooth="yes"/>
      <point x="584" y="467"/>
      <point x="565" y="450"/>
      <point x="542" y="450" type="curve" smooth="yes"/>
      <point x="513" y="450"/>
      <point x="507" y="478"/>
      <point x="482" y="478" type="curve" smooth="yes"/>
      <point x="468" y="478"/>
      <point x="453" y="468"/>
      <point x="446" y="454" type="curve"/>
      <point x="461" y="423"/>
      <point x="465" y="403"/>
      <point x="465" y="376" type="curve" smooth="yes"/>
      <point x="465" y="270"/>
      <point x="371" y="184"/>
      <point x="256" y="184" type="curve" smooth="yes"/>
      <point x="235" y="184"/>
      <point x="203" y="187"/>
      <point x="178" y="187" type="curve" smooth="yes"/>
      <point x="116" y="187"/>
      <point x="87" y="171"/>
      <point x="87" y="142" type="curve" smooth="yes" name="hr01"/>
      <point x="87" y="119"/>
      <point x="103" y="102"/>
      <point x="137" y="91" type="curve" smooth="yes"/>
      <point x="293" y="38" type="line" smooth="yes"/>
      <point x="357" y="16"/>
      <point x="398" y="-34"/>
      <point x="398" y="-92" type="curve" smooth="yes"/>
      <point x="398" y="-187"/>
      <point x="286" y="-256"/>
      <point x="129" y="-256" type="curve" smooth="yes"/>
      <point x="-16" y="-256"/>
      <point x="-115" y="-196"/>
      <point x="-115" y="-105" type="curve" smooth="yes"/>
      <point x="-115" y="-28"/>
      <point x="-43" y="32"/>
      <point x="53" y="32" type="curve"/>
      <point x="25" y="53"/>
      <point x="9" y="84"/>
      <point x="9" y="116" type="curve" smooth="yes"/>
      <point x="9" y="178"/>
      <point x="65" y="216"/>
      <point x="158" y="216" type="curve"/>
      <point x="159" y="220" type="line"/>
      <point x="111" y="254"/>
      <point x="85" y="299"/>
      <point x="85" y="352" type="curve" smooth="yes" name="hr02"/>
      <point x="85" y="452"/>
      <point x="183" y="540"/>
      <point x="297" y="540" type="curve" smooth="yes"/>
      <point x="351" y="540"/>
      <point x="394" y="520"/>
      <point x="427" y="479" type="curve"/>
      <point x="462" y="520"/>
      <point x="496" y="540"/>
    </contour>
    <contour>
      <point x="143" y="-226" type="curve" smooth="yes"/>
      <point x="246" y="-226"/>
      <point x="318" y="-183"/>
      <point x="318" y="-125" type="curve" smooth="yes"/>
      <point x="318" y="-92"/>
      <point x="287" y="-58"/>
      <point x="244" y="-43" type="curve" smooth="yes"/>
      <point x="116" y="0" type="line" smooth="yes"/>
      <point x="101" y="5"/>
      <point x="94" y="6"/>
      <point x="84" y="6" type="curve" smooth="yes" name="hr04"/>
      <point x="20" y="6"/>
      <point x="-27" y="-45"/>
      <point x="-27" y="-107" type="curve" smooth="yes"/>
      <point x="-27" y="-181"/>
      <point x="40" y="-226"/>
    </contour>
    <contour>
      <point x="394" y="651" type="move" name="top"/>
    </contour>
  </outline>
</glyph>
<glyph name="k" format="1">
  <advance width="560"/>
  <unicode hex="006B"/>
  <outline>
    <contour>
      <point x="220" y="820" type="line"/>
      <point x="411" y="820" type="line"/>
      <point x="257" y="462" type="line"/>
      <point x="261" y="462" type="line"/>
      <point x="302" y="509"/>
      <point x="370" y="540"/>
      <point x="432" y="540" type="curve" smooth="yes"/>
      <point x="493" y="540"/>
      <point x="526" y="513"/>
      <point x="526" y="465" type="curve" smooth="yes"/>
      <point x="526" y="389"/>
      <point x="406" y="293"/>
      <point x="263" y="254" type="curve"/>
      <point x="331" y="111" type="line" smooth="yes"/>
      <point x="359" y="53"/>
      <point x="372" y="33"/>
      <point x="393" y="33" type="curve" smooth="yes"/>
      <point x="414" y="33"/>
      <point x="437" y="49"/>
      <point x="461" y="80" type="curve"/>
      <point x="481" y="69" type="line"/>
      <point x="455" y="24"/>
      <point x="400" y="-10"/>
      <point x="351" y="-10" type="curve" smooth="yes"/>
      <point x="303" y="-10"/>
      <point x="269" y="21"/>
      <point x="236" y="90" type="curve" smooth="yes" name="hr01"/>
      <point x="167" y="235" type="line"/>
      <point x="159" y="235" type="line"/>
      <point x="64" y="0" type="line"/>
      <point x="-36" y="0" type="line"/>
      <point x="297" y="793" type="line"/>
      <point x="222" y="805" type="line"/>
    </contour>
    <contour>
      <point x="295" y="453" type="curve" smooth="yes"/>
      <point x="246" y="410"/>
      <point x="210" y="357"/>
      <point x="176" y="268" type="curve"/>
      <point x="309" y="276"/>
      <point x="426" y="367"/>
      <point x="426" y="456" type="curve" smooth="yes"/>
      <point x="426" y="483"/>
      <point x="413" y="496"/>
      <point x="388" y="496" type="curve" smooth="yes"/>
      <point x="358" y="496"/>
      <point x="328" y="481"/>
    </contour>
    <contour>
      <point x="172" y="0" type="move" name="bottom"/>
    </contour>
  </outline>
</glyph>
<glyph name="n" format="1">
  <advance width="629"/>
  <unicode hex="006E"/>
  <outline>
    <contour>
      <point x="246" y="540" type="curve" smooth="yes"/>
      <point x="280" y="540"/>
      <point x="294" y="528"/>
      <point x="294" y="500" type="curve" smooth="yes"/>
      <point x="294" y="473"/>
      <point x="282" y="441"/>
      <point x="250" y="382" type="curve"/>
      <point x="254" y="380" type="line"/>
      <point x="340" y="493"/>
      <point x="405" y="539"/>
      <point x="479" y="539" type="curve" smooth="yes"/>
      <point x="539" y="539"/>
      <point x="570" y="509"/>
      <point x="570" y="452" type="curve" smooth="yes"/>
      <point x="570" y="423"/>
      <point x="562" y="394"/>
      <point x="545" y="360" type="curve" smooth="yes"/>
      <point x="428" y="121" type="line" smooth="yes"/>
      <point x="416" y="97"/>
      <point x="408" y="74"/>
      <point x="408" y="63" type="curve" smooth="yes"/>
      <point x="408" y="53"/>
      <point x="412" y="49"/>
      <point x="420" y="49" type="curve" smooth="yes" name="hr01"/>
      <point x="443" y="49"/>
      <point x="486" y="82"/>
      <point x="537" y="139" type="curve"/>
      <point x="558" y="124" type="line"/>
      <point x="487" y="35"/>
      <point x="419" y="-10"/>
      <point x="357" y="-10" type="curve" smooth="yes"/>
      <point x="318" y="-10"/>
      <point x="298" y="8"/>
      <point x="298" y="43" type="curve" smooth="yes"/>
      <point x="298" y="71"/>
      <point x="311" y="112"/>
      <point x="334" y="158" type="curve" smooth="yes"/>
      <point x="470" y="427" type="line" smooth="yes"/>
      <point x="477" y="441"/>
      <point x="483" y="460"/>
      <point x="483" y="475" type="curve" smooth="yes"/>
      <point x="483" y="494"/>
      <point x="471" y="505"/>
      <point x="451" y="505" type="curve" smooth="yes" name="hr02"/>
      <point x="383" y="505"/>
      <point x="270" y="373"/>
      <point x="184" y="194" type="curve" smooth="yes"/>
      <point x="91" y="0" type="line"/>
      <point x="-6" y="0" type="line"/>
      <point x="186" y="446" type="line" smooth="yes"/>
      <point x="193" y="463"/>
      <point x="197" y="474"/>
      <point x="197" y="480" type="curve" smooth="yes"/>
      <point x="197" y="489"/>
      <point x="193" y="495"/>
      <point x="183" y="495" type="curve" smooth="yes"/>
      <point x="160" y="495"/>
      <point x="118" y="461"/>
      <point x="77" y="410" type="curve"/>
      <point x="57" y="426" type="line" name="hr03"/>
      <point x="108" y="496"/>
      <point x="182" y="540"/>
    </contour>
    <contour>
      <point x="451" y="651" type="move" name="top"/>
    </contour>
    <contour>
      <point x="180" y="0" type="move" name="bottom"/>
    </contour>
  </outline>
</glyph>
<glyph name="o" format="1">
  <advance width="557"/>
  <unicode hex="006F"/>
  <outline>
    <contour>
      <point x="161" y="-10" type="curve" smooth="yes" name="hr00"/>
      <point x="66" y="-10"/>
      <point x="13" y="53"/>
      <point x="13" y="155" type="curve" smooth="yes"/>
      <point x="13" y="333"/>
      <point x="200" y="540"/>
      <point x="366" y="540" type="curve" smooth="yes"/>
      <point x="461" y="540"/>
      <point x="515" y="477"/>
      <point x="515" y="376" type="curve" smooth="yes"/>
      <point x="515" y="196"/>
      <point x="326" y="-10"/>
    </contour>
    <contour>
      <point x="378" y="505" type="curve" smooth="yes"/>
      <point x="272" y="505"/>
      <point x="104" y="254"/>
      <point x="104" y="98" type="curve" smooth="yes"/>
      <point x="104" y="50"/>
      <point x="117" y="25"/>
      <point x="149" y="25" type="curve" smooth="yes"/>
      <point x="249" y="25"/>
      <point x="426" y="289"/>
      <point x="426" y="437" type="curve" smooth="yes"/>
      <point x="426" y="482"/>
      <point x="412" y="505"/>
    </contour>
    <contour>
      <point x="437" y="651" type="move" name="top"/>
    </contour>
    <contour>
      <point x="163" y="0" type="move" name="bottom"/>
    </contour>
  </outline>
</glyph>
<glyph name="q" format="1">
  <advance width="571"/>
  <unicode hex="0071"/>
  <outline>
    <contour>
      <point x="121" y="25" type="curve" smooth="yes"/>
      <point x="189" y="25"/>
      <point x="324" y="185"/>
      <point x="410" y="372" type="curve" smooth="yes"/>
      <point x="431" y="419"/>
      <point x="435" y="438"/>
      <point x="436" y="458" type="curve"/>
      <point x="434" y="489"/>
      <point x="419" y="508"/>
      <point x="392" y="508" type="curve" smooth="yes" name="hr01"/>
      <point x="290" y="508"/>
      <point x="87" y="219"/>
      <point x="87" y="76" type="curve" smooth="yes"/>
      <point x="87" y="41"/>
      <point x="97" y="25"/>
    </contour>
    <contour>
      <point x="260" y="-223" type="line"/>
      <point x="332" y="-232" type="line"/>
      <point x="332" y="-250" type="line"/>
      <point x="44" y="-250" type="line"/>
      <point x="44" y="-235" type="line"/>
      <point x="160" y="-218" type="line"/>
      <point x="316" y="149" type="line" name="hr02"/>
      <point x="314" y="152" type="line"/>
      <point x="228" y="34"/>
      <point x="170" y="-10"/>
      <point x="98" y="-10" type="curve" smooth="yes"/>
      <point x="31" y="-10"/>
      <point x="-4" y="29"/>
      <point x="-4" y="109" type="curve" smooth="yes"/>
      <point x="-4" y="297"/>
      <point x="209" y="540"/>
      <point x="380" y="540" type="curve" smooth="yes" name="hr03"/>
      <point x="419" y="540"/>
      <point x="441" y="527"/>
      <point x="460" y="493" type="curve"/>
      <point x="478" y="530" type="line"/>
      <point x="579" y="530" type="line"/>
    </contour>
  </outline>
</glyph>
<glyph name="s" format="1">
  <advance width="441"/>
  <unicode hex="0073"/>
  <outline>
    <contour>
      <point x="281" y="540" type="curve" smooth="yes"/>
      <point x="179" y="540"/>
      <point x="96" y="473"/>
      <point x="96" y="390" type="curve" smooth="yes"/>
      <point x="96" y="282"/>
      <point x="226" y="196"/>
      <point x="226" y="112" type="curve" smooth="yes" name="hr02"/>
      <point x="226" y="60"/>
      <point x="190" y="21"/>
      <point x="133" y="21" type="curve" smooth="yes"/>
      <point x="34" y="21"/>
      <point x="82" y="128"/>
      <point x="11" y="128" type="curve" smooth="yes"/>
      <point x="-16" y="128"/>
      <point x="-34" y="112"/>
      <point x="-34" y="88" type="curve" smooth="yes"/>
      <point x="-34" y="37"/>
      <point x="40" y="-10"/>
      <point x="128" y="-10" type="curve" smooth="yes"/>
      <point x="238" y="-10"/>
      <point x="323" y="54"/>
      <point x="323" y="136" type="curve" smooth="yes"/>
      <point x="323" y="238"/>
      <point x="197" y="327"/>
      <point x="197" y="421" type="curve" smooth="yes"/>
      <point x="197" y="476"/>
      <point x="228" y="511"/>
      <point x="287" y="511" type="curve" smooth="yes" name="hr01"/>
      <point x="329" y="511"/>
      <point x="338" y="500"/>
      <point x="345" y="451" type="curve" smooth="yes"/>
      <point x="349" y="422"/>
      <point x="363" y="407"/>
      <point x="390" y="407" type="curve" smooth="yes"/>
      <point x="416" y="407"/>
      <point x="435" y="424"/>
      <point x="435" y="448" type="curve" smooth="yes"/>
      <point x="435" y="497"/>
      <point x="365" y="540"/>
    </contour>
    <contour>
      <point x="369" y="651" type="move" name="top"/>
    </contour>
    <contour>
      <point x="117" y="0" type="move" name="bottom"/>
    </contour>
  </outline>
</glyph>
<glyph name="u" format="1">
  <advance width="618"/>
  <unicode hex="0075"/>
  <outline>
    <contour>
      <point x="66" y="434" type="line"/>
      <point x="126" y="503"/>
      <point x="186" y="540"/>
      <point x="242" y="540" type="curve" smooth="yes"/>
      <point x="279" y="540"/>
      <point x="301" y="523"/>
      <point x="301" y="488" type="curve" smooth="yes"/>
      <point x="301" y="460"/>
      <point x="289" y="420"/>
      <point x="266" y="372" type="curve" smooth="yes"/>
      <point x="135" y="103" type="line" smooth="yes"/>
      <point x="126" y="84"/>
      <point x="122" y="66"/>
      <point x="122" y="53" type="curve" smooth="yes"/>
      <point x="122" y="35"/>
      <point x="136" y="25"/>
      <point x="152" y="25" type="curve" smooth="yes"/>
      <point x="217" y="25"/>
      <point x="322" y="156"/>
      <point x="406" y="336" type="curve" smooth="yes"/>
      <point x="497" y="530" type="line"/>
      <point x="596" y="530" type="line" name="hr01"/>
      <point x="402" y="84" type="line" smooth="yes"/>
      <point x="395" y="69"/>
      <point x="391" y="55"/>
      <point x="391" y="47" type="curve" smooth="yes"/>
      <point x="391" y="39"/>
      <point x="398" y="35"/>
      <point x="405" y="35" type="curve" smooth="yes"/>
      <point x="429" y="35"/>
      <point x="471" y="70"/>
      <point x="511" y="120" type="curve"/>
      <point x="531" y="104" type="line"/>
      <point x="478" y="36"/>
      <point x="412" y="-10"/>
      <point x="365" y="-10" type="curve" smooth="yes"/>
      <point x="333" y="-10"/>
      <point x="308" y="13"/>
      <point x="308" y="48" type="curve" smooth="yes"/>
      <point x="308" y="72"/>
      <point x="317" y="104"/>
      <point x="339" y="148" type="curve"/>
      <point x="334" y="150" type="line"/>
      <point x="251" y="36"/>
      <point x="191" y="-9"/>
      <point x="118" y="-9" type="curve" smooth="yes" name="hr02"/>
      <point x="58" y="-9"/>
      <point x="29" y="22"/>
      <point x="29" y="79" type="curve" smooth="yes"/>
      <point x="29" y="106"/>
      <point x="38" y="137"/>
      <point x="54" y="170" type="curve" smooth="yes"/>
      <point x="171" y="409" type="line" smooth="yes"/>
      <point x="185" y="437"/>
      <point x="191" y="456"/>
      <point x="191" y="468" type="curve" smooth="yes"/>
      <point x="191" y="477"/>
      <point x="187" y="481"/>
      <point x="179" y="481" type="curve" smooth="yes"/>
      <point x="161" y="481"/>
      <point x="127" y="458"/>
      <point x="89" y="418" type="curve"/>
    </contour>
    <contour>
      <point x="457" y="651" type="move" name="top"/>
    </contour>
    <contour>
      <point x="129" y="0" type="move" name="bottom"/>
    </contour>
  </outline>
</glyph>
<glyph name="w" format="1">
  <advance width="905"/>
  <unicode hex="0077"/>
  <outline>
    <contour>
      <point x="532" y="-10" type="curve" smooth="yes"/>
      <point x="631" y="-10"/>
      <point x="726" y="68"/>
      <point x="799" y="208" type="curve" smooth="yes"/>
      <point x="851" y="308"/>
      <point x="886" y="423"/>
      <point x="886" y="485" type="curve" smooth="yes"/>
      <point x="886" y="521"/>
      <point x="868" y="540"/>
      <point x="843" y="540" type="curve" smooth="yes"/>
      <point x="813" y="540"/>
      <point x="795" y="517"/>
      <point x="795" y="480" type="curve" smooth="yes"/>
      <point x="795" y="450"/>
      <point x="807" y="406"/>
      <point x="807" y="364" type="curve" smooth="yes" name="hr01"/>
      <point x="807" y="313"/>
      <point x="791" y="263"/>
      <point x="756" y="198" type="curve" smooth="yes"/>
      <point x="699" y="94"/>
      <point x="636" y="40"/>
      <point x="579" y="40" type="curve" smooth="yes"/>
      <point x="532" y="40"/>
      <point x="499" y="71"/>
      <point x="482" y="125" type="curve"/>
      <point x="602" y="247"/>
      <point x="695" y="401"/>
      <point x="695" y="479" type="curve" smooth="yes"/>
      <point x="695" y="518"/>
      <point x="672" y="540"/>
      <point x="635" y="540" type="curve" smooth="yes"/>
      <point x="516" y="540"/>
      <point x="371" y="337"/>
      <point x="371" y="173" type="curve" smooth="yes"/>
      <point x="371" y="140"/>
      <point x="376" y="110"/>
      <point x="387" y="85" type="curve"/>
      <point x="345" y="56"/>
      <point x="304" y="38"/>
      <point x="269" y="38" type="curve" smooth="yes"/>
      <point x="222" y="38"/>
      <point x="198" y="69"/>
      <point x="198" y="128" type="curve" smooth="yes"/>
      <point x="198" y="179"/>
      <point x="214" y="233"/>
      <point x="277" y="330" type="curve" smooth="yes"/>
      <point x="344" y="434"/>
      <point x="354" y="451"/>
      <point x="392" y="530" type="curve" name="hr02"/>
      <point x="235" y="530" type="line" smooth="yes"/>
      <point x="102" y="530"/>
      <point x="47" y="493"/>
      <point x="47" y="417" type="curve" smooth="yes"/>
      <point x="47" y="368"/>
      <point x="76" y="338"/>
      <point x="118" y="338" type="curve" smooth="yes"/>
      <point x="148" y="338"/>
      <point x="167" y="353"/>
      <point x="167" y="378" type="curve" smooth="yes"/>
      <point x="167" y="402"/>
      <point x="147" y="418"/>
      <point x="126" y="418" type="curve" smooth="yes"/>
      <point x="103" y="418"/>
      <point x="86" y="402"/>
      <point x="86" y="384" type="curve" smooth="yes"/>
      <point x="86" y="375"/>
      <point x="92" y="367"/>
      <point x="98" y="360" type="curve"/>
      <point x="95" y="356" type="line"/>
      <point x="85" y="364"/>
      <point x="76" y="377"/>
      <point x="76" y="394" type="curve" smooth="yes"/>
      <point x="76" y="433"/>
      <point x="103" y="451"/>
      <point x="169" y="451" type="curve" smooth="yes" name="hr03"/>
      <point x="318" y="451" type="line"/>
      <point x="288" y="403"/>
      <point x="269" y="380"/>
      <point x="227" y="336" type="curve" smooth="yes"/>
      <point x="124" y="227"/>
      <point x="92" y="162"/>
      <point x="92" y="100" type="curve" smooth="yes"/>
      <point x="92" y="31"/>
      <point x="143" y="-10"/>
      <point x="226" y="-10" type="curve" smooth="yes"/>
      <point x="284" y="-10"/>
      <point x="342" y="11"/>
      <point x="403" y="55" type="curve"/>
      <point x="431" y="13"/>
      <point x="475" y="-10"/>
    </contour>
    <contour>
      <point x="470" y="221" type="curve" smooth="yes"/>
      <point x="470" y="353"/>
      <point x="545" y="507"/>
      <point x="614" y="507" type="curve" smooth="yes" name="hr04"/>
      <point x="625" y="507"/>
      <point x="631" y="498"/>
      <point x="631" y="473" type="curve" smooth="yes"/>
      <point x="631" y="381"/>
      <point x="560" y="256"/>
      <point x="474" y="163" type="curve"/>
      <point x="471" y="181"/>
      <point x="470" y="200"/>
    </contour>
    <contour>
      <point x="680" y="651" type="move" name="top"/>
    </contour>
  </outline>
</glyph>
<glyph name="y" format="1">
  <advance width="546"/>
  <unicode hex="0079"/>
  <outline>
    <contour>
      <point x="49" y="448" type="line"/>
      <point x="83" y="505"/>
      <point x="144" y="540"/>
      <point x="201" y="540" type="curve" smooth="yes"/>
      <point x="271" y="540"/>
      <point x="292" y="485"/>
      <point x="292" y="234" type="curve" smooth="yes"/>
      <point x="292" y="180"/>
      <point x="290" y="124"/>
      <point x="286" y="50" type="curve"/>
      <point x="289" y="47" type="line"/>
      <point x="373" y="151"/>
      <point x="434" y="297"/>
      <point x="434" y="373" type="curve" smooth="yes" name="hr01"/>
      <point x="434" y="399"/>
      <point x="426" y="467"/>
      <point x="426" y="482" type="curve" smooth="yes"/>
      <point x="426" y="516"/>
      <point x="447" y="540"/>
      <point x="477" y="540" type="curve" smooth="yes"/>
      <point x="507" y="540"/>
      <point x="527" y="516"/>
      <point x="527" y="478" type="curve" smooth="yes"/>
      <point x="527" y="310"/>
      <point x="192" y="-256"/>
      <point x="-7" y="-256" type="curve" smooth="yes"/>
      <point x="-57" y="-256"/>
      <point x="-94" y="-234"/>
      <point x="-94" y="-199" type="curve" smooth="yes"/>
      <point x="-94" y="-173"/>
      <point x="-77" y="-156"/>
      <point x="-47" y="-156" type="curve" smooth="yes"/>
      <point x="4" y="-156"/>
      <point x="-2" y="-206"/>
      <point x="41" y="-206" type="curve" smooth="yes"/>
      <point x="66" y="-206"/>
      <point x="99" y="-187"/>
      <point x="126" y="-154" type="curve" smooth="yes"/>
      <point x="171" y="-100"/>
      <point x="183" y="-82"/>
      <point x="183" y="191" type="curve" smooth="yes"/>
      <point x="183" y="413"/>
      <point x="170" y="488"/>
      <point x="135" y="488" type="curve" smooth="yes"/>
      <point x="117" y="488"/>
      <point x="96" y="470"/>
      <point x="68" y="433" type="curve"/>
    </contour>
    <contour>
      <point x="393" y="651" type="move" name="top"/>
    </contour>
  </outline>
</glyph>
<glyph name="braceleft" format="1">
  <advance width="359"/>
  <unicode hex="007B"/>
  <outline>
    <contour>
      <point x="159" y="-180" type="line"/>
      <point x="132" y="-189"/>
      <point x="109" y="-194"/>
      <point x="83" y="-194" type="curve" smooth="yes"/>
      <point x="17" y="-194"/>
      <point x="-14" y="-174"/>
      <point x="-14" y="-128" type="curve" smooth="yes"/>
      <point x="-14" y="-57"/>
      <point x="70" y="76"/>
      <point x="108" y="194" type="curve" smooth="yes"/>
      <point x="117" y="223"/>
      <point x="122" y="247"/>
      <point x="122" y="265" type="curve" smooth="yes"/>
      <point x="122" y="304"/>
      <point x="100" y="320"/>
      <point x="52" y="320" type="curve"/>
      <point x="60" y="343" type="line"/>
      <point x="129" y="343"/>
      <point x="168" y="380"/>
      <point x="195" y="463" type="curve" smooth="yes"/>
      <point x="220" y="539"/>
      <point x="226" y="641"/>
      <point x="246" y="701" type="curve" smooth="yes"/>
      <point x="272" y="783"/>
      <point x="337" y="828"/>
      <point x="423" y="828" type="curve" smooth="yes"/>
      <point x="447" y="828"/>
      <point x="465" y="823"/>
      <point x="482" y="815" type="curve"/>
      <point x="468" y="789" type="line"/>
      <point x="447" y="793"/>
      <point x="439" y="794"/>
      <point x="428" y="794" type="curve" smooth="yes"/>
      <point x="385" y="794"/>
      <point x="350" y="757"/>
      <point x="332" y="699" type="curve" smooth="yes"/>
      <point x="314" y="644"/>
      <point x="304" y="538"/>
      <point x="280" y="464" type="curve" smooth="yes"/>
      <point x="257" y="393"/>
      <point x="221" y="351"/>
      <point x="165" y="332" type="curve"/>
      <point x="164" y="328" type="line"/>
      <point x="193" y="315"/>
      <point x="207" y="296"/>
      <point x="207" y="264" type="curve" smooth="yes"/>
      <point x="207" y="199"/>
      <point x="111" y="21"/>
      <point x="83" y="-65" type="curve" smooth="yes"/>
      <point x="76" y="-86"/>
      <point x="73" y="-103"/>
      <point x="73" y="-117" type="curve" smooth="yes"/>
      <point x="73" y="-145"/>
      <point x="88" y="-157"/>
      <point x="119" y="-157" type="curve" smooth="yes"/>
      <point x="134" y="-157"/>
      <point x="148" y="-155"/>
      <point x="162" y="-151" type="curve"/>
    </contour>
  </outline>
</glyph>
<glyph name="bar" format="1">
  <advance width="311"/>
  <unicode hex="007C"/>
  <outline>
    <contour>
      <point x="41" y="-170" type="line"/>
      <point x="362" y="819" type="line"/>
      <point x="292" y="819" type="line"/>
      <point x="-28" y="-170" type="line"/>
    </contour>
  </outline>
</glyph>
<glyph name="asciitilde" format="1">
  <advance width="587"/>
  <unicode hex="007E"/>
  <outline>
    <contour>
      <point x="55" y="223" type="line"/>
      <point x="71" y="275"/>
      <point x="121" y="359"/>
      <point x="213" y="359" type="curve" smooth="yes"/>
      <point x="285" y="359"/>
      <point x="337" y="307"/>
      <point x="411" y="307" type="curve" smooth="yes"/>
      <point x="456" y="307"/>
      <point x="477" y="328"/>
      <point x="495" y="359" type="curve"/>
      <point x="525" y="359" type="line"/>
      <point x="509" y="307"/>
      <point x="459" y="223"/>
      <point x="367" y="223" type="curve" smooth="yes"/>
      <point x="296" y="223"/>
      <point x="241" y="276"/>
      <point x="168" y="276" type="curve" smooth="yes"/>
      <point x="123" y="276"/>
      <point x="103" y="254"/>
      <point x="85" y="223" type="curve"/>
    </contour>
  </outline>
</glyph>
<glyph name="exclamdown" format="1">
  <advance width="314"/>
  <unicode hex="00A1"/>
  <outline>
    <contour>
      <point x="124" y="300" type="line"/>
      <point x="77" y="156"/>
      <point x="37" y="67"/>
      <point x="-16" y="-23" type="curve" smooth="yes"/>
      <point x="-74" y="-122"/>
      <point x="-85" y="-150"/>
      <point x="-85" y="-177" type="curve" smooth="yes"/>
      <point x="-85" y="-214"/>
      <point x="-59" y="-240"/>
      <point x="-21" y="-240" type="curve" smooth="yes"/>
      <point x="12" y="-240"/>
      <point x="32" y="-219"/>
      <point x="42" y="-189" type="curve" smooth="yes"/>
      <point x="48" y="-170"/>
      <point x="61" y="-114"/>
      <point x="78" y="-41" type="curve" smooth="yes"/>
      <point x="159" y="300" type="line"/>
    </contour>
    <contour>
      <point x="189" y="415" type="curve" smooth="yes"/>
      <point x="154" y="415"/>
      <point x="126" y="440"/>
      <point x="126" y="473" type="curve" smooth="yes"/>
      <point x="126" y="509"/>
      <point x="161" y="540"/>
      <point x="201" y="540" type="curve" smooth="yes"/>
      <point x="236" y="540"/>
      <point x="260" y="516"/>
      <point x="260" y="483" type="curve" smooth="yes"/>
      <point x="260" y="446"/>
      <point x="228" y="415"/>
    </contour>
  </outline>
</glyph>
<glyph name="yen" format="1">
  <advance width="798"/>
  <unicode hex="00A5"/>
  <outline>
    <contour>
      <point x="158" y="254" type="line"/>
      <point x="321" y="254" type="line"/>
      <point x="353" y="331" type="line"/>
      <point x="194" y="331" type="line"/>
      <point x="216" y="375" type="line"/>
      <point x="351" y="375" type="line"/>
      <point x="308" y="664" type="line" smooth="yes"/>
      <point x="298" y="731"/>
      <point x="288" y="747"/>
      <point x="218" y="747" type="curve"/>
      <point x="228" y="770" type="line"/>
      <point x="510" y="770" type="line"/>
      <point x="500" y="747" type="line"/>
      <point x="444" y="745"/>
      <point x="422" y="731"/>
      <point x="422" y="677" type="curve" smooth="yes"/>
      <point x="422" y="667"/>
      <point x="423" y="654"/>
      <point x="425" y="640" type="curve" smooth="yes"/>
      <point x="455" y="394" type="line"/>
      <point x="724" y="664" type="line" smooth="yes"/>
      <point x="746" y="686"/>
      <point x="757" y="703"/>
      <point x="757" y="716" type="curve" smooth="yes"/>
      <point x="757" y="736"/>
      <point x="731" y="747"/>
      <point x="674" y="747" type="curve"/>
      <point x="683" y="770" type="line"/>
      <point x="959" y="770" type="line"/>
      <point x="946" y="747" type="line"/>
      <point x="863" y="742"/>
      <point x="832" y="725"/>
      <point x="746" y="638" type="curve" smooth="yes"/>
      <point x="488" y="375" type="line"/>
      <point x="645" y="375" type="line"/>
      <point x="623" y="331" type="line"/>
      <point x="463" y="331" type="line"/>
      <point x="431" y="254" type="line"/>
      <point x="587" y="254" type="line"/>
      <point x="565" y="210" type="line"/>
      <point x="412" y="210" type="line"/>
      <point x="342" y="42" type="line"/>
      <point x="440" y="23" type="line"/>
      <point x="430" y="0" type="line"/>
      <point x="126" y="0" type="line"/>
      <point x="136" y="23" type="line"/>
      <point x="233" y="42" type="line"/>
      <point x="303" y="210" type="line"/>
      <point x="136" y="210" type="line"/>
    </contour>
  </outline>
</glyph>
<glyph name="dieresis" format="1">
  <advance width="317"/>
  <unicode hex="00A8"/>
  <outline>
    <contour>
      <point x="75" y="780" type="curve" smooth="yes"/>
      <point x="105" y="780"/>
      <point x="132" y="759"/>
      <point x="132" y="731" type="curve" smooth="yes"/>
      <point x="132" y="699"/>
      <point x="99" y="669"/>
      <point x="65" y="669" type="curve" smooth="yes"/>
      <point x="31" y="669"/>
      <point x="10" y="689"/>
      <point x="10" y="720" type="curve" smooth="yes"/>
      <point x="10" y="752"/>
      <point x="41" y="780"/>
    </contour>
    <contour>
      <point x="250" y="780" type="curve" smooth="yes"/>
      <point x="280" y="780"/>
      <point x="307" y="759"/>
      <point x="307" y="731" type="curve" smooth="yes"/>
      <point x="307" y="699"/>
      <point x="274" y="669"/>
      <point x="240" y="669" type="curve" smooth="yes"/>
      <point x="206" y="669"/>
      <point x="185" y="689"/>
      <point x="185" y="720" type="curve" smooth="yes"/>
      <point x="185" y="752"/>
      <point x="216" y="780"/>
    </contour>
    <contour>
      <point x="158" y="651" type="move" name="_top"/>
    </contour>
  </outline>
</glyph>
<glyph name="ordfeminine" format="1">
  <advance width="475"/>
  <unicode hex="00AA"/>
  <outline>
    <contour>
      <point x="407" y="780" type="curve" smooth="yes"/>
      <point x="431" y="780"/>
      <point x="446" y="772"/>
      <point x="461" y="750" type="curve"/>
      <point x="472" y="774" type="line"/>
      <point x="543" y="774" type="line"/>
      <point x="431" y="500" type="line"/>
      <point x="426" y="484"/>
      <point x="425" y="478"/>
      <point x="425" y="473" type="curve" smooth="yes"/>
      <point x="425" y="465"/>
      <point x="429" y="461"/>
      <point x="435" y="461" type="curve" smooth="yes"/>
      <point x="448" y="461"/>
      <point x="470" y="478"/>
      <point x="507" y="519" type="curve"/>
      <point x="525" y="505" type="line"/>
      <point x="476" y="450"/>
      <point x="430" y="422"/>
      <point x="399" y="422" type="curve" smooth="yes"/>
      <point x="368" y="422"/>
      <point x="353" y="435"/>
      <point x="353" y="460" type="curve" smooth="yes"/>
      <point x="353" y="479"/>
      <point x="358" y="498"/>
      <point x="375" y="526" type="curve"/>
      <point x="372" y="528" type="line"/>
      <point x="321" y="454"/>
      <point x="281" y="422"/>
      <point x="238" y="422" type="curve" smooth="yes"/>
      <point x="187" y="422"/>
      <point x="156" y="454"/>
      <point x="156" y="508" type="curve" smooth="yes"/>
      <point x="156" y="626"/>
      <point x="296" y="780"/>
    </contour>
    <contour>
      <point x="254" y="460" type="curve" smooth="yes"/>
      <point x="296" y="460"/>
      <point x="374" y="551"/>
      <point x="424" y="661" type="curve" smooth="yes"/>
      <point x="437" y="691"/>
      <point x="438" y="705"/>
      <point x="438" y="717" type="curve" smooth="yes"/>
      <point x="438" y="737"/>
      <point x="424" y="750"/>
      <point x="408" y="750" type="curve" smooth="yes"/>
      <point x="346" y="750"/>
      <point x="230" y="584"/>
      <point x="230" y="498" type="curve" smooth="yes"/>
      <point x="230" y="472"/>
      <point x="236" y="460"/>
    </contour>
  </outline>
</glyph>
<glyph name="guillemotleft" format="1">
  <advance width="478"/>
  <unicode hex="00AB"/>
  <outline>
    <contour>
      <point x="105" y="53" type="line"/>
      <point x="31" y="239" type="line"/>
      <point x="36" y="251" type="line"/>
      <point x="258" y="436" type="line"/>
      <point x="274" y="421" type="line"/>
      <point x="125" y="234" type="line"/>
      <point x="125" y="64" type="line"/>
    </contour>
    <contour>
      <point x="281" y="53" type="line"/>
      <point x="207" y="239" type="line"/>
      <point x="212" y="251" type="line"/>
      <point x="434" y="436" type="line"/>
      <point x="450" y="421" type="line"/>
      <point x="301" y="234" type="line"/>
      <point x="301" y="64" type="line"/>
    </contour>
  </outline>
</glyph>
<glyph name="uni00AD" format="1">
  <advance width="480"/>
  <unicode hex="00AD"/>
  <outline>
    <contour>
      <point x="363" y="210" type="line"/>
      <point x="396" y="294" type="line"/>
      <point x="77" y="294" type="line"/>
      <point x="44" y="210" type="line"/>
    </contour>
  </outline>
</glyph>
<glyph name="registered" format="1">
  <advance width="974"/>
  <unicode hex="00AE"/>
  <outline>
    <contour>
      <point x="126" y="385" type="curve" smooth="yes"/>
      <point x="126" y="167"/>
      <point x="305" y="-10"/>
      <point x="523" y="-10" type="curve" smooth="yes"/>
      <point x="741" y="-10"/>
      <point x="920" y="167"/>
      <point x="920" y="385" type="curve" smooth="yes"/>
      <point x="920" y="603"/>
      <point x="741" y="780"/>
      <point x="523" y="780" type="curve" smooth="yes"/>
      <point x="305" y="780"/>
      <point x="126" y="603"/>
    </contour>
    <contour>
      <point x="173" y="385" type="curve" smooth="yes"/>
      <point x="173" y="577"/>
      <point x="331" y="732"/>
      <point x="523" y="732" type="curve" smooth="yes"/>
      <point x="715" y="732"/>
      <point x="872" y="577"/>
      <point x="872" y="385" type="curve" smooth="yes"/>
      <point x="872" y="193"/>
      <point x="715" y="38"/>
      <point x="523" y="38" type="curve" smooth="yes"/>
      <point x="331" y="38"/>
      <point x="173" y="193"/>
    </contour>
    <contour>
      <point x="325" y="612" type="line"/>
      <point x="364" y="600" type="line"/>
      <point x="364" y="175" type="line"/>
      <point x="325" y="162" type="line"/>
      <point x="325" y="143" type="line"/>
      <point x="508" y="143" type="line"/>
      <point x="508" y="162" type="line"/>
      <point x="450" y="175" type="line"/>
      <point x="450" y="365" type="line"/>
      <point x="487" y="365" type="line"/>
      <point x="600" y="143" type="line"/>
      <point x="736" y="143" type="line"/>
      <point x="736" y="162" type="line"/>
      <point x="689" y="175" type="line"/>
      <point x="582" y="374" type="line"/>
      <point x="650" y="391"/>
      <point x="691" y="431"/>
      <point x="691" y="493" type="curve" smooth="yes"/>
      <point x="691" y="583"/>
      <point x="617" y="632"/>
      <point x="511" y="632" type="curve" smooth="yes"/>
      <point x="325" y="632" type="line"/>
    </contour>
    <contour>
      <point x="450" y="599" type="line"/>
      <point x="483" y="599" type="line" smooth="yes"/>
      <point x="509" y="599"/>
      <point x="525" y="596"/>
      <point x="540" y="591" type="curve" smooth="yes"/>
      <point x="577" y="578"/>
      <point x="598" y="545"/>
      <point x="598" y="499" type="curve" smooth="yes"/>
      <point x="598" y="474"/>
      <point x="591" y="453"/>
      <point x="573" y="434" type="curve" smooth="yes"/>
      <point x="554" y="412"/>
      <point x="526" y="399"/>
      <point x="472" y="399" type="curve" smooth="yes"/>
      <point x="450" y="399" type="line"/>
    </contour>
  </outline>
</glyph>
<glyph name="macron" format="1">
  <advance width="335"/>
  <unicode hex="00AF"/>
  <outline>
    <contour>
      <point x="10" y="709" type="line"/>
      <point x="38" y="780" type="line"/>
      <point x="325" y="780" type="line"/>
      <point x="296" y="709" type="line"/>
    </contour>
    <contour>
      <point x="130" y="651" type="move" name="_top"/>
    </contour>
  </outline>
</glyph>
<glyph name="plusminus" format="1">
  <advance width="643"/>
  <unicode hex="00B1"/>
  <outline>
    <contour>
      <point x="295" y="241" type="line"/>
      <point x="346" y="241" type="line"/>
      <point x="346" y="422" type="line"/>
      <point x="525" y="422" type="line"/>
      <point x="525" y="471" type="line"/>
      <point x="346" y="471" type="line"/>
      <point x="346" y="651" type="line"/>
      <point x="295" y="651" type="line"/>
      <point x="295" y="471" type="line"/>
      <point x="115" y="471" type="line"/>
      <point x="115" y="422" type="line"/>
      <point x="295" y="422" type="line"/>
    </contour>
    <contour>
      <point x="525" y="106" type="line"/>
      <point x="525" y="155" type="line"/>
      <point x="115" y="155" type="line"/>
      <point x="115" y="106" type="line"/>
    </contour>
  </outline>
</glyph>
<glyph name="twosuperior" format="1">
  <advance width="406"/>
  <unicode hex="00B2"/>
  <outline>
    <contour>
      <point x="424" y="502" type="line"/>
      <point x="442" y="521"/>
      <point x="453" y="537"/>
      <point x="463" y="557" type="curve"/>
      <point x="486" y="549" type="line"/>
      <point x="432" y="416" type="line"/>
      <point x="144" y="416" type="line"/>
      <point x="199" y="625"/>
      <point x="442" y="715"/>
      <point x="442" y="833" type="curve" smooth="yes"/>
      <point x="442" y="863"/>
      <point x="426" y="882"/>
      <point x="392" y="882" type="curve" smooth="yes"/>
      <point x="346" y="882"/>
      <point x="291" y="846"/>
      <point x="253" y="789" type="curve"/>
      <point x="226" y="812" type="line"/>
      <point x="276" y="880"/>
      <point x="345" y="926"/>
      <point x="430" y="926" type="curve" smooth="yes"/>
      <point x="500" y="926"/>
      <point x="541" y="894"/>
      <point x="541" y="837" type="curve" smooth="yes"/>
      <point x="541" y="703"/>
      <point x="314" y="646"/>
      <point x="226" y="502" type="curve"/>
    </contour>
  </outline>
</glyph>
<glyph name="acute" format="1">
  <advance width="248"/>
  <unicode hex="00B4"/>
  <outline>
    <contour>
      <point x="10" y="642" type="line"/>
      <point x="126" y="813" type="line" smooth="yes"/>
      <point x="146" y="843"/>
      <point x="166" y="857"/>
      <point x="189" y="857" type="curve" smooth="yes"/>
      <point x="217" y="857"/>
      <point x="238" y="839"/>
      <point x="238" y="815" type="curve" smooth="yes"/>
      <point x="238" y="795"/>
      <point x="224" y="776"/>
      <point x="188" y="750" type="curve" smooth="yes"/>
      <point x="26" y="631" type="line"/>
    </contour>
    <contour>
      <point x="124" y="651" type="move" name="_top"/>
    </contour>
  </outline>
</glyph>
<glyph name="mu" format="1">
  <advance width="668"/>
  <unicode hex="00B5"/>
  <outline>
    <contour>
      <point x="24" y="-100" type="curve" smooth="yes"/>
      <point x="21" y="-192"/>
      <point x="-4" y="-242"/>
      <point x="-49" y="-242" type="curve" smooth="yes"/>
      <point x="-78" y="-242"/>
      <point x="-95" y="-220"/>
      <point x="-95" y="-184" type="curve" smooth="yes"/>
      <point x="-95" y="-140"/>
      <point x="-65" y="-64"/>
      <point x="12" y="82" type="curve" smooth="yes"/>
      <point x="85" y="220"/>
      <point x="111" y="270"/>
      <point x="124" y="300" type="curve" smooth="yes"/>
      <point x="224" y="530" type="line"/>
      <point x="337" y="530" type="line"/>
      <point x="149" y="103" type="line" smooth="yes" name="hr01"/>
      <point x="141" y="84"/>
      <point x="136" y="66"/>
      <point x="136" y="55" type="curve" smooth="yes"/>
      <point x="136" y="36"/>
      <point x="148" y="25"/>
      <point x="167" y="25" type="curve" smooth="yes"/>
      <point x="230" y="25"/>
      <point x="334" y="153"/>
      <point x="420" y="336" type="curve" smooth="yes"/>
      <point x="511" y="530" type="line"/>
      <point x="610" y="530" type="line"/>
      <point x="416" y="84" type="line" smooth="yes"/>
      <point x="409" y="68"/>
      <point x="405" y="54"/>
      <point x="405" y="47" type="curve" smooth="yes"/>
      <point x="405" y="39"/>
      <point x="410" y="35"/>
      <point x="419" y="35" type="curve" smooth="yes"/>
      <point x="442" y="35"/>
      <point x="484" y="68"/>
      <point x="525" y="120" type="curve"/>
      <point x="545" y="104" type="line"/>
      <point x="491" y="35"/>
      <point x="425" y="-10"/>
      <point x="379" y="-10" type="curve" smooth="yes"/>
      <point x="345" y="-10"/>
      <point x="322" y="14"/>
      <point x="322" y="49" type="curve" smooth="yes"/>
      <point x="322" y="73"/>
      <point x="333" y="108"/>
      <point x="353" y="148" type="curve"/>
      <point x="348" y="150" type="line"/>
      <point x="269" y="42"/>
      <point x="203" y="-10"/>
      <point x="141" y="-10" type="curve" smooth="yes"/>
      <point x="95" y="-10"/>
      <point x="71" y="19"/>
      <point x="71" y="74" type="curve" smooth="yes"/>
      <point x="71" y="85"/>
      <point x="72" y="97"/>
      <point x="74" y="111" type="curve"/>
      <point x="70" y="111" type="line"/>
      <point x="39" y="39"/>
      <point x="26" y="-15"/>
    </contour>
    <contour>
      <point x="471" y="651" type="move" name="top"/>
    </contour>
  </outline>
</glyph>
<glyph name="paragraph" format="1">
  <advance width="565"/>
  <unicode hex="00B6"/>
  <outline>
    <contour>
      <point x="405" y="336" type="line"/>
      <point x="320" y="336" type="line" smooth="yes"/>
      <point x="215" y="336"/>
      <point x="150" y="400"/>
      <point x="150" y="503" type="curve" smooth="yes"/>
      <point x="150" y="651"/>
      <point x="295" y="770"/>
      <point x="475" y="770" type="curve" smooth="yes"/>
      <point x="666" y="770" type="line"/>
      <point x="657" y="745" type="line"/>
      <point x="583" y="730" type="line"/>
      <point x="359" y="76" type="line" smooth="yes"/>
      <point x="307" y="-75"/>
      <point x="265" y="-118"/>
      <point x="172" y="-118" type="curve" smooth="yes"/>
      <point x="83" y="-118"/>
      <point x="17" y="-77"/>
      <point x="17" y="-23" type="curve" smooth="yes"/>
      <point x="17" y="6"/>
      <point x="34" y="23"/>
      <point x="61" y="23" type="curve" smooth="yes"/>
      <point x="85" y="23"/>
      <point x="97" y="10"/>
      <point x="107" y="-25" type="curve" smooth="yes"/>
      <point x="119" y="-69"/>
      <point x="138" y="-84"/>
      <point x="178" y="-84" type="curve" smooth="yes"/>
      <point x="240" y="-84"/>
      <point x="272" y="-48"/>
      <point x="314" y="74" type="curve" smooth="yes"/>
    </contour>
  </outline>
</glyph>
<glyph name="periodcentered" format="1">
  <advance width="298"/>
  <unicode hex="00B7"/>
  <outline>
    <contour>
      <point x="158" y="384" type="curve" smooth="yes"/>
      <point x="198" y="384"/>
      <point x="233" y="356"/>
      <point x="233" y="319" type="curve" smooth="yes"/>
      <point x="233" y="277"/>
      <point x="189" y="237"/>
      <point x="145" y="237" type="curve" smooth="yes"/>
      <point x="100" y="237"/>
      <point x="72" y="264"/>
      <point x="72" y="304" type="curve" smooth="yes"/>
      <point x="72" y="348"/>
      <point x="113" y="384"/>
    </contour>
  </outline>
</glyph>
<glyph name="onesuperior" format="1">
  <advance width="355"/>
  <unicode hex="00B9"/>
  <outline>
    <contour>
      <point x="140" y="439" type="line"/>
      <point x="218" y="455" type="line"/>
      <point x="362" y="828" type="line"/>
      <point x="359" y="831" type="line"/>
      <point x="270" y="818" type="line"/>
      <point x="263" y="842" type="line"/>
      <point x="323" y="858"/>
      <point x="409" y="898"/>
      <point x="445" y="927" type="curve"/>
      <point x="492" y="927" type="line"/>
      <point x="310" y="452" type="line"/>
      <point x="393" y="439" type="line"/>
      <point x="383" y="416" type="line"/>
      <point x="131" y="416" type="line"/>
    </contour>
  </outline>
</glyph>
<glyph name="ordmasculine" format="1">
  <advance width="422"/>
  <unicode hex="00BA"/>
  <outline>
    <contour>
      <point x="267" y="422" type="curve" smooth="yes"/>
      <point x="203" y="422"/>
      <point x="163" y="463"/>
      <point x="163" y="529" type="curve" smooth="yes"/>
      <point x="163" y="647"/>
      <point x="291" y="780"/>
      <point x="406" y="780" type="curve" smooth="yes"/>
      <point x="470" y="780"/>
      <point x="510" y="739"/>
      <point x="510" y="673" type="curve" smooth="yes"/>
      <point x="510" y="555"/>
      <point x="382" y="422"/>
    </contour>
    <contour>
      <point x="411" y="747" type="curve" smooth="yes"/>
      <point x="341" y="747"/>
      <point x="232" y="596"/>
      <point x="232" y="500" type="curve" smooth="yes"/>
      <point x="232" y="470"/>
      <point x="242" y="455"/>
      <point x="262" y="455" type="curve" smooth="yes"/>
      <point x="327" y="455"/>
      <point x="442" y="614"/>
      <point x="442" y="705" type="curve" smooth="yes"/>
      <point x="442" y="733"/>
      <point x="431" y="747"/>
    </contour>
  </outline>
</glyph>
<glyph name="guillemotright" format="1">
  <advance width="476"/>
  <unicode hex="00BB"/>
  <outline>
    <contour>
      <point x="325" y="436" type="line"/>
      <point x="399" y="250" type="line"/>
      <point x="394" y="238" type="line"/>
      <point x="172" y="53" type="line"/>
      <point x="156" y="68" type="line"/>
      <point x="305" y="255" type="line"/>
      <point x="305" y="425" type="line"/>
    </contour>
    <contour>
      <point x="149" y="436" type="line"/>
      <point x="223" y="250" type="line"/>
      <point x="218" y="238" type="line"/>
      <point x="-4" y="53" type="line"/>
      <point x="-20" y="68" type="line"/>
      <point x="129" y="255" type="line"/>
      <point x="129" y="425" type="line"/>
    </contour>
  </outline>
</glyph>
<glyph name="questiondown" format="1">
  <advance width="465"/>
  <unicode hex="00BF"/>
  <outline>
    <contour>
      <point x="257" y="540" type="curve" smooth="yes"/>
      <point x="292" y="540"/>
      <point x="320" y="515"/>
      <point x="320" y="482" type="curve" smooth="yes"/>
      <point x="320" y="446"/>
      <point x="285" y="415"/>
      <point x="245" y="415" type="curve" smooth="yes"/>
      <point x="210" y="415"/>
      <point x="186" y="439"/>
      <point x="186" y="472" type="curve" smooth="yes"/>
      <point x="186" y="509"/>
      <point x="218" y="540"/>
    </contour>
    <contour>
      <point x="110" y="336" type="line"/>
      <point x="201" y="334"/>
      <point x="249" y="292"/>
      <point x="249" y="223" type="curve" smooth="yes"/>
      <point x="249" y="74"/>
      <point x="-21" y="13"/>
      <point x="-21" y="-141" type="curve" smooth="yes"/>
      <point x="-21" y="-189"/>
      <point x="10" y="-223"/>
      <point x="54" y="-223" type="curve" smooth="yes"/>
      <point x="117" y="-223"/>
      <point x="115" y="-135"/>
      <point x="180" y="-135" type="curve" smooth="yes"/>
      <point x="206" y="-135"/>
      <point x="224" y="-153"/>
      <point x="224" y="-179" type="curve" smooth="yes"/>
      <point x="224" y="-224"/>
      <point x="164" y="-256"/>
      <point x="78" y="-256" type="curve" smooth="yes"/>
      <point x="-32" y="-256"/>
      <point x="-98" y="-203"/>
      <point x="-98" y="-113" type="curve" smooth="yes"/>
      <point x="-98" y="72"/>
      <point x="167" y="118"/>
      <point x="167" y="241" type="curve" smooth="yes"/>
      <point x="167" y="280"/>
      <point x="142" y="306"/>
      <point x="105" y="308" type="curve"/>
    </contour>
  </outline>
</glyph>
<glyph name="Eth" format="1">
  <advance width="808"/>
  <unicode hex="00D0"/>
  <outline>
    <contour>
      <point x="78" y="376" type="line"/>
      <point x="96" y="420" type="line"/>
      <point x="453" y="420" type="line"/>
      <point x="434" y="376" type="line"/>
    </contour>
    <component base="D" xOffset="3"/>
  </outline>
</glyph>
<glyph name="multiply" format="1">
  <advance width="553"/>
  <unicode hex="00D7"/>
  <outline>
    <contour>
      <point x="110" y="199" type="line"/>
      <point x="149" y="160" type="line"/>
      <point x="290" y="301" type="line"/>
      <point x="429" y="162" type="line"/>
      <point x="466" y="199" type="line"/>
      <point x="327" y="338" type="line"/>
      <point x="467" y="478" type="line"/>
      <point x="428" y="517" type="line"/>
      <point x="288" y="377" type="line"/>
      <point x="148" y="517" type="line"/>
      <point x="111" y="480" type="line"/>
      <point x="251" y="340" type="line"/>
    </contour>
  </outline>
</glyph>
<glyph name="germandbls" format="1">
  <advance width="669"/>
  <unicode hex="00DF"/>
  <outline>
    <contour>
      <point x="346" y="394" type="curve" smooth="yes"/>
      <point x="346" y="274"/>
      <point x="476" y="202"/>
      <point x="476" y="109" type="curve" smooth="yes"/>
      <point x="476" y="58"/>
      <point x="437" y="21"/>
      <point x="381" y="21" type="curve" smooth="yes"/>
      <point x="287" y="21"/>
      <point x="331" y="128"/>
      <point x="261" y="128" type="curve" smooth="yes" name="hr01"/>
      <point x="234" y="128"/>
      <point x="216" y="112"/>
      <point x="216" y="87" type="curve" smooth="yes"/>
      <point x="216" y="35"/>
      <point x="292" y="-10"/>
      <point x="381" y="-10" type="curve" smooth="yes"/>
      <point x="488" y="-10"/>
      <point x="573" y="55"/>
      <point x="573" y="137" type="curve" smooth="yes"/>
      <point x="573" y="243"/>
      <point x="431" y="315"/>
      <point x="431" y="431" type="curve" smooth="yes"/>
      <point x="431" y="567"/>
      <point x="624" y="585"/>
      <point x="624" y="711" type="curve" smooth="yes" name="hr02"/>
      <point x="624" y="782"/>
      <point x="562" y="830"/>
      <point x="471" y="830" type="curve" smooth="yes"/>
      <point x="350" y="830"/>
      <point x="248" y="744"/>
      <point x="197" y="600" type="curve" smooth="yes"/>
      <point x="33" y="143" type="line" smooth="yes"/>
      <point x="-56" y="-104"/>
      <point x="-89" y="-162"/>
      <point x="-141" y="-162" type="curve" smooth="yes"/>
      <point x="-206" y="-162"/>
      <point x="-172" y="-73"/>
      <point x="-245" y="-73" type="curve" smooth="yes" name="hr03"/>
      <point x="-274" y="-73"/>
      <point x="-289" y="-87"/>
      <point x="-289" y="-115" type="curve" smooth="yes"/>
      <point x="-289" y="-165"/>
      <point x="-240" y="-197"/>
      <point x="-165" y="-197" type="curve" smooth="yes"/>
      <point x="-33" y="-197"/>
      <point x="46" y="-98"/>
      <point x="157" y="203" type="curve" smooth="yes"/>
      <point x="299" y="590" type="line" smooth="yes"/>
      <point x="354" y="740"/>
      <point x="404" y="803"/>
      <point x="469" y="803" type="curve" smooth="yes"/>
      <point x="513" y="803"/>
      <point x="537" y="772"/>
      <point x="537" y="715" type="curve" smooth="yes"/>
      <point x="537" y="550"/>
      <point x="346" y="540"/>
    </contour>
  </outline>
</glyph>
<glyph name="eth" format="1">
  <advance width="555"/>
  <unicode hex="00F0"/>
  <outline>
    <contour>
      <point x="362" y="540" type="curve" smooth="yes" name="hr00"/>
      <point x="200" y="540"/>
      <point x="13" y="332"/>
      <point x="13" y="151" type="curve" smooth="yes"/>
      <point x="13" y="50"/>
      <point x="70" y="-10"/>
      <point x="164" y="-10" type="curve" smooth="yes"/>
      <point x="343" y="-10"/>
      <point x="515" y="199"/>
      <point x="515" y="416" type="curve" smooth="yes"/>
      <point x="515" y="512"/>
      <point x="482" y="636"/>
      <point x="443" y="688" type="curve"/>
      <point x="572" y="770" type="line"/>
      <point x="550" y="802" type="line"/>
      <point x="420" y="720" type="line"/>
      <point x="384" y="758"/>
      <point x="339" y="787"/>
      <point x="268" y="819" type="curve"/>
      <point x="254" y="793" type="line"/>
      <point x="318" y="761"/>
      <point x="352" y="734"/>
      <point x="379" y="693" type="curve"/>
      <point x="244" y="606" type="line"/>
      <point x="265" y="573" type="line"/>
      <point x="395" y="657" type="line"/>
      <point x="426" y="597"/>
      <point x="438" y="557"/>
      <point x="441" y="502" type="curve"/>
      <point x="437" y="502" type="line"/>
      <point x="424" y="528"/>
      <point x="400" y="540"/>
    </contour>
    <contour>
      <point x="374" y="496" type="curve" smooth="yes"/>
      <point x="406" y="496"/>
      <point x="421" y="474"/>
      <point x="421" y="429" type="curve" smooth="yes"/>
      <point x="421" y="280"/>
      <point x="249" y="25"/>
      <point x="149" y="25" type="curve" smooth="yes"/>
      <point x="119" y="25"/>
      <point x="104" y="48"/>
      <point x="104" y="97" type="curve" smooth="yes"/>
      <point x="104" y="255"/>
      <point x="267" y="496"/>
    </contour>
  </outline>
</glyph>
<glyph name="oslash" format="1">
  <advance width="557"/>
  <unicode hex="00F8"/>
  <outline>
    <contour>
      <point x="-40" y="-120" type="line"/>
      <point x="511" y="658" type="line"/>
      <point x="566" y="658" type="line"/>
      <point x="13" y="-120" type="line"/>
    </contour>
    <component base="o"/>
  </outline>
</glyph>
<glyph name="thorn" format="1">
  <advance width="592"/>
  <unicode hex="00FE"/>
  <outline>
    <contour>
      <point x="404" y="820" type="line" name="hr00"/>
      <point x="297" y="547" type="line"/>
      <point x="446" y="543"/>
      <point x="544" y="461"/>
      <point x="544" y="341" type="curve" smooth="yes"/>
      <point x="544" y="172"/>
      <point x="340" y="10"/>
      <point x="127" y="10" type="curve" smooth="yes"/>
      <point x="109" y="10"/>
      <point x="90" y="11"/>
      <point x="73" y="13" type="curve"/>
      <point x="-24" y="-220" type="line"/>
      <point x="78" y="-232" type="line"/>
      <point x="78" y="-250" type="line"/>
      <point x="-208" y="-250" type="line"/>
      <point x="-208" y="-235" type="line"/>
      <point x="-128" y="-223" type="line"/>
      <point x="294" y="793" type="line"/>
      <point x="216" y="805" type="line"/>
      <point x="212" y="820" type="line"/>
    </contour>
    <contour>
      <point x="84" y="40" type="line"/>
      <point x="93" y="39"/>
      <point x="99" y="39"/>
      <point x="110" y="39" type="curve" smooth="yes"/>
      <point x="275" y="39"/>
      <point x="440" y="201"/>
      <point x="440" y="363" type="curve" smooth="yes"/>
      <point x="440" y="453"/>
      <point x="387" y="508"/>
      <point x="300" y="508" type="curve" smooth="yes"/>
      <point x="282" y="508"/>
      <point x="277" y="506"/>
      <point x="274" y="497" type="curve" smooth="yes"/>
    </contour>
  </outline>
</glyph>
<glyph name="Hbar" format="1">
  <advance width="860"/>
  <unicode hex="0126"/>
  <outline>
    <contour>
      <point x="923" y="550" type="line"/>
      <point x="942" y="594" type="line"/>
      <point x="185" y="594" type="line"/>
      <point x="167" y="550" type="line"/>
    </contour>
    <component base="H" xOffset="1"/>
  </outline>
</glyph>
<glyph name="hbar" format="1">
  <advance width="595"/>
  <unicode hex="0127"/>
  <outline>
    <contour>
      <point x="448" y="662" type="line"/>
      <point x="466" y="704" type="line"/>
      <point x="179" y="704" type="line"/>
      <point x="162" y="662" type="line"/>
    </contour>
    <component base="h"/>
  </outline>
</glyph>
<glyph name="dotlessi" format="1">
  <advance width="340"/>
  <unicode hex="0131"/>
  <outline>
    <contour>
      <point x="227" y="540" type="curve" smooth="yes" name="hr00"/>
      <point x="265" y="540"/>
      <point x="292" y="523"/>
      <point x="292" y="491" type="curve" smooth="yes"/>
      <point x="292" y="472"/>
      <point x="286" y="449"/>
      <point x="276" y="425" type="curve" smooth="yes"/>
      <point x="133" y="81" type="line" smooth="yes"/>
      <point x="131" y="76"/>
      <point x="130" y="72"/>
      <point x="130" y="68" type="curve" smooth="yes"/>
      <point x="130" y="57"/>
      <point x="138" y="49"/>
      <point x="150" y="49" type="curve" smooth="yes"/>
      <point x="169" y="49"/>
      <point x="190" y="65"/>
      <point x="255" y="129" type="curve"/>
      <point x="275" y="117" type="line"/>
      <point x="213" y="38"/>
      <point x="138" y="-10"/>
      <point x="88" y="-10" type="curve" smooth="yes"/>
      <point x="49" y="-10"/>
      <point x="23" y="8"/>
      <point x="23" y="46" type="curve" smooth="yes"/>
      <point x="23" y="63"/>
      <point x="27" y="85"/>
      <point x="38" y="111" type="curve" smooth="yes"/>
      <point x="183" y="467" type="line" smooth="yes"/>
      <point x="187" y="476"/>
      <point x="188" y="482"/>
      <point x="188" y="486" type="curve" smooth="yes"/>
      <point x="188" y="492"/>
      <point x="184" y="495"/>
      <point x="175" y="495" type="curve" smooth="yes"/>
      <point x="151" y="495"/>
      <point x="117" y="471"/>
      <point x="87" y="433" type="curve"/>
      <point x="64" y="451" type="line"/>
      <point x="109" y="506"/>
      <point x="174" y="540"/>
    </contour>
    <contour>
      <point x="90" y="0" type="move" name="bottom"/>
    </contour>
    <contour>
      <point x="298" y="651" type="move" name="top"/>
    </contour>
  </outline>
</glyph>
<glyph name="Lslash" format="1">
  <advance width="697"/>
  <unicode hex="0141"/>
  <outline>
    <contour>
      <point x="43" y="274" type="line"/>
      <point x="43" y="322" type="line"/>
      <point x="439" y="510" type="line"/>
      <point x="437" y="461" type="line"/>
    </contour>
    <component base="L" xOffset="2"/>
  </outline>
</glyph>
<glyph name="Eng" format="1">
  <advance width="815"/>
  <unicode hex="014A"/>
  <outline>
    <contour>
      <point x="613" y="128" type="line"/>
      <point x="512" y="128" type="line"/>
      <point x="447" y="-27" type="line" smooth="yes"/>
      <point x="385" y="-175"/>
      <point x="352" y="-216"/>
      <point x="306" y="-216" type="curve" smooth="yes"/>
      <point x="246" y="-216"/>
      <point x="274" y="-127"/>
      <point x="209" y="-127" type="curve" smooth="yes"/>
      <point x="183" y="-127"/>
      <point x="158" y="-145"/>
      <point x="158" y="-177" type="curve" smooth="yes"/>
      <point x="158" y="-220"/>
      <point x="204" y="-256"/>
      <point x="277" y="-256" type="curve" smooth="yes"/>
      <point x="386" y="-256"/>
      <point x="490" y="-169"/>
      <point x="549" y="-27" type="curve" smooth="yes"/>
    </contour>
    <component base="N"/>
  </outline>
</glyph>
<glyph name="eng" format="1">
  <advance width="597"/>
  <unicode hex="014B"/>
  <outline>
    <contour>
      <point x="274" y="-28" type="line" smooth="yes"/>
      <point x="211" y="-174"/>
      <point x="183" y="-221"/>
      <point x="140" y="-221" type="curve" smooth="yes"/>
      <point x="80" y="-221"/>
      <point x="111" y="-132"/>
      <point x="42" y="-132" type="curve" smooth="yes" name="hr01"/>
      <point x="11" y="-132"/>
      <point x="-4" y="-150"/>
      <point x="-4" y="-177" type="curve" smooth="yes"/>
      <point x="-4" y="-227"/>
      <point x="45" y="-256"/>
      <point x="113" y="-256" type="curve" smooth="yes"/>
      <point x="212" y="-256"/>
      <point x="289" y="-194"/>
      <point x="341" y="-81" type="curve" smooth="yes"/>
      <point x="545" y="360" type="line" smooth="yes"/>
      <point x="561" y="395"/>
      <point x="570" y="423"/>
      <point x="570" y="453" type="curve" smooth="yes"/>
      <point x="570" y="509"/>
      <point x="539" y="539"/>
      <point x="479" y="539" type="curve" smooth="yes"/>
      <point x="405" y="539"/>
      <point x="340" y="493"/>
      <point x="254" y="380" type="curve"/>
      <point x="250" y="382" type="line"/>
      <point x="282" y="441"/>
      <point x="294" y="473"/>
      <point x="294" y="500" type="curve" smooth="yes"/>
      <point x="294" y="528"/>
      <point x="280" y="540"/>
      <point x="246" y="540" type="curve" smooth="yes" name="hr02"/>
      <point x="182" y="540"/>
      <point x="108" y="496"/>
      <point x="57" y="426" type="curve"/>
      <point x="77" y="410" type="line"/>
      <point x="118" y="461"/>
      <point x="160" y="495"/>
      <point x="183" y="495" type="curve" smooth="yes"/>
      <point x="193" y="495"/>
      <point x="197" y="488"/>
      <point x="197" y="481" type="curve" smooth="yes"/>
      <point x="197" y="473"/>
      <point x="193" y="463"/>
      <point x="186" y="446" type="curve" smooth="yes"/>
      <point x="-6" y="0" type="line"/>
      <point x="91" y="0" type="line"/>
      <point x="184" y="194" type="line" smooth="yes"/>
      <point x="270" y="373"/>
      <point x="383" y="505"/>
      <point x="451" y="505" type="curve" smooth="yes" name="hr03"/>
      <point x="471" y="505"/>
      <point x="483" y="494"/>
      <point x="483" y="475" type="curve" smooth="yes"/>
      <point x="483" y="460"/>
      <point x="476" y="441"/>
      <point x="470" y="427" type="curve" smooth="yes"/>
    </contour>
  </outline>
</glyph>
<glyph name="tbar" format="1">
  <advance width="341"/>
  <unicode hex="0167"/>
  <outline>
    <contour>
      <point x="344" y="382" type="line"/>
      <point x="362" y="424" type="line"/>
      <point x="75" y="424" type="line"/>
      <point x="58" y="382" type="line"/>
    </contour>
    <component base="t" xOffset="1"/>
  </outline>
</glyph>
<glyph name="Schwa" format="1">
  <advance width="674"/>
  <unicode hex="018F"/>
  <outline>
    <contour>
      <point x="130" y="-10" type="curve" smooth="yes"/>
      <point x="45" y="-10"/>
      <point x="-8" y="27"/>
      <point x="-8" y="88" type="curve" smooth="yes"/>
      <point x="-8" y="210"/>
      <point x="215" y="329"/>
      <point x="540" y="379" type="curve"/>
      <point x="578" y="473"/>
      <point x="602" y="567"/>
      <point x="602" y="626" type="curve" smooth="yes"/>
      <point x="602" y="695"/>
      <point x="566" y="730"/>
      <point x="492" y="730" type="curve" smooth="yes"/>
      <point x="388" y="730"/>
      <point x="282" y="660"/>
      <point x="188" y="535" type="curve"/>
      <point x="151" y="557" type="line"/>
      <point x="268" y="704"/>
      <point x="391" y="779"/>
      <point x="514" y="779" type="curve" smooth="yes"/>
      <point x="633" y="779"/>
      <point x="701" y="708"/>
      <point x="701" y="586" type="curve" smooth="yes"/>
      <point x="701" y="321"/>
      <point x="383" y="-10"/>
    </contour>
    <contour>
      <point x="508" y="332" type="line"/>
      <point x="304" y="295"/>
      <point x="122" y="180"/>
      <point x="122" y="83" type="curve" smooth="yes"/>
      <point x="122" y="54"/>
      <point x="137" y="41"/>
      <point x="173" y="41" type="curve" smooth="yes"/>
      <point x="272" y="41"/>
      <point x="401" y="136"/>
      <point x="462" y="247" type="curve" smooth="yes"/>
    </contour>
  </outline>
</glyph>
<glyph name="florin" format="1">
  <advance width="568"/>
  <unicode hex="0192"/>
  <outline>
    <contour>
      <point x="578" y="830" type="curve" smooth="yes"/>
      <point x="651" y="830"/>
      <point x="725" y="781"/>
      <point x="725" y="719" type="curve" smooth="yes"/>
      <point x="725" y="694"/>
      <point x="710" y="678"/>
      <point x="683" y="678" type="curve" smooth="yes"/>
      <point x="653" y="678"/>
      <point x="629" y="700"/>
      <point x="629" y="730" type="curve" smooth="yes"/>
      <point x="629" y="742"/>
      <point x="632" y="751"/>
      <point x="632" y="761" type="curve" smooth="yes"/>
      <point x="632" y="787"/>
      <point x="610" y="803"/>
      <point x="577" y="803" type="curve" smooth="yes"/>
      <point x="511" y="803"/>
      <point x="461" y="739"/>
      <point x="419" y="590" type="curve" smooth="yes"/>
      <point x="402" y="530" type="line"/>
      <point x="570" y="530" type="line" name="hr01"/>
      <point x="561" y="498" type="line"/>
      <point x="394" y="498" type="line"/>
      <point x="303" y="203" type="line" smooth="yes"/>
      <point x="204" y="-116"/>
      <point x="99" y="-256"/>
      <point x="-40" y="-256" type="curve" smooth="yes"/>
      <point x="-108" y="-256"/>
      <point x="-159" y="-219"/>
      <point x="-159" y="-167" type="curve" smooth="yes"/>
      <point x="-159" y="-145"/>
      <point x="-144" y="-132"/>
      <point x="-117" y="-132" type="curve" smooth="yes"/>
      <point x="-49" y="-132"/>
      <point x="-68" y="-221"/>
      <point x="-15" y="-221" type="curve" smooth="yes"/>
      <point x="37" y="-221"/>
      <point x="105" y="-129"/>
      <point x="183" y="143" type="curve" smooth="yes"/>
      <point x="284" y="498" type="line"/>
      <point x="126" y="498" type="line"/>
      <point x="134" y="530" type="line"/>
      <point x="293" y="530" type="line" name="hr02"/>
      <point x="316" y="600" type="line" smooth="yes"/>
      <point x="371" y="767"/>
      <point x="471" y="830"/>
    </contour>
  </outline>
</glyph>
<glyph name="Oslashacute" format="1">
  <advance width="804"/>
  <unicode hex="01FE"/>
  <outline>
    <contour>
      <point x="52" y="-149" type="line"/>
      <point x="788" y="889" type="line"/>
      <point x="843" y="889" type="line"/>
      <point x="105" y="-149" type="line"/>
    </contour>
    <contour>
      <point x="515" y="837" type="line"/>
      <point x="659" y="944" type="line" smooth="yes"/>
      <point x="674" y="955"/>
      <point x="687" y="960"/>
      <point x="703" y="960" type="curve" smooth="yes"/>
      <point x="725" y="960"/>
      <point x="746" y="942"/>
      <point x="746" y="917" type="curve" smooth="yes"/>
      <point x="746" y="894"/>
      <point x="730" y="875"/>
      <point x="678" y="860" type="curve" smooth="yes"/>
      <point x="526" y="816" type="line"/>
    </contour>
    <component base="O"/>
  </outline>
</glyph>
<glyph name="oslashacute" format="1">
  <advance width="557"/>
  <unicode hex="01FF"/>
  <outline>
    <contour>
      <point x="-40" y="-120" type="line"/>
      <point x="511" y="658" type="line"/>
      <point x="566" y="658" type="line"/>
      <point x="13" y="-120" type="line"/>
    </contour>
    <component base="o"/>
    <component base="acute" xOffset="312"/>
  </outline>
</glyph>
<glyph name="dotlessj" format="1">
  <advance width="306"/>
  <unicode hex="0237"/>
  <outline>
    <contour>
      <point x="221" y="540" type="curve" smooth="yes"/>
      <point x="263" y="540"/>
      <point x="284" y="522"/>
      <point x="284" y="492" type="curve" smooth="yes"/>
      <point x="283" y="456"/>
      <point x="252" y="361"/>
      <point x="181" y="203" type="curve" smooth="yes"/>
      <point x="54" y="-81" type="line" smooth="yes"/>
      <point x="3" y="-194"/>
      <point x="-75" y="-256"/>
      <point x="-174" y="-256" type="curve" smooth="yes"/>
      <point x="-242" y="-256"/>
      <point x="-291" y="-226"/>
      <point x="-291" y="-179" type="curve" smooth="yes"/>
      <point x="-291" y="-149"/>
      <point x="-276" y="-132"/>
      <point x="-245" y="-132" type="curve" smooth="yes"/>
      <point x="-175" y="-132"/>
      <point x="-209" y="-221"/>
      <point x="-145" y="-221" type="curve" smooth="yes"/>
      <point x="-105" y="-221"/>
      <point x="-71" y="-176"/>
      <point x="-13" y="-28" type="curve" smooth="yes" name="hr01"/>
      <point x="97" y="252" type="line" smooth="yes"/>
      <point x="162" y="419"/>
      <point x="177" y="458"/>
      <point x="177" y="479" type="curve" smooth="yes"/>
      <point x="177" y="489"/>
      <point x="173" y="492"/>
      <point x="163" y="492" type="curve" smooth="yes"/>
      <point x="139" y="492"/>
      <point x="110" y="471"/>
      <point x="80" y="433" type="curve"/>
      <point x="59" y="451" type="line"/>
      <point x="107" y="508"/>
      <point x="167" y="540"/>
    </contour>
    <contour>
      <point x="295" y="651" type="move" name="top"/>
    </contour>
  </outline>
</glyph>
<glyph name="circumflex" format="1">
  <advance width="315"/>
  <unicode hex="02C6"/>
  <outline>
    <contour>
      <point x="249" y="857" type="curve" smooth="yes"/>
      <point x="220" y="857"/>
      <point x="199" y="848"/>
      <point x="181" y="828" type="curve" smooth="yes"/>
      <point x="10" y="640" type="line"/>
      <point x="29" y="628" type="line"/>
      <point x="212" y="769" type="line"/>
      <point x="282" y="628" type="line"/>
      <point x="305" y="640" type="line"/>
      <point x="289" y="828" type="line" smooth="yes"/>
      <point x="287" y="847"/>
      <point x="278" y="857"/>
    </contour>
    <contour>
      <point x="164" y="651" type="move" name="_top"/>
    </contour>
  </outline>
</glyph>
<glyph name="breve" format="1">
  <advance width="314"/>
  <unicode hex="02D8"/>
  <outline>
    <contour>
      <point x="55" y="790" type="line"/>
      <point x="56" y="749"/>
      <point x="82" y="725"/>
      <point x="134" y="725" type="curve" smooth="yes"/>
      <point x="178" y="725"/>
      <point x="222" y="744"/>
      <point x="264" y="790" type="curve"/>
      <point x="304" y="790" type="line"/>
      <point x="221" y="666"/>
      <point x="143" y="651"/>
      <point x="100" y="651" type="curve" smooth="yes"/>
      <point x="54" y="651"/>
      <point x="10" y="673"/>
      <point x="10" y="734" type="curve" smooth="yes"/>
      <point x="10" y="750"/>
      <point x="13" y="768"/>
      <point x="20" y="790" type="curve"/>
    </contour>
    <contour>
      <point x="101" y="651" type="move" name="_top"/>
    </contour>
  </outline>
</glyph>
<glyph name="dotaccent" format="1">
  <advance width="157"/>
  <unicode hex="02D9"/>
  <outline>
    <contour>
      <point x="83" y="780" type="curve" smooth="yes"/>
      <point x="117" y="780"/>
      <point x="147" y="756"/>
      <point x="147" y="725" type="curve" smooth="yes"/>
      <point x="147" y="689"/>
      <point x="110" y="655"/>
      <point x="72" y="655" type="curve" smooth="yes"/>
      <point x="34" y="655"/>
      <point x="10" y="678"/>
      <point x="10" y="712" type="curve" smooth="yes"/>
      <point x="10" y="749"/>
      <point x="45" y="780"/>
    </contour>
    <contour>
      <point x="72" y="651" type="move" name="_top"/>
    </contour>
  </outline>
</glyph>
<glyph name="tilde" format="1">
  <advance width="363"/>
  <unicode hex="02DC"/>
  <outline>
    <contour>
      <point x="10" y="683" type="line"/>
      <point x="29" y="750"/>
      <point x="80" y="797"/>
      <point x="129" y="797" type="curve" smooth="yes"/>
      <point x="175" y="797"/>
      <point x="222" y="762"/>
      <point x="267" y="762" type="curve" smooth="yes"/>
      <point x="295" y="762"/>
      <point x="316" y="775"/>
      <point x="329" y="800" type="curve"/>
      <point x="353" y="800" type="line"/>
      <point x="330" y="731"/>
      <point x="279" y="682"/>
      <point x="230" y="682" type="curve" smooth="yes"/>
      <point x="183" y="682"/>
      <point x="141" y="721"/>
      <point x="94" y="721" type="curve" smooth="yes"/>
      <point x="65" y="721"/>
      <point x="42" y="707"/>
      <point x="31" y="683" type="curve"/>
    </contour>
    <contour>
      <point x="182" y="651" type="move" name="_top"/>
    </contour>
  </outline>
</glyph>
<glyph name="hungarumlaut" format="1">
  <advance width="380"/>
  <unicode hex="02DD"/>
  <outline>
    <contour>
      <point x="10" y="642" type="line"/>
      <point x="98" y="813" type="line" smooth="yes"/>
      <point x="113" y="843"/>
      <point x="131" y="857"/>
      <point x="154" y="857" type="curve" smooth="yes"/>
      <point x="181" y="857"/>
      <point x="205" y="836"/>
      <point x="205" y="809" type="curve" smooth="yes"/>
      <point x="205" y="791"/>
      <point x="193" y="774"/>
      <point x="166" y="750" type="curve" smooth="yes"/>
      <point x="28" y="631" type="line"/>
    </contour>
    <contour>
      <point x="170" y="642" type="line"/>
      <point x="263" y="813" type="line" smooth="yes"/>
      <point x="279" y="842"/>
      <point x="296" y="857"/>
      <point x="319" y="857" type="curve" smooth="yes"/>
      <point x="346" y="857"/>
      <point x="370" y="836"/>
      <point x="370" y="809" type="curve" smooth="yes"/>
      <point x="370" y="791"/>
      <point x="359" y="773"/>
      <point x="331" y="750" type="curve" smooth="yes"/>
      <point x="188" y="631" type="line"/>
    </contour>
    <contour>
      <point x="175" y="651" type="move" name="_top"/>
    </contour>
  </outline>
</glyph>
<glyph name="uni03BC" format="1">
  <advance width="618"/>
  <unicode hex="03BC"/>
  <outline>
    <contour>
      <point x="-1" y="-100" type="curve" smooth="yes"/>
      <point x="-4" y="-192"/>
      <point x="-29" y="-242"/>
      <point x="-74" y="-242" type="curve" smooth="yes"/>
      <point x="-103" y="-242"/>
      <point x="-120" y="-220"/>
      <point x="-120" y="-184" type="curve" smooth="yes"/>
      <point x="-120" y="-140"/>
      <point x="-90" y="-64"/>
      <point x="-13" y="82" type="curve" smooth="yes"/>
      <point x="60" y="220"/>
      <point x="86" y="270"/>
      <point x="99" y="300" type="curve" smooth="yes"/>
      <point x="199" y="530" type="line"/>
      <point x="312" y="530" type="line"/>
      <point x="124" y="103" type="line" smooth="yes" name="hr01"/>
      <point x="116" y="84"/>
      <point x="111" y="66"/>
      <point x="111" y="55" type="curve" smooth="yes"/>
      <point x="111" y="36"/>
      <point x="123" y="25"/>
      <point x="142" y="25" type="curve" smooth="yes"/>
      <point x="205" y="25"/>
      <point x="309" y="153"/>
      <point x="395" y="336" type="curve" smooth="yes"/>
      <point x="486" y="530" type="line"/>
      <point x="585" y="530" type="line"/>
      <point x="391" y="84" type="line" smooth="yes"/>
      <point x="384" y="68"/>
      <point x="380" y="54"/>
      <point x="380" y="47" type="curve" smooth="yes"/>
      <point x="380" y="39"/>
      <point x="385" y="35"/>
      <point x="394" y="35" type="curve" smooth="yes"/>
      <point x="417" y="35"/>
      <point x="459" y="68"/>
      <point x="500" y="120" type="curve"/>
      <point x="520" y="104" type="line"/>
      <point x="466" y="35"/>
      <point x="400" y="-10"/>
      <point x="354" y="-10" type="curve" smooth="yes"/>
      <point x="320" y="-10"/>
      <point x="297" y="14"/>
      <point x="297" y="49" type="curve" smooth="yes"/>
      <point x="297" y="73"/>
      <point x="308" y="108"/>
      <point x="328" y="148" type="curve"/>
      <point x="323" y="150" type="line"/>
      <point x="244" y="42"/>
      <point x="178" y="-10"/>
      <point x="116" y="-10" type="curve" smooth="yes"/>
      <point x="70" y="-10"/>
      <point x="46" y="19"/>
      <point x="46" y="74" type="curve" smooth="yes"/>
      <point x="46" y="85"/>
      <point x="47" y="97"/>
      <point x="49" y="111" type="curve"/>
      <point x="45" y="111" type="line"/>
      <point x="14" y="39"/>
      <point x="1" y="-15"/>
    </contour>
    <contour>
      <point x="446" y="651" type="move" name="top"/>
    </contour>
  </outline>
</glyph>
<glyph name="endash" format="1">
  <advance width="761"/>
  <unicode hex="2013"/>
  <outline>
    <contour>
      <point x="647" y="221" type="line"/>
      <point x="672" y="282" type="line"/>
      <point x="73" y="282" type="line"/>
      <point x="49" y="221" type="line"/>
    </contour>
  </outline>
</glyph>
<glyph name="quoteright" format="1">
  <advance width="256"/>
  <unicode hex="2019"/>
  <outline>
    <contour>
      <point x="286" y="707" type="curve" smooth="yes"/>
      <point x="252" y="713"/>
      <point x="235" y="732"/>
      <point x="235" y="764" type="curve" smooth="yes"/>
      <point x="235" y="805"/>
      <point x="262" y="830"/>
      <point x="303" y="830" type="curve" smooth="yes"/>
      <point x="349" y="830"/>
      <point x="375" y="800"/>
      <point x="375" y="747" type="curve" smooth="yes"/>
      <point x="375" y="675"/>
      <point x="328" y="603"/>
      <point x="236" y="540" type="curve"/>
      <point x="215" y="566" type="line"/>
      <point x="267" y="604"/>
      <point x="318" y="658"/>
      <point x="318" y="688" type="curve" smooth="yes"/>
      <point x="318" y="700"/>
      <point x="315" y="702"/>
    </contour>
  </outline>
</glyph>
<glyph name="quotesinglbase" format="1">
  <advance width="275"/>
  <unicode hex="201A"/>
  <outline>
    <contour>
      <point x="24" y="4" type="curve" smooth="yes"/>
      <point x="-10" y="10"/>
      <point x="-27" y="29"/>
      <point x="-27" y="61" type="curve" smooth="yes"/>
      <point x="-27" y="102"/>
      <point x="0" y="127"/>
      <point x="41" y="127" type="curve" smooth="yes"/>
      <point x="87" y="127"/>
      <point x="113" y="97"/>
      <point x="113" y="44" type="curve" smooth="yes"/>
      <point x="113" y="-28"/>
      <point x="66" y="-100"/>
      <point x="-26" y="-163" type="curve"/>
      <point x="-47" y="-137" type="line"/>
      <point x="5" y="-99"/>
      <point x="56" y="-45"/>
      <point x="56" y="-15" type="curve" smooth="yes"/>
      <point x="56" y="-3"/>
      <point x="53" y="-1"/>
    </contour>
  </outline>
</glyph>
<glyph name="quotedblleft" format="1">
  <advance width="455"/>
  <unicode hex="201C"/>
  <outline>
    <contour>
      <point x="290" y="663" type="curve" smooth="yes"/>
      <point x="324" y="657"/>
      <point x="341" y="638"/>
      <point x="341" y="606" type="curve" smooth="yes"/>
      <point x="341" y="565"/>
      <point x="314" y="540"/>
      <point x="273" y="540" type="curve" smooth="yes"/>
      <point x="227" y="540"/>
      <point x="201" y="570"/>
      <point x="201" y="623" type="curve" smooth="yes"/>
      <point x="201" y="695"/>
      <point x="248" y="767"/>
      <point x="340" y="830" type="curve"/>
      <point x="361" y="804" type="line"/>
      <point x="309" y="766"/>
      <point x="258" y="712"/>
      <point x="258" y="682" type="curve" smooth="yes"/>
      <point x="258" y="670"/>
      <point x="261" y="668"/>
    </contour>
    <contour>
      <point x="482" y="663" type="curve" smooth="yes"/>
      <point x="516" y="657"/>
      <point x="533" y="638"/>
      <point x="533" y="606" type="curve" smooth="yes"/>
      <point x="533" y="565"/>
      <point x="506" y="540"/>
      <point x="465" y="540" type="curve" smooth="yes"/>
      <point x="419" y="540"/>
      <point x="393" y="570"/>
      <point x="393" y="623" type="curve" smooth="yes"/>
      <point x="393" y="695"/>
      <point x="440" y="767"/>
      <point x="532" y="830" type="curve"/>
      <point x="553" y="804" type="line"/>
      <point x="501" y="766"/>
      <point x="450" y="712"/>
      <point x="450" y="682" type="curve" smooth="yes"/>
      <point x="450" y="670"/>
      <point x="453" y="668"/>
    </contour>
  </outline>
</glyph>
<glyph name="quotedblright" format="1">
  <advance width="448"/>
  <unicode hex="201D"/>
  <outline>
    <contour>
      <point x="478" y="707" type="curve" smooth="yes"/>
      <point x="444" y="713"/>
      <point x="427" y="732"/>
      <point x="427" y="764" type="curve" smooth="yes"/>
      <point x="427" y="805"/>
      <point x="454" y="830"/>
      <point x="495" y="830" type="curve" smooth="yes"/>
      <point x="541" y="830"/>
      <point x="567" y="800"/>
      <point x="567" y="747" type="curve" smooth="yes"/>
      <point x="567" y="675"/>
      <point x="520" y="603"/>
      <point x="428" y="540" type="curve"/>
      <point x="407" y="566" type="line"/>
      <point x="459" y="604"/>
      <point x="510" y="658"/>
      <point x="510" y="688" type="curve" smooth="yes"/>
      <point x="510" y="700"/>
      <point x="507" y="702"/>
    </contour>
    <contour>
      <point x="286" y="707" type="curve" smooth="yes"/>
      <point x="252" y="713"/>
      <point x="235" y="732"/>
      <point x="235" y="764" type="curve" smooth="yes"/>
      <point x="235" y="805"/>
      <point x="262" y="830"/>
      <point x="303" y="830" type="curve" smooth="yes"/>
      <point x="349" y="830"/>
      <point x="375" y="800"/>
      <point x="375" y="747" type="curve" smooth="yes"/>
      <point x="375" y="675"/>
      <point x="328" y="603"/>
      <point x="236" y="540" type="curve"/>
      <point x="215" y="566" type="line"/>
      <point x="267" y="604"/>
      <point x="318" y="658"/>
      <point x="318" y="688" type="curve" smooth="yes"/>
      <point x="318" y="700"/>
      <point x="315" y="702"/>
    </contour>
  </outline>
</glyph>
<glyph name="dagger" format="1">
  <advance width="515"/>
  <unicode hex="2020"/>
  <outline>
    <contour>
      <point x="132" y="-136" type="line"/>
      <point x="196" y="95"/>
      <point x="221" y="208"/>
      <point x="230" y="311" type="curve"/>
      <point x="269" y="375"/>
      <point x="308" y="454"/>
      <point x="358" y="574" type="curve"/>
      <point x="270" y="574"/>
      <point x="239" y="548"/>
      <point x="208" y="548" type="curve" smooth="yes"/>
      <point x="183" y="548"/>
      <point x="164" y="566"/>
      <point x="164" y="590" type="curve" smooth="yes"/>
      <point x="164" y="619"/>
      <point x="191" y="639"/>
      <point x="228" y="639" type="curve" smooth="yes"/>
      <point x="241" y="639"/>
      <point x="259" y="634"/>
      <point x="298" y="619" type="curve" smooth="yes"/>
      <point x="320" y="610"/>
      <point x="337" y="605"/>
      <point x="367" y="600" type="curve"/>
      <point x="371" y="612" type="line" smooth="yes"/>
      <point x="379" y="637"/>
      <point x="383" y="659"/>
      <point x="387" y="705" type="curve" smooth="yes"/>
      <point x="393" y="776"/>
      <point x="393" y="777"/>
      <point x="398" y="791" type="curve" smooth="yes"/>
      <point x="406" y="816"/>
      <point x="423" y="830"/>
      <point x="447" y="830" type="curve" smooth="yes"/>
      <point x="473" y="830"/>
      <point x="492" y="812"/>
      <point x="492" y="786" type="curve" smooth="yes"/>
      <point x="492" y="768"/>
      <point x="484" y="753"/>
      <point x="448" y="704" type="curve" smooth="yes"/>
      <point x="427" y="674"/>
      <point x="412" y="646"/>
      <point x="401" y="612" type="curve" smooth="yes"/>
      <point x="397" y="600" type="line"/>
      <point x="412" y="602"/>
      <point x="448" y="610"/>
      <point x="474" y="619" type="curve" smooth="yes"/>
      <point x="525" y="636"/>
      <point x="537" y="639"/>
      <point x="549" y="639" type="curve" smooth="yes"/>
      <point x="575" y="639"/>
      <point x="595" y="621"/>
      <point x="595" y="599" type="curve" smooth="yes"/>
      <point x="595" y="571"/>
      <point x="568" y="548"/>
      <point x="535" y="548" type="curve" smooth="yes"/>
      <point x="497" y="548"/>
      <point x="473" y="574"/>
      <point x="388" y="574" type="curve"/>
      <point x="360" y="466"/>
      <point x="347" y="384"/>
      <point x="346" y="311" type="curve"/>
      <point x="285" y="206"/>
      <point x="235" y="90"/>
      <point x="154" y="-136" type="curve"/>
    </contour>
  </outline>
</glyph>
<glyph name="daggerdbl" format="1">
  <advance width="569"/>
  <unicode hex="2021"/>
  <outline>
    <contour>
      <point x="252" y="351" type="curve"/>
      <point x="285" y="407"/>
      <point x="325" y="474"/>
      <point x="367" y="574" type="curve"/>
      <point x="279" y="574"/>
      <point x="248" y="548"/>
      <point x="217" y="548" type="curve" smooth="yes"/>
      <point x="192" y="548"/>
      <point x="173" y="566"/>
      <point x="173" y="590" type="curve" smooth="yes"/>
      <point x="173" y="619"/>
      <point x="200" y="639"/>
      <point x="237" y="639" type="curve" smooth="yes"/>
      <point x="250" y="639"/>
      <point x="268" y="634"/>
      <point x="307" y="619" type="curve" smooth="yes"/>
      <point x="329" y="610"/>
      <point x="346" y="605"/>
      <point x="376" y="600" type="curve"/>
      <point x="380" y="612" type="line" smooth="yes"/>
      <point x="388" y="637"/>
      <point x="392" y="659"/>
      <point x="396" y="705" type="curve" smooth="yes"/>
      <point x="402" y="776"/>
      <point x="402" y="777"/>
      <point x="407" y="791" type="curve" smooth="yes"/>
      <point x="415" y="816"/>
      <point x="432" y="830"/>
      <point x="456" y="830" type="curve" smooth="yes"/>
      <point x="482" y="830"/>
      <point x="501" y="812"/>
      <point x="501" y="786" type="curve" smooth="yes"/>
      <point x="501" y="767"/>
      <point x="493" y="753"/>
      <point x="457" y="704" type="curve" smooth="yes"/>
      <point x="435" y="674"/>
      <point x="421" y="646"/>
      <point x="410" y="612" type="curve" smooth="yes"/>
      <point x="406" y="600" type="line"/>
      <point x="421" y="602"/>
      <point x="457" y="610"/>
      <point x="483" y="619" type="curve" smooth="yes"/>
      <point x="534" y="636"/>
      <point x="546" y="639"/>
      <point x="558" y="639" type="curve" smooth="yes"/>
      <point x="584" y="639"/>
      <point x="604" y="621"/>
      <point x="604" y="599" type="curve" smooth="yes"/>
      <point x="604" y="571"/>
      <point x="577" y="548"/>
      <point x="544" y="548" type="curve" smooth="yes"/>
      <point x="506" y="548"/>
      <point x="482" y="574"/>
      <point x="397" y="574" type="curve"/>
      <point x="376" y="482"/>
      <point x="369" y="412"/>
      <point x="368" y="351" type="curve"/>
      <point x="332" y="292"/>
      <point x="296" y="222"/>
      <point x="250" y="118" type="curve"/>
      <point x="338" y="118"/>
      <point x="369" y="144"/>
      <point x="400" y="144" type="curve" smooth="yes"/>
      <point x="425" y="144"/>
      <point x="444" y="126"/>
      <point x="444" y="102" type="curve" smooth="yes"/>
      <point x="444" y="73"/>
      <point x="417" y="53"/>
      <point x="380" y="53" type="curve" smooth="yes"/>
      <point x="359" y="53"/>
      <point x="327" y="75"/>
      <point x="241" y="92" type="curve"/>
      <point x="237" y="80" type="line" smooth="yes"/>
      <point x="228" y="54"/>
      <point x="225" y="33"/>
      <point x="221" y="-13" type="curve" smooth="yes"/>
      <point x="212" y="-114"/>
      <point x="200" y="-138"/>
      <point x="161" y="-138" type="curve" smooth="yes"/>
      <point x="135" y="-138"/>
      <point x="116" y="-120"/>
      <point x="116" y="-94" type="curve" smooth="yes"/>
      <point x="116" y="-76"/>
      <point x="124" y="-61"/>
      <point x="160" y="-12" type="curve" smooth="yes"/>
      <point x="182" y="18"/>
      <point x="196" y="46"/>
      <point x="207" y="80" type="curve" smooth="yes"/>
      <point x="211" y="92" type="line"/>
      <point x="196" y="90"/>
      <point x="159" y="82"/>
      <point x="134" y="73" type="curve" smooth="yes"/>
      <point x="83" y="55"/>
      <point x="71" y="53"/>
      <point x="59" y="53" type="curve" smooth="yes"/>
      <point x="33" y="53"/>
      <point x="13" y="70"/>
      <point x="13" y="93" type="curve" smooth="yes"/>
      <point x="13" y="122"/>
      <point x="39" y="144"/>
      <point x="73" y="144" type="curve" smooth="yes"/>
      <point x="111" y="144"/>
      <point x="135" y="118"/>
      <point x="220" y="118" type="curve"/>
      <point x="241" y="214"/>
      <point x="251" y="287"/>
    </contour>
  </outline>
</glyph>
<glyph name="guilsinglleft" format="1">
  <advance width="302"/>
  <unicode hex="2039"/>
  <outline>
    <contour>
      <point x="105" y="53" type="line"/>
      <point x="31" y="239" type="line"/>
      <point x="36" y="251" type="line"/>
      <point x="258" y="436" type="line"/>
      <point x="274" y="421" type="line"/>
      <point x="125" y="234" type="line"/>
      <point x="125" y="64" type="line"/>
    </contour>
  </outline>
</glyph>
<glyph name="fivesuperior" format="1">
  <advance width="365"/>
  <unicode hex="2075"/>
  <outline>
    <contour>
      <point x="294" y="911" type="line"/>
      <point x="448" y="911" type="line"/>
      <point x="465" y="937" type="line"/>
      <point x="490" y="933" type="line"/>
      <point x="454" y="823" type="line"/>
      <point x="306" y="823" type="line"/>
      <point x="274" y="732" type="line"/>
      <point x="287" y="735"/>
      <point x="307" y="737"/>
      <point x="325" y="737" type="curve" smooth="yes"/>
      <point x="412" y="737"/>
      <point x="460" y="681"/>
      <point x="460" y="596" type="curve" smooth="yes"/>
      <point x="460" y="494"/>
      <point x="357" y="409"/>
      <point x="233" y="409" type="curve" smooth="yes"/>
      <point x="170" y="409"/>
      <point x="129" y="432"/>
      <point x="129" y="468" type="curve" smooth="yes"/>
      <point x="129" y="491"/>
      <point x="144" y="507"/>
      <point x="168" y="507" type="curve" smooth="yes"/>
      <point x="212" y="507"/>
      <point x="194" y="445"/>
      <point x="256" y="445" type="curve" smooth="yes"/>
      <point x="319" y="445"/>
      <point x="374" y="504"/>
      <point x="374" y="568" type="curve" smooth="yes"/>
      <point x="374" y="625"/>
      <point x="345" y="655"/>
      <point x="297" y="655" type="curve" smooth="yes"/>
      <point x="265" y="655"/>
      <point x="240" y="652"/>
      <point x="221" y="646" type="curve"/>
      <point x="207" y="666" type="line"/>
    </contour>
  </outline>
</glyph>
<glyph name="sixsuperior" format="1">
  <advance width="404"/>
  <unicode hex="2076"/>
  <outline>
    <contour>
      <point x="526" y="893" type="line"/>
      <point x="448" y="864"/>
      <point x="372" y="801"/>
      <point x="323" y="726" type="curve"/>
      <point x="326" y="724" type="line"/>
      <point x="348" y="737"/>
      <point x="374" y="744"/>
      <point x="404" y="744" type="curve" smooth="yes"/>
      <point x="471" y="744"/>
      <point x="508" y="708"/>
      <point x="508" y="643" type="curve" smooth="yes"/>
      <point x="508" y="528"/>
      <point x="392" y="409"/>
      <point x="278" y="409" type="curve" smooth="yes"/>
      <point x="207" y="409"/>
      <point x="169" y="455"/>
      <point x="169" y="541" type="curve" smooth="yes"/>
      <point x="169" y="711"/>
      <point x="306" y="864"/>
      <point x="514" y="924" type="curve"/>
    </contour>
    <contour>
      <point x="291" y="445" type="curve" smooth="yes"/>
      <point x="348" y="445"/>
      <point x="411" y="545"/>
      <point x="411" y="635" type="curve" smooth="yes"/>
      <point x="411" y="678"/>
      <point x="395" y="700"/>
      <point x="363" y="700" type="curve" smooth="yes"/>
      <point x="301" y="700"/>
      <point x="250" y="617"/>
      <point x="250" y="516" type="curve" smooth="yes"/>
      <point x="250" y="467"/>
      <point x="263" y="445"/>
    </contour>
  </outline>
</glyph>
<glyph name="sevensuperior" format="1">
  <advance width="349"/>
  <unicode hex="2077"/>
  <outline>
    <contour>
      <point x="303" y="944" type="line"/>
      <point x="328" y="944" type="line"/>
      <point x="328" y="911" type="line"/>
      <point x="543" y="911" type="line"/>
      <point x="550" y="895" type="line"/>
      <point x="426" y="710"/>
      <point x="366" y="584"/>
      <point x="318" y="456" type="curve" smooth="yes"/>
      <point x="304" y="418"/>
      <point x="287" y="409"/>
      <point x="261" y="409" type="curve" smooth="yes"/>
      <point x="233" y="409"/>
      <point x="218" y="425"/>
      <point x="218" y="453" type="curve" smooth="yes"/>
      <point x="218" y="493"/>
      <point x="250" y="549"/>
      <point x="454" y="825" type="curve"/>
      <point x="292" y="825" type="line"/>
      <point x="250" y="782" type="line"/>
      <point x="219" y="782" type="line"/>
    </contour>
  </outline>
</glyph>
<glyph name="oneinferior" format="1">
  <advance width="355"/>
  <unicode hex="2081"/>
  <outline>
    <contour>
      <point x="-101" y="-131" type="line"/>
      <point x="-23" y="-115" type="line"/>
      <point x="121" y="258" type="line"/>
      <point x="118" y="261" type="line"/>
      <point x="29" y="248" type="line"/>
      <point x="22" y="272" type="line"/>
      <point x="82" y="288"/>
      <point x="168" y="328"/>
      <point x="204" y="357" type="curve"/>
      <point x="251" y="357" type="line"/>
      <point x="69" y="-118" type="line"/>
      <point x="152" y="-131" type="line"/>
      <point x="142" y="-154" type="line"/>
      <point x="-110" y="-154" type="line"/>
    </contour>
  </outline>
</glyph>
<glyph name="twoinferior" format="1">
  <advance width="406"/>
  <unicode hex="2082"/>
  <outline>
    <contour>
      <point x="183" y="-68" type="line"/>
      <point x="201" y="-49"/>
      <point x="212" y="-33"/>
      <point x="222" y="-13" type="curve"/>
      <point x="245" y="-21" type="line"/>
      <point x="191" y="-154" type="line"/>
      <point x="-97" y="-154" type="line"/>
      <point x="-42" y="55"/>
      <point x="201" y="145"/>
      <point x="201" y="263" type="curve" smooth="yes"/>
      <point x="201" y="293"/>
      <point x="185" y="312"/>
      <point x="151" y="312" type="curve" smooth="yes"/>
      <point x="105" y="312"/>
      <point x="50" y="276"/>
      <point x="12" y="219" type="curve"/>
      <point x="-15" y="242" type="line"/>
      <point x="35" y="310"/>
      <point x="104" y="356"/>
      <point x="189" y="356" type="curve" smooth="yes"/>
      <point x="259" y="356"/>
      <point x="300" y="324"/>
      <point x="300" y="267" type="curve" smooth="yes"/>
      <point x="300" y="133"/>
      <point x="73" y="76"/>
      <point x="-15" y="-68" type="curve"/>
    </contour>
  </outline>
</glyph>
<glyph name="threeinferior" format="1">
  <advance width="395"/>
  <unicode hex="2083"/>
  <outline>
    <contour>
      <point x="13" y="111" type="line"/>
      <point x="117" y="144"/>
      <point x="189" y="205"/>
      <point x="189" y="269" type="curve" smooth="yes"/>
      <point x="189" y="295"/>
      <point x="175" y="313"/>
      <point x="146" y="313" type="curve" smooth="yes"/>
      <point x="106" y="313"/>
      <point x="60" y="280"/>
      <point x="19" y="221" type="curve"/>
      <point x="-4" y="240" type="line"/>
      <point x="46" y="317"/>
      <point x="110" y="356"/>
      <point x="174" y="356" type="curve" smooth="yes"/>
      <point x="240" y="356"/>
      <point x="280" y="327"/>
      <point x="280" y="278" type="curve" smooth="yes"/>
      <point x="280" y="228"/>
      <point x="233" y="170"/>
      <point x="146" y="133" type="curve"/>
      <point x="197" y="124"/>
      <point x="235" y="86"/>
      <point x="235" y="33" type="curve" smooth="yes"/>
      <point x="235" y="-70"/>
      <point x="125" y="-161"/>
      <point x="0" y="-161" type="curve" smooth="yes"/>
      <point x="-65" y="-161"/>
      <point x="-110" y="-131"/>
      <point x="-110" y="-92" type="curve" smooth="yes"/>
      <point x="-110" y="-68"/>
      <point x="-95" y="-55"/>
      <point x="-78" y="-55" type="curve" smooth="yes"/>
      <point x="-37" y="-55"/>
      <point x="-47" y="-124"/>
      <point x="22" y="-124" type="curve" smooth="yes"/>
      <point x="87" y="-124"/>
      <point x="136" y="-66"/>
      <point x="136" y="12" type="curve" smooth="yes"/>
      <point x="136" y="62"/>
      <point x="116" y="89"/>
      <point x="81" y="89" type="curve" smooth="yes"/>
      <point x="64" y="89"/>
      <point x="40" y="84"/>
      <point x="25" y="76" type="curve"/>
    </contour>
  </outline>
</glyph>
<glyph name="sixinferior" format="1">
  <advance width="404"/>
  <unicode hex="2086"/>
  <outline>
    <contour>
      <point x="284" y="323" type="line"/>
      <point x="206" y="294"/>
      <point x="130" y="231"/>
      <point x="81" y="156" type="curve"/>
      <point x="84" y="154" type="line"/>
      <point x="106" y="167"/>
      <point x="132" y="174"/>
      <point x="162" y="174" type="curve" smooth="yes"/>
      <point x="229" y="174"/>
      <point x="266" y="138"/>
      <point x="266" y="73" type="curve" smooth="yes"/>
      <point x="266" y="-42"/>
      <point x="150" y="-161"/>
      <point x="36" y="-161" type="curve" smooth="yes"/>
      <point x="-35" y="-161"/>
      <point x="-73" y="-115"/>
      <point x="-73" y="-29" type="curve" smooth="yes"/>
      <point x="-73" y="141"/>
      <point x="64" y="294"/>
      <point x="272" y="354" type="curve"/>
    </contour>
    <contour>
      <point x="49" y="-125" type="curve" smooth="yes"/>
      <point x="106" y="-125"/>
      <point x="169" y="-25"/>
      <point x="169" y="65" type="curve" smooth="yes"/>
      <point x="169" y="108"/>
      <point x="153" y="130"/>
      <point x="121" y="130" type="curve" smooth="yes"/>
      <point x="59" y="130"/>
      <point x="8" y="47"/>
      <point x="8" y="-54" type="curve" smooth="yes"/>
      <point x="8" y="-103"/>
      <point x="21" y="-125"/>
    </contour>
  </outline>
</glyph>
<glyph name="nineinferior" format="1">
  <advance width="406"/>
  <unicode hex="2089"/>
  <outline>
    <contour>
      <point x="-50" y="-130" type="line"/>
      <point x="28" y="-101"/>
      <point x="104" y="-38"/>
      <point x="153" y="37" type="curve"/>
      <point x="150" y="39" type="line"/>
      <point x="128" y="26"/>
      <point x="102" y="19"/>
      <point x="72" y="19" type="curve" smooth="yes"/>
      <point x="5" y="19"/>
      <point x="-32" y="55"/>
      <point x="-32" y="120" type="curve" smooth="yes"/>
      <point x="-32" y="235"/>
      <point x="70" y="354"/>
      <point x="184" y="354" type="curve" smooth="yes"/>
      <point x="255" y="354"/>
      <point x="307" y="308"/>
      <point x="307" y="222" type="curve" smooth="yes"/>
      <point x="307" y="52"/>
      <point x="170" y="-101"/>
      <point x="-38" y="-161" type="curve"/>
    </contour>
    <contour>
      <point x="185" y="318" type="curve" smooth="yes"/>
      <point x="128" y="318"/>
      <point x="65" y="218"/>
      <point x="65" y="128" type="curve" smooth="yes"/>
      <point x="65" y="85"/>
      <point x="81" y="63"/>
      <point x="113" y="63" type="curve" smooth="yes"/>
      <point x="175" y="63"/>
      <point x="226" y="146"/>
      <point x="226" y="247" type="curve" smooth="yes"/>
      <point x="226" y="296"/>
      <point x="213" y="318"/>
    </contour>
  </outline>
</glyph>
<glyph name="servicemark" format="1">
  <advance width="808"/>
  <unicode hex="2120"/>
  <outline>
    <contour>
      <point x="483" y="489" type="line"/>
      <point x="447" y="481" type="line"/>
      <point x="447" y="462" type="line"/>
      <point x="544" y="462" type="line"/>
      <point x="544" y="481" type="line"/>
      <point x="509" y="489" type="line"/>
      <point x="509" y="716" type="line"/>
      <point x="513" y="716" type="line"/>
      <point x="602" y="458" type="line"/>
      <point x="643" y="458" type="line"/>
      <point x="738" y="699" type="line"/>
      <point x="738" y="489" type="line"/>
      <point x="702" y="481" type="line"/>
      <point x="702" y="462" type="line"/>
      <point x="836" y="462" type="line"/>
      <point x="836" y="481" type="line"/>
      <point x="800" y="489" type="line"/>
      <point x="800" y="743" type="line"/>
      <point x="836" y="751" type="line"/>
      <point x="836" y="770" type="line"/>
      <point x="732" y="770" type="line"/>
      <point x="643" y="533" type="line"/>
      <point x="639" y="533" type="line"/>
      <point x="561" y="770" type="line"/>
      <point x="447" y="770" type="line"/>
      <point x="447" y="751" type="line"/>
      <point x="483" y="743" type="line"/>
    </contour>
    <contour>
      <point x="314" y="780" type="curve" smooth="yes"/>
      <point x="258" y="780"/>
      <point x="215" y="744"/>
      <point x="215" y="696" type="curve" smooth="yes"/>
      <point x="215" y="589"/>
      <point x="362" y="602"/>
      <point x="362" y="531" type="curve" smooth="yes"/>
      <point x="362" y="507"/>
      <point x="344" y="492"/>
      <point x="313" y="492" type="curve" smooth="yes"/>
      <point x="269" y="492"/>
      <point x="245" y="516"/>
      <point x="229" y="573" type="curve"/>
      <point x="214" y="571" type="line"/>
      <point x="221" y="468" type="line"/>
      <point x="234" y="468" type="line"/>
      <point x="250" y="485" type="line"/>
      <point x="273" y="471"/>
      <point x="292" y="465"/>
      <point x="314" y="465" type="curve" smooth="yes"/>
      <point x="374" y="465"/>
      <point x="419" y="504"/>
      <point x="419" y="555" type="curve" smooth="yes"/>
      <point x="419" y="660"/>
      <point x="277" y="645"/>
      <point x="277" y="717" type="curve" smooth="yes"/>
      <point x="277" y="740"/>
      <point x="292" y="753"/>
      <point x="316" y="753" type="curve" smooth="yes"/>
      <point x="353" y="753"/>
      <point x="376" y="732"/>
      <point x="389" y="688" type="curve"/>
      <point x="404" y="688" type="line"/>
      <point x="401" y="776" type="line"/>
      <point x="388" y="776" type="line"/>
      <point x="375" y="755" type="line"/>
      <point x="357" y="772"/>
      <point x="338" y="780"/>
    </contour>
  </outline>
</glyph>
<glyph name="trademark" format="1">
  <advance width="914"/>
  <unicode hex="2122"/>
  <outline>
    <contour>
      <point x="582" y="489" type="line"/>
      <point x="546" y="481" type="line"/>
      <point x="546" y="462" type="line"/>
      <point x="643" y="462" type="line"/>
      <point x="643" y="481" type="line"/>
      <point x="608" y="489" type="line"/>
      <point x="608" y="716" type="line"/>
      <point x="612" y="716" type="line"/>
      <point x="701" y="458" type="line"/>
      <point x="742" y="458" type="line"/>
      <point x="837" y="699" type="line"/>
      <point x="837" y="489" type="line"/>
      <point x="801" y="481" type="line"/>
      <point x="801" y="462" type="line"/>
      <point x="935" y="462" type="line"/>
      <point x="935" y="481" type="line"/>
      <point x="899" y="489" type="line"/>
      <point x="899" y="743" type="line"/>
      <point x="935" y="751" type="line"/>
      <point x="935" y="770" type="line"/>
      <point x="831" y="770" type="line"/>
      <point x="742" y="533" type="line"/>
      <point x="738" y="533" type="line"/>
      <point x="660" y="770" type="line"/>
      <point x="546" y="770" type="line"/>
      <point x="546" y="751" type="line"/>
      <point x="582" y="743" type="line"/>
    </contour>
    <contour>
      <point x="351" y="489" type="line"/>
      <point x="307" y="481" type="line"/>
      <point x="307" y="462" type="line"/>
      <point x="467" y="462" type="line"/>
      <point x="467" y="481" type="line"/>
      <point x="423" y="489" type="line"/>
      <point x="423" y="744" type="line"/>
      <point x="472" y="744" type="line"/>
      <point x="490" y="721"/>
      <point x="501" y="695"/>
      <point x="509" y="672" type="curve"/>
      <point x="534" y="672" type="line"/>
      <point x="519" y="770" type="line"/>
      <point x="254" y="770" type="line"/>
      <point x="239" y="672" type="line"/>
      <point x="264" y="672" type="line"/>
      <point x="272" y="695"/>
      <point x="284" y="721"/>
      <point x="301" y="744" type="curve"/>
      <point x="351" y="744" type="line"/>
    </contour>
  </outline>
</glyph>
<glyph name="minus" format="1">
  <advance width="609"/>
  <unicode hex="2212"/>
  <outline>
    <contour>
      <point x="524" y="315" type="line"/>
      <point x="524" y="364" type="line"/>
      <point x="114" y="364" type="line"/>
      <point x="114" y="315" type="line"/>
    </contour>
  </outline>
</glyph>
<glyph name="uni2215" format="1">
  <advance width="400"/>
  <unicode hex="2215"/>
  <outline>
    <contour>
      <point x="-46" y="0" type="line"/>
      <point x="611" y="819" type="line"/>
      <point x="536" y="819" type="line"/>
      <point x="-119" y="0" type="line"/>
    </contour>
  </outline>
</glyph>
<glyph name="f_i" format="1">
  <advance width="673"/>
  <unicode hex="FB01"/>
  <outline>
    <contour>
      <point x="305" y="530" type="line"/>
      <point x="329" y="590" type="line" smooth="yes"/>
      <point x="387" y="736"/>
      <point x="449" y="803"/>
      <point x="524" y="803" type="curve" smooth="yes"/>
      <point x="559" y="803"/>
      <point x="583" y="789"/>
      <point x="583" y="768" type="curve" smooth="yes"/>
      <point x="583" y="752"/>
      <point x="571" y="743"/>
      <point x="571" y="720" type="curve" smooth="yes"/>
      <point x="571" y="687"/>
      <point x="596" y="663"/>
      <point x="629" y="663" type="curve" smooth="yes" name="hr01"/>
      <point x="662" y="663"/>
      <point x="686" y="688"/>
      <point x="686" y="724" type="curve" smooth="yes"/>
      <point x="686" y="784"/>
      <point x="616" y="830"/>
      <point x="524" y="830" type="curve" smooth="yes"/>
      <point x="399" y="830"/>
      <point x="291" y="747"/>
      <point x="227" y="600" type="curve" smooth="yes"/>
      <point x="196" y="530" type="line"/>
      <point x="107" y="530" type="line"/>
      <point x="95" y="498" type="line"/>
      <point x="183" y="498" type="line"/>
      <point x="39" y="143" type="line" smooth="yes"/>
      <point x="-58" y="-96"/>
      <point x="-141" y="-221"/>
      <point x="-203" y="-221" type="curve" smooth="yes"/>
      <point x="-256" y="-221"/>
      <point x="-226" y="-132"/>
      <point x="-296" y="-132" type="curve" smooth="yes" name="hr02"/>
      <point x="-326" y="-132"/>
      <point x="-342" y="-148"/>
      <point x="-342" y="-176" type="curve" smooth="yes"/>
      <point x="-342" y="-223"/>
      <point x="-297" y="-256"/>
      <point x="-231" y="-256" type="curve" smooth="yes"/>
      <point x="-93" y="-256"/>
      <point x="29" y="-115"/>
      <point x="166" y="203" type="curve" smooth="yes"/>
      <point x="293" y="498" type="line"/>
      <point x="508" y="498" type="line" smooth="yes"/>
      <point x="516" y="498"/>
      <point x="521" y="493"/>
      <point x="521" y="485" type="curve" smooth="yes"/>
      <point x="521" y="481"/>
      <point x="519" y="474"/>
      <point x="516" y="467" type="curve" smooth="yes"/>
      <point x="371" y="111" type="line" smooth="yes"/>
      <point x="362" y="88"/>
      <point x="356" y="65"/>
      <point x="356" y="47" type="curve" smooth="yes"/>
      <point x="356" y="11"/>
      <point x="379" y="-10"/>
      <point x="418" y="-10" type="curve" smooth="yes"/>
      <point x="473" y="-10"/>
      <point x="545" y="38"/>
      <point x="608" y="117" type="curve"/>
      <point x="588" y="129" type="line"/>
      <point x="522" y="64"/>
      <point x="502" y="49"/>
      <point x="484" y="49" type="curve" smooth="yes"/>
      <point x="471" y="49"/>
      <point x="463" y="57"/>
      <point x="463" y="68" type="curve" smooth="yes"/>
      <point x="463" y="72"/>
      <point x="464" y="75"/>
      <point x="466" y="81" type="curve" smooth="yes"/>
      <point x="609" y="425" type="line" smooth="yes"/>
      <point x="619" y="449"/>
      <point x="625" y="473"/>
      <point x="625" y="490" type="curve" smooth="yes"/>
      <point x="625" y="519"/>
      <point x="607" y="540"/>
      <point x="581" y="540" type="curve" smooth="yes" name="hr03"/>
      <point x="556" y="540"/>
      <point x="509" y="530"/>
      <point x="476" y="530" type="curve" smooth="yes" name="hr04"/>
    </contour>
  </outline>
</glyph>
<glyph name="f_l" format="1">
  <advance width="647"/>
  <unicode hex="FB02"/>
  <outline>
    <contour>
      <point x="510" y="830" type="curve" smooth="yes"/>
      <point x="557" y="830"/>
      <point x="598" y="814"/>
      <point x="623" y="790" type="curve"/>
      <point x="740" y="820" type="line"/>
      <point x="743" y="817" type="line"/>
      <point x="523" y="305" type="line" smooth="yes"/>
      <point x="443" y="120"/>
      <point x="430" y="86"/>
      <point x="430" y="70" type="curve" smooth="yes"/>
      <point x="430" y="57"/>
      <point x="438" y="49"/>
      <point x="451" y="49" type="curve" smooth="yes"/>
      <point x="471" y="49"/>
      <point x="499" y="71"/>
      <point x="556" y="129" type="curve"/>
      <point x="578" y="117" type="line"/>
      <point x="516" y="42"/>
      <point x="437" y="-10"/>
      <point x="384" y="-10" type="curve" smooth="yes"/>
      <point x="350" y="-10"/>
      <point x="330" y="12"/>
      <point x="330" y="51" type="curve" smooth="yes"/>
      <point x="330" y="86"/>
      <point x="348" y="135"/>
      <point x="487" y="466" type="curve" smooth="yes"/>
      <point x="558" y="635" type="line" smooth="yes"/>
      <point x="572" y="669"/>
      <point x="575" y="688"/>
      <point x="575" y="717" type="curve" smooth="yes"/>
      <point x="575" y="777"/>
      <point x="556" y="803"/>
      <point x="512" y="803" type="curve" smooth="yes"/>
      <point x="443" y="803"/>
      <point x="388" y="739"/>
      <point x="329" y="590" type="curve" smooth="yes"/>
      <point x="305" y="530" type="line"/>
      <point x="403" y="530" type="line"/>
      <point x="390" y="498" type="line"/>
      <point x="293" y="498" type="line"/>
      <point x="166" y="203" type="line" smooth="yes"/>
      <point x="29" y="-115"/>
      <point x="-93" y="-256"/>
      <point x="-231" y="-256" type="curve" smooth="yes"/>
      <point x="-297" y="-256"/>
      <point x="-342" y="-223"/>
      <point x="-342" y="-176" type="curve" smooth="yes"/>
      <point x="-342" y="-148"/>
      <point x="-326" y="-132"/>
      <point x="-296" y="-132" type="curve" smooth="yes"/>
      <point x="-226" y="-132"/>
      <point x="-256" y="-221"/>
      <point x="-203" y="-221" type="curve" smooth="yes" name="hr01"/>
      <point x="-141" y="-221"/>
      <point x="-58" y="-97"/>
      <point x="39" y="143" type="curve" smooth="yes"/>
      <point x="183" y="498" type="line"/>
      <point x="95" y="498" type="line"/>
      <point x="107" y="530" type="line"/>
      <point x="196" y="530" type="line"/>
      <point x="227" y="600" type="line" smooth="yes"/>
      <point x="291" y="745"/>
      <point x="395" y="830"/>
    </contour>
  </outline>
</glyph>
<glyph name="f_f_l" format="1">
  <advance width="992"/>
  <unicode hex="FB04"/>
  <outline>
    <contour>
      <point x="855" y="830" type="curve" smooth="yes"/>
      <point x="902" y="830"/>
      <point x="943" y="814"/>
      <point x="968" y="790" type="curve"/>
      <point x="1085" y="820" type="line"/>
      <point x="1088" y="817" type="line"/>
      <point x="868" y="305" type="line" smooth="yes"/>
      <point x="788" y="120"/>
      <point x="775" y="86"/>
      <point x="775" y="70" type="curve" smooth="yes"/>
      <point x="775" y="57"/>
      <point x="783" y="49"/>
      <point x="796" y="49" type="curve" smooth="yes"/>
      <point x="816" y="49"/>
      <point x="844" y="71"/>
      <point x="901" y="129" type="curve"/>
      <point x="923" y="117" type="line"/>
      <point x="861" y="42"/>
      <point x="782" y="-10"/>
      <point x="729" y="-10" type="curve" smooth="yes"/>
      <point x="695" y="-10"/>
      <point x="675" y="12"/>
      <point x="675" y="51" type="curve" smooth="yes"/>
      <point x="675" y="86"/>
      <point x="693" y="135"/>
      <point x="832" y="466" type="curve" smooth="yes"/>
      <point x="906" y="644" type="line" smooth="yes"/>
      <point x="918" y="673"/>
      <point x="920" y="690"/>
      <point x="920" y="717" type="curve" smooth="yes"/>
      <point x="920" y="777"/>
      <point x="901" y="803"/>
      <point x="857" y="803" type="curve" smooth="yes"/>
      <point x="788" y="803"/>
      <point x="733" y="739"/>
      <point x="674" y="590" type="curve" smooth="yes"/>
      <point x="650" y="530" type="line"/>
      <point x="748" y="530" type="line"/>
      <point x="735" y="498" type="line"/>
      <point x="638" y="498" type="line"/>
      <point x="511" y="203" type="line" smooth="yes"/>
      <point x="374" y="-115"/>
      <point x="252" y="-256"/>
      <point x="114" y="-256" type="curve" smooth="yes"/>
      <point x="48" y="-256"/>
      <point x="3" y="-223"/>
      <point x="3" y="-176" type="curve" smooth="yes"/>
      <point x="3" y="-148"/>
      <point x="19" y="-132"/>
      <point x="49" y="-132" type="curve" smooth="yes"/>
      <point x="119" y="-132"/>
      <point x="89" y="-221"/>
      <point x="142" y="-221" type="curve" smooth="yes" name="hr01"/>
      <point x="204" y="-221"/>
      <point x="287" y="-97"/>
      <point x="384" y="143" type="curve" smooth="yes"/>
      <point x="528" y="498" type="line"/>
      <point x="293" y="498" type="line"/>
      <point x="166" y="203" type="line" smooth="yes"/>
      <point x="29" y="-115"/>
      <point x="-93" y="-256"/>
      <point x="-231" y="-256" type="curve" smooth="yes"/>
      <point x="-297" y="-256"/>
      <point x="-342" y="-223"/>
      <point x="-342" y="-176" type="curve" smooth="yes"/>
      <point x="-342" y="-148"/>
      <point x="-326" y="-132"/>
      <point x="-296" y="-132" type="curve" smooth="yes" name="hr02"/>
      <point x="-226" y="-132"/>
      <point x="-256" y="-221"/>
      <point x="-203" y="-221" type="curve" smooth="yes" name="hr03"/>
      <point x="-141" y="-221"/>
      <point x="-58" y="-96"/>
      <point x="39" y="143" type="curve" smooth="yes"/>
      <point x="183" y="498" type="line"/>
      <point x="95" y="498" type="line"/>
      <point x="107" y="530" type="line"/>
      <point x="196" y="530" type="line"/>
      <point x="205" y="550" type="line" smooth="yes"/>
      <point x="270" y="693"/>
      <point x="388" y="780"/>
      <point x="515" y="780" type="curve" smooth="yes"/>
      <point x="574" y="780"/>
      <point x="625" y="761"/>
      <point x="655" y="732" type="curve"/>
      <point x="712" y="795"/>
      <point x="781" y="830"/>
    </contour>
    <contour>
      <point x="522" y="751" type="curve" smooth="yes"/>
      <point x="437" y="751"/>
      <point x="368" y="682"/>
      <point x="309" y="540" type="curve" smooth="yes"/>
      <point x="305" y="530" type="line"/>
      <point x="541" y="530" type="line"/>
      <point x="572" y="600" type="line" smooth="yes"/>
      <point x="581" y="620"/>
      <point x="590" y="639"/>
      <point x="601" y="657" type="curve"/>
      <point x="601" y="719"/>
      <point x="576" y="751"/>
    </contour>
  </outline>
</glyph>
<glyph name="s_t" format="1">
  <advance width="747"/>
  <unicode hex="FB06"/>
  <outline>
    <contour>
      <point x="509" y="498" type="line"/>
      <point x="591" y="498" type="line"/>
      <point x="487" y="255" type="line" smooth="yes"/>
      <point x="427" y="115"/>
      <point x="418" y="81"/>
      <point x="418" y="53" type="curve" smooth="yes"/>
      <point x="418" y="9"/>
      <point x="431" y="-10"/>
      <point x="471" y="-10" type="curve" smooth="yes"/>
      <point x="529" y="-10"/>
      <point x="600" y="36"/>
      <point x="664" y="117" type="curve"/>
      <point x="644" y="129" type="line"/>
      <point x="590" y="73"/>
      <point x="560" y="49"/>
      <point x="540" y="49" type="curve" smooth="yes"/>
      <point x="525" y="49"/>
      <point x="518" y="58"/>
      <point x="518" y="73" type="curve" smooth="yes"/>
      <point x="518" y="87"/>
      <point x="526" y="104"/>
      <point x="612" y="305" type="curve" smooth="yes"/>
      <point x="694" y="498" type="line"/>
      <point x="785" y="498" type="line"/>
      <point x="796" y="530" type="line"/>
      <point x="707" y="530" type="line"/>
      <point x="760" y="683" type="line"/>
      <point x="775" y="702"/>
      <point x="782" y="722"/>
      <point x="782" y="742" type="curve" smooth="yes"/>
      <point x="782" y="766"/>
      <point x="770" y="780"/>
      <point x="748" y="780" type="curve" smooth="yes"/>
      <point x="720" y="780"/>
      <point x="704" y="759"/>
      <point x="704" y="721" type="curve" smooth="yes"/>
      <point x="704" y="683" type="line" smooth="yes"/>
      <point x="704" y="679"/>
      <point x="704" y="675"/>
      <point x="703" y="671" type="curve"/>
      <point x="683" y="661"/>
      <point x="657" y="655"/>
      <point x="631" y="655" type="curve" smooth="yes"/>
      <point x="531" y="655"/>
      <point x="456" y="744"/>
      <point x="356" y="744" type="curve" smooth="yes"/>
      <point x="294" y="744"/>
      <point x="256" y="709"/>
      <point x="256" y="652" type="curve" smooth="yes"/>
      <point x="256" y="597"/>
      <point x="291" y="546"/>
      <point x="356" y="504" type="curve"/>
      <point x="382" y="516" type="line"/>
      <point x="329" y="553"/>
      <point x="312" y="575"/>
      <point x="312" y="610" type="curve" smooth="yes"/>
      <point x="312" y="655"/>
      <point x="343" y="680"/>
      <point x="398" y="680" type="curve" smooth="yes"/>
      <point x="476" y="680"/>
      <point x="520" y="625"/>
      <point x="617" y="625" type="curve" smooth="yes"/>
      <point x="645" y="625"/>
      <point x="671" y="629"/>
      <point x="694" y="637" type="curve"/>
      <point x="679" y="603"/>
      <point x="649" y="567"/>
      <point x="606" y="530" type="curve"/>
      <point x="520" y="530" type="line"/>
    </contour>
    <component base="s"/>
  </outline>
</glyph>
<glyph name="Euro.tnum" format="1">
  <advance width="600"/>
  <outline>
    <contour>
      <point x="1" y="441" type="line"/>
      <point x="64" y="441" type="line"/>
      <point x="54" y="416"/>
      <point x="45" y="390"/>
      <point x="38" y="364" type="curve"/>
      <point x="-35" y="364" type="line"/>
      <point x="-57" y="320" type="line"/>
      <point x="28" y="320" type="line"/>
      <point x="19" y="275"/>
      <point x="14" y="229"/>
      <point x="14" y="183" type="curve" smooth="yes"/>
      <point x="14" y="50"/>
      <point x="85" y="-10"/>
      <point x="179" y="-10" type="curve" smooth="yes"/>
      <point x="288" y="-10"/>
      <point x="408" y="65"/>
      <point x="408" y="143" type="curve" smooth="yes"/>
      <point x="408" y="177"/>
      <point x="394" y="189"/>
      <point x="368" y="189" type="curve" smooth="yes"/>
      <point x="336" y="189"/>
      <point x="311" y="166"/>
      <point x="287" y="121" type="curve" smooth="yes"/>
      <point x="256" y="63"/>
      <point x="218" y="31"/>
      <point x="174" y="31" type="curve" smooth="yes"/>
      <point x="134" y="31"/>
      <point x="116" y="65"/>
      <point x="116" y="139" type="curve" smooth="yes"/>
      <point x="116" y="195"/>
      <point x="125" y="257"/>
      <point x="142" y="320" type="curve"/>
      <point x="372" y="320" type="line"/>
      <point x="394" y="364" type="line"/>
      <point x="155" y="364" type="line"/>
      <point x="163" y="390"/>
      <point x="172" y="416"/>
      <point x="182" y="441" type="curve"/>
      <point x="430" y="441" type="line"/>
      <point x="452" y="485" type="line"/>
      <point x="201" y="485" type="line"/>
      <point x="265" y="626"/>
      <point x="354" y="738"/>
      <point x="425" y="738" type="curve" smooth="yes"/>
      <point x="463" y="738"/>
      <point x="476" y="721"/>
      <point x="476" y="663" type="curve" smooth="yes"/>
      <point x="476" y="620"/>
      <point x="503" y="596"/>
      <point x="536" y="596" type="curve" smooth="yes"/>
      <point x="570" y="596"/>
      <point x="593" y="621"/>
      <point x="593" y="652" type="curve" smooth="yes"/>
      <point x="593" y="723"/>
      <point x="526" y="780"/>
      <point x="438" y="780" type="curve" smooth="yes"/>
      <point x="300" y="780"/>
      <point x="163" y="654"/>
      <point x="83" y="485" type="curve"/>
      <point x="23" y="485" type="line"/>
    </contour>
  </outline>
</glyph>
<glyph name="ampersand.ss01" format="1">
  <advance width="813"/>
  <outline>
    <contour>
      <point x="894" y="550" type="curve" smooth="yes"/>
      <point x="894" y="594"/>
      <point x="872" y="624"/>
      <point x="840" y="624" type="curve" smooth="yes"/>
      <point x="813" y="624"/>
      <point x="794" y="604"/>
      <point x="794" y="578" type="curve" smooth="yes"/>
      <point x="794" y="542"/>
      <point x="829" y="519"/>
      <point x="829" y="484" type="curve" smooth="yes"/>
      <point x="829" y="465"/>
      <point x="818" y="456"/>
      <point x="796" y="456" type="curve" smooth="yes"/>
      <point x="730" y="456"/>
      <point x="681" y="540"/>
      <point x="586" y="540" type="curve" smooth="yes"/>
      <point x="500" y="540"/>
      <point x="423" y="471"/>
      <point x="423" y="394" type="curve" smooth="yes"/>
      <point x="423" y="355"/>
      <point x="443" y="328"/>
      <point x="472" y="328" type="curve" smooth="yes"/>
      <point x="499" y="328"/>
      <point x="522" y="351"/>
      <point x="522" y="380" type="curve" smooth="yes"/>
      <point x="522" y="412"/>
      <point x="493" y="415"/>
      <point x="493" y="449" type="curve" smooth="yes"/>
      <point x="493" y="474"/>
      <point x="508" y="488"/>
      <point x="533" y="488" type="curve" smooth="yes"/>
      <point x="560" y="488"/>
      <point x="595" y="472"/>
      <point x="635" y="441" type="curve"/>
      <point x="635" y="425"/>
      <point x="635" y="419"/>
      <point x="634" y="404" type="curve" smooth="yes"/>
      <point x="622" y="220"/>
      <point x="500" y="94"/>
      <point x="333" y="94" type="curve" smooth="yes"/>
      <point x="282" y="94"/>
      <point x="242" y="106"/>
      <point x="190" y="136" type="curve"/>
      <point x="427" y="615" type="line" smooth="yes"/>
      <point x="479" y="720"/>
      <point x="497" y="768"/>
      <point x="497" y="801" type="curve" smooth="yes"/>
      <point x="497" y="835"/>
      <point x="478" y="856"/>
      <point x="448" y="856" type="curve" smooth="yes"/>
      <point x="413" y="856"/>
      <point x="392" y="830"/>
      <point x="392" y="789" type="curve" smooth="yes"/>
      <point x="392" y="756"/>
      <point x="406" y="737"/>
      <point x="406" y="701" type="curve" smooth="yes"/>
      <point x="406" y="663"/>
      <point x="391" y="620"/>
      <point x="350" y="540" type="curve"/>
      <point x="182" y="540"/>
      <point x="37" y="401"/>
      <point x="37" y="241" type="curve" smooth="yes"/>
      <point x="37" y="97"/>
      <point x="153" y="-10"/>
      <point x="308" y="-10" type="curve" smooth="yes"/>
      <point x="515" y="-10"/>
      <point x="672" y="176"/>
      <point x="672" y="423" type="curve"/>
      <point x="687" y="413"/>
      <point x="718" y="406"/>
      <point x="746" y="406" type="curve" smooth="yes"/>
      <point x="826" y="406"/>
      <point x="894" y="472"/>
    </contour>
    <contour>
      <point x="294" y="430" type="curve"/>
      <point x="161" y="160" type="line"/>
      <point x="116" y="204"/>
      <point x="98" y="240"/>
      <point x="98" y="289" type="curve" smooth="yes"/>
      <point x="98" y="378"/>
      <point x="154" y="435"/>
      <point x="244" y="435" type="curve" smooth="yes"/>
      <point x="259" y="435"/>
      <point x="276" y="433"/>
    </contour>
  </outline>
</glyph>
<glyph name="bar.tnum" format="1">
  <advance width="340"/>
  <outline>
    <contour>
      <point x="44" y="-170" type="line"/>
      <point x="365" y="819" type="line"/>
      <point x="295" y="819" type="line"/>
      <point x="-25" y="-170" type="line"/>
    </contour>
  </outline>
</glyph>
<glyph name="c_p" format="1">
  <advance width="1069"/>
  <outline>
    <contour>
      <point x="803" y="683" type="line" smooth="yes" name="hr00"/>
      <point x="803" y="679"/>
      <point x="803" y="675"/>
      <point x="802" y="671" type="curve"/>
      <point x="782" y="661"/>
      <point x="756" y="655"/>
      <point x="730" y="655" type="curve" smooth="yes"/>
      <point x="630" y="655"/>
      <point x="555" y="744"/>
      <point x="455" y="744" type="curve" smooth="yes"/>
      <point x="393" y="744"/>
      <point x="355" y="709"/>
      <point x="355" y="652" type="curve" smooth="yes"/>
      <point x="355" y="597"/>
      <point x="390" y="546"/>
      <point x="455" y="504" type="curve"/>
      <point x="481" y="516" type="line"/>
      <point x="429" y="553"/>
      <point x="411" y="575"/>
      <point x="411" y="610" type="curve" smooth="yes"/>
      <point x="411" y="654"/>
      <point x="442" y="680"/>
      <point x="497" y="680" type="curve" smooth="yes"/>
      <point x="574" y="680"/>
      <point x="619" y="625"/>
      <point x="716" y="625" type="curve" smooth="yes"/>
      <point x="744" y="625"/>
      <point x="770" y="629"/>
      <point x="793" y="637" type="curve"/>
      <point x="779" y="604"/>
      <point x="750" y="570"/>
      <point x="706" y="533" type="curve"/>
      <point x="660" y="525"/>
      <point x="616" y="508"/>
      <point x="582" y="486" type="curve"/>
      <point x="590" y="466" type="line"/>
      <point x="613" y="482"/>
      <point x="648" y="494"/>
      <point x="695" y="503" type="curve"/>
      <point x="385" y="-223" type="line"/>
      <point x="305" y="-235" type="line"/>
      <point x="305" y="-250" type="line"/>
      <point x="591" y="-250" type="line"/>
      <point x="591" y="-232" type="line"/>
      <point x="489" y="-220" type="line"/>
      <point x="586" y="13" type="line"/>
      <point x="601" y="11"/>
      <point x="620" y="10"/>
      <point x="637" y="10" type="curve" smooth="yes"/>
      <point x="834" y="10"/>
      <point x="1018" y="170"/>
      <point x="1018" y="342" type="curve" smooth="yes"/>
      <point x="1018" y="453"/>
      <point x="941" y="525"/>
      <point x="805" y="540" type="curve"/>
      <point x="859" y="683" type="line"/>
      <point x="874" y="702"/>
      <point x="881" y="722"/>
      <point x="881" y="742" type="curve" smooth="yes"/>
      <point x="881" y="766"/>
      <point x="869" y="780"/>
      <point x="847" y="780" type="curve" smooth="yes"/>
      <point x="819" y="780"/>
      <point x="803" y="759"/>
      <point x="803" y="721" type="curve" smooth="yes"/>
    </contour>
    <contour>
      <point x="787" y="497" type="line" smooth="yes"/>
      <point x="790" y="505"/>
      <point x="796" y="508"/>
      <point x="811" y="508" type="curve" smooth="yes"/>
      <point x="874" y="508"/>
      <point x="914" y="453"/>
      <point x="914" y="366" type="curve" smooth="yes"/>
      <point x="914" y="200"/>
      <point x="771" y="39"/>
      <point x="623" y="39" type="curve" smooth="yes"/>
      <point x="606" y="39"/>
      <point x="603" y="39"/>
      <point x="597" y="40" type="curve"/>
    </contour>
    <component base="c"/>
  </outline>
</glyph>
<glyph name="c_t" format="1">
  <advance width="846"/>
  <outline>
    <contour>
      <point x="608" y="498" type="line" name="hr00"/>
      <point x="690" y="498" type="line"/>
      <point x="586" y="255" type="line" smooth="yes"/>
      <point x="526" y="115"/>
      <point x="517" y="81"/>
      <point x="517" y="53" type="curve" smooth="yes"/>
      <point x="517" y="9"/>
      <point x="530" y="-10"/>
      <point x="570" y="-10" type="curve" smooth="yes"/>
      <point x="628" y="-10"/>
      <point x="699" y="36"/>
      <point x="763" y="117" type="curve"/>
      <point x="743" y="129" type="line"/>
      <point x="689" y="73"/>
      <point x="659" y="49"/>
      <point x="639" y="49" type="curve" smooth="yes"/>
      <point x="624" y="49"/>
      <point x="617" y="58"/>
      <point x="617" y="73" type="curve" smooth="yes"/>
      <point x="617" y="87"/>
      <point x="625" y="104"/>
      <point x="711" y="305" type="curve" smooth="yes"/>
      <point x="793" y="498" type="line"/>
      <point x="884" y="498" type="line"/>
      <point x="895" y="530" type="line"/>
      <point x="806" y="530" type="line"/>
      <point x="859" y="683" type="line"/>
      <point x="874" y="702"/>
      <point x="881" y="722"/>
      <point x="881" y="742" type="curve" smooth="yes"/>
      <point x="881" y="766"/>
      <point x="869" y="780"/>
      <point x="847" y="780" type="curve" smooth="yes"/>
      <point x="819" y="780"/>
      <point x="803" y="759"/>
      <point x="803" y="721" type="curve" smooth="yes"/>
      <point x="803" y="683" type="line" smooth="yes"/>
      <point x="803" y="679"/>
      <point x="803" y="675"/>
      <point x="802" y="671" type="curve"/>
      <point x="782" y="661"/>
      <point x="756" y="655"/>
      <point x="730" y="655" type="curve" smooth="yes"/>
      <point x="630" y="655"/>
      <point x="555" y="744"/>
      <point x="455" y="744" type="curve" smooth="yes"/>
      <point x="393" y="744"/>
      <point x="355" y="709"/>
      <point x="355" y="652" type="curve" smooth="yes"/>
      <point x="355" y="597"/>
      <point x="390" y="546"/>
      <point x="455" y="504" type="curve"/>
      <point x="481" y="516" type="line"/>
      <point x="429" y="553"/>
      <point x="411" y="575"/>
      <point x="411" y="610" type="curve" smooth="yes"/>
      <point x="411" y="654"/>
      <point x="442" y="680"/>
      <point x="497" y="680" type="curve" smooth="yes"/>
      <point x="574" y="680"/>
      <point x="619" y="625"/>
      <point x="716" y="625" type="curve" smooth="yes"/>
      <point x="744" y="625"/>
      <point x="770" y="629"/>
      <point x="793" y="637" type="curve"/>
      <point x="778" y="603"/>
      <point x="748" y="567"/>
      <point x="705" y="530" type="curve"/>
      <point x="619" y="530" type="line"/>
    </contour>
    <component base="c"/>
  </outline>
</glyph>
<glyph name="caron.alt" format="1">
  <advance width="164"/>
  <outline>
    <contour>
      <point x="10" y="642" type="line"/>
      <point x="62" y="811" type="line" smooth="yes"/>
      <point x="72" y="844"/>
      <point x="90" y="857"/>
      <point x="112" y="857" type="curve" smooth="yes"/>
      <point x="143" y="857"/>
      <point x="154" y="839"/>
      <point x="154" y="817" type="curve" smooth="yes"/>
      <point x="154" y="804"/>
      <point x="149" y="792"/>
      <point x="135" y="773" type="curve" smooth="yes"/>
      <point x="35" y="642" type="line"/>
    </contour>
    <contour>
      <point x="53" y="651" type="move" name="_top"/>
    </contour>
  </outline>
</glyph>
<glyph name="cent.tnum" format="1">
  <advance width="496"/>
  <outline>
    <contour>
      <point x="486" y="686" type="line" name="hr00"/>
      <point x="441" y="686" type="line"/>
      <point x="380" y="538" type="line"/>
      <point x="319" y="531"/>
      <point x="247" y="499"/>
      <point x="185" y="451" type="curve" smooth="yes"/>
      <point x="80" y="369"/>
      <point x="19" y="252"/>
      <point x="18" y="143" type="curve" smooth="yes"/>
      <point x="18" y="43"/>
      <point x="62" y="-10"/>
      <point x="151" y="-10" type="curve"/>
      <point x="93" y="-150" type="line"/>
      <point x="138" y="-150" type="line"/>
      <point x="199" y="-4" type="line"/>
      <point x="270" y="12"/>
      <point x="344" y="63"/>
      <point x="414" y="146" type="curve"/>
      <point x="392" y="159" type="line"/>
      <point x="323" y="88"/>
      <point x="263" y="46"/>
      <point x="213" y="31" type="curve"/>
      <point x="411" y="506" type="line"/>
      <point x="425" y="500"/>
      <point x="433" y="485"/>
      <point x="438" y="457" type="curve" smooth="yes"/>
      <point x="443" y="424"/>
      <point x="458" y="409"/>
      <point x="484" y="409" type="curve" smooth="yes"/>
      <point x="510" y="409"/>
      <point x="528" y="425"/>
      <point x="528" y="449" type="curve" smooth="yes"/>
      <point x="528" y="494"/>
      <point x="484" y="532"/>
      <point x="425" y="539" type="curve"/>
    </contour>
    <contour>
      <point x="117" y="99" type="curve" smooth="yes"/>
      <point x="117" y="240"/>
      <point x="250" y="468"/>
      <point x="365" y="504" type="curve"/>
      <point x="166" y="25" type="line"/>
      <point x="130" y="29"/>
      <point x="117" y="53"/>
    </contour>
  </outline>
</glyph>
<glyph name="circumflex.cap" format="1">
  <advance width="314"/>
  <outline>
    <contour>
      <point x="206" y="960" type="curve" smooth="yes"/>
      <point x="181" y="960"/>
      <point x="166" y="950"/>
      <point x="142" y="933" type="curve" smooth="yes"/>
      <point x="10" y="837" type="line"/>
      <point x="22" y="820" type="line"/>
      <point x="187" y="888" type="line"/>
      <point x="278" y="820" type="line"/>
      <point x="304" y="837" type="line"/>
      <point x="250" y="933" type="line" smooth="yes"/>
      <point x="239" y="952"/>
      <point x="229" y="960"/>
    </contour>
    <contour>
      <point x="164" y="830" type="move" name="_topcap"/>
    </contour>
  </outline>
</glyph>
<glyph name="colon.tnum" format="1">
  <advance width="300"/>
  <outline>
    <contour>
      <point x="106" y="137" type="curve" smooth="yes"/>
      <point x="146" y="137"/>
      <point x="181" y="109"/>
      <point x="181" y="72" type="curve" smooth="yes"/>
      <point x="181" y="30"/>
      <point x="137" y="-10"/>
      <point x="93" y="-10" type="curve" smooth="yes"/>
      <point x="48" y="-10"/>
      <point x="20" y="17"/>
      <point x="20" y="57" type="curve" smooth="yes"/>
      <point x="20" y="101"/>
      <point x="61" y="137"/>
    </contour>
    <contour>
      <point x="225" y="501" type="curve" smooth="yes"/>
      <point x="265" y="501"/>
      <point x="300" y="473"/>
      <point x="300" y="436" type="curve" smooth="yes"/>
      <point x="300" y="394"/>
      <point x="256" y="354"/>
      <point x="212" y="354" type="curve" smooth="yes"/>
      <point x="167" y="354"/>
      <point x="139" y="381"/>
      <point x="139" y="421" type="curve" smooth="yes"/>
      <point x="139" y="465"/>
      <point x="180" y="501"/>
    </contour>
  </outline>
</glyph>
<glyph name="dieresis.cap" format="1">
  <advance width="317"/>
  <outline>
    <contour>
      <point x="75" y="960" type="curve" smooth="yes"/>
      <point x="105" y="960"/>
      <point x="132" y="939"/>
      <point x="132" y="911" type="curve" smooth="yes"/>
      <point x="132" y="879"/>
      <point x="99" y="849"/>
      <point x="65" y="849" type="curve" smooth="yes"/>
      <point x="31" y="849"/>
      <point x="10" y="869"/>
      <point x="10" y="900" type="curve" smooth="yes"/>
      <point x="10" y="932"/>
      <point x="41" y="960"/>
    </contour>
    <contour>
      <point x="250" y="960" type="curve" smooth="yes"/>
      <point x="280" y="960"/>
      <point x="307" y="939"/>
      <point x="307" y="911" type="curve" smooth="yes"/>
      <point x="307" y="879"/>
      <point x="274" y="849"/>
      <point x="240" y="849" type="curve" smooth="yes"/>
      <point x="206" y="849"/>
      <point x="185" y="869"/>
      <point x="185" y="900" type="curve" smooth="yes"/>
      <point x="185" y="932"/>
      <point x="216" y="960"/>
    </contour>
    <contour>
      <point x="158" y="830" type="move" name="_topcap"/>
    </contour>
  </outline>
</glyph>
<glyph name="divide.tnum" format="1">
  <advance width="600"/>
  <outline>
    <contour>
      <point x="223" y="513" type="curve" smooth="yes"/>
      <point x="223" y="476"/>
      <point x="250" y="445"/>
      <point x="291" y="445" type="curve" smooth="yes"/>
      <point x="334" y="445"/>
      <point x="361" y="476"/>
      <point x="361" y="513" type="curve" smooth="yes"/>
      <point x="361" y="553"/>
      <point x="334" y="583"/>
      <point x="291" y="583" type="curve" smooth="yes"/>
      <point x="250" y="583"/>
      <point x="223" y="553"/>
    </contour>
    <contour>
      <point x="223" y="170" type="curve" smooth="yes"/>
      <point x="223" y="133"/>
      <point x="250" y="102"/>
      <point x="291" y="102" type="curve" smooth="yes"/>
      <point x="334" y="102"/>
      <point x="361" y="133"/>
      <point x="361" y="170" type="curve" smooth="yes"/>
      <point x="361" y="210"/>
      <point x="334" y="240"/>
      <point x="291" y="240" type="curve" smooth="yes"/>
      <point x="250" y="240"/>
      <point x="223" y="210"/>
    </contour>
    <component base="minus.tnum"/>
  </outline>
</glyph>
<glyph name="dotaccent.cap" format="1">
  <advance width="157"/>
  <outline>
    <contour>
      <point x="83" y="960" type="curve" smooth="yes"/>
      <point x="117" y="960"/>
      <point x="147" y="936"/>
      <point x="147" y="905" type="curve" smooth="yes"/>
      <point x="147" y="869"/>
      <point x="110" y="835"/>
      <point x="72" y="835" type="curve" smooth="yes"/>
      <point x="34" y="835"/>
      <point x="10" y="858"/>
      <point x="10" y="892" type="curve" smooth="yes"/>
      <point x="10" y="929"/>
      <point x="45" y="960"/>
    </contour>
    <contour>
      <point x="72" y="830" type="move" name="_topcap"/>
    </contour>
  </outline>
</glyph>
<glyph name="dotbelow" format="1">
  <advance width="149"/>
  <outline>
    <contour>
      <point x="83" y="-131" type="curve" smooth="yes"/>
      <point x="117" y="-131"/>
      <point x="147" y="-155"/>
      <point x="147" y="-186" type="curve" smooth="yes"/>
      <point x="147" y="-222"/>
      <point x="110" y="-256"/>
      <point x="72" y="-256" type="curve" smooth="yes"/>
      <point x="34" y="-256"/>
      <point x="10" y="-233"/>
      <point x="10" y="-199" type="curve" smooth="yes"/>
      <point x="10" y="-162"/>
      <point x="45" y="-131"/>
    </contour>
    <contour>
      <point x="161" y="0" type="move" name="_bottom"/>
    </contour>
  </outline>
</glyph>
<glyph name="e_t" format="1">
  <advance width="839"/>
  <outline>
    <contour>
      <point x="612" y="530" type="line"/>
      <point x="698" y="530" type="line"/>
      <point x="741" y="567"/>
      <point x="771" y="603"/>
      <point x="786" y="637" type="curve"/>
      <point x="763" y="629"/>
      <point x="737" y="625"/>
      <point x="709" y="625" type="curve" smooth="yes"/>
      <point x="612" y="625"/>
      <point x="567" y="680"/>
      <point x="490" y="680" type="curve" smooth="yes"/>
      <point x="434" y="680"/>
      <point x="404" y="655"/>
      <point x="404" y="610" type="curve" smooth="yes"/>
      <point x="404" y="575"/>
      <point x="422" y="553"/>
      <point x="474" y="516" type="curve"/>
      <point x="448" y="504" type="line"/>
      <point x="383" y="546"/>
      <point x="348" y="597"/>
      <point x="348" y="652" type="curve" smooth="yes"/>
      <point x="348" y="709"/>
      <point x="386" y="744"/>
      <point x="448" y="744" type="curve" smooth="yes"/>
      <point x="548" y="744"/>
      <point x="623" y="655"/>
      <point x="723" y="655" type="curve" smooth="yes"/>
      <point x="749" y="655"/>
      <point x="775" y="661"/>
      <point x="795" y="671" type="curve"/>
      <point x="796" y="675"/>
      <point x="796" y="679"/>
      <point x="796" y="683" type="curve" smooth="yes"/>
      <point x="796" y="721" type="line" smooth="yes"/>
      <point x="796" y="759"/>
      <point x="812" y="780"/>
      <point x="840" y="780" type="curve" smooth="yes"/>
      <point x="862" y="780"/>
      <point x="874" y="766"/>
      <point x="874" y="742" type="curve" smooth="yes"/>
      <point x="874" y="722"/>
      <point x="867" y="702"/>
      <point x="852" y="683" type="curve"/>
      <point x="799" y="530" type="line"/>
      <point x="888" y="530" type="line"/>
      <point x="877" y="498" type="line"/>
      <point x="786" y="498" type="line"/>
      <point x="704" y="305" type="line" smooth="yes"/>
      <point x="618" y="104"/>
      <point x="610" y="87"/>
      <point x="610" y="73" type="curve" smooth="yes"/>
      <point x="610" y="58"/>
      <point x="617" y="49"/>
      <point x="632" y="49" type="curve" smooth="yes"/>
      <point x="652" y="49"/>
      <point x="682" y="73"/>
      <point x="736" y="129" type="curve"/>
      <point x="756" y="117" type="line"/>
      <point x="692" y="36"/>
      <point x="621" y="-10"/>
      <point x="563" y="-10" type="curve" smooth="yes"/>
      <point x="523" y="-10"/>
      <point x="510" y="9"/>
      <point x="510" y="53" type="curve" smooth="yes"/>
      <point x="510" y="81"/>
      <point x="519" y="115"/>
      <point x="579" y="255" type="curve" smooth="yes"/>
      <point x="683" y="498" type="line"/>
      <point x="601" y="498" type="line"/>
    </contour>
    <component base="e"/>
  </outline>
</glyph>
<glyph name="eight.denominator" format="1">
  <advance width="395"/>
  <outline>
    <contour>
      <point x="106" y="255" type="line" smooth="yes"/>
      <point x="85" y="282"/>
      <point x="72" y="312"/>
      <point x="72" y="341" type="curve" smooth="yes"/>
      <point x="72" y="418"/>
      <point x="140" y="455"/>
      <point x="208" y="455" type="curve" smooth="yes"/>
      <point x="276" y="455"/>
      <point x="317" y="422"/>
      <point x="317" y="373" type="curve" smooth="yes"/>
      <point x="317" y="310"/>
      <point x="259" y="272"/>
      <point x="209" y="250" type="curve"/>
      <point x="228" y="227" type="line" smooth="yes"/>
      <point x="255" y="194"/>
      <point x="266" y="159"/>
      <point x="266" y="132" type="curve" smooth="yes"/>
      <point x="266" y="35"/>
      <point x="190" y="-10"/>
      <point x="114" y="-10" type="curve" smooth="yes"/>
      <point x="17" y="-10"/>
      <point x="-26" y="42"/>
      <point x="-26" y="98" type="curve" smooth="yes"/>
      <point x="-26" y="178"/>
      <point x="61" y="216"/>
      <point x="117" y="240" type="curve"/>
    </contour>
    <contour>
      <point x="141" y="222" type="line"/>
      <point x="88" y="192"/>
      <point x="49" y="169"/>
      <point x="49" y="102" type="curve" smooth="yes"/>
      <point x="49" y="62"/>
      <point x="72" y="27"/>
      <point x="121" y="27" type="curve" smooth="yes"/>
      <point x="168" y="27"/>
      <point x="196" y="58"/>
      <point x="196" y="93" type="curve" smooth="yes"/>
      <point x="196" y="122"/>
      <point x="189" y="142"/>
      <point x="168" y="177" type="curve" smooth="yes"/>
    </contour>
    <contour>
      <point x="183" y="272" type="curve"/>
      <point x="219" y="299"/>
      <point x="250" y="331"/>
      <point x="250" y="379" type="curve" smooth="yes"/>
      <point x="250" y="401"/>
      <point x="236" y="419"/>
      <point x="206" y="419" type="curve" smooth="yes"/>
      <point x="170" y="419"/>
      <point x="141" y="396"/>
      <point x="141" y="363" type="curve" smooth="yes"/>
      <point x="141" y="337"/>
      <point x="151" y="312"/>
    </contour>
  </outline>
</glyph>
<glyph name="eight.tnum" format="1">
  <advance width="600"/>
  <outline>
    <contour>
      <point x="186" y="447" type="line" smooth="yes"/>
      <point x="171" y="465"/>
      <point x="136" y="520"/>
      <point x="136" y="585" type="curve" smooth="yes"/>
      <point x="136" y="717"/>
      <point x="243" y="780"/>
      <point x="353" y="780" type="curve" smooth="yes"/>
      <point x="459" y="780"/>
      <point x="524" y="723"/>
      <point x="524" y="641" type="curve" smooth="yes"/>
      <point x="524" y="533"/>
      <point x="418" y="477"/>
      <point x="334" y="440" type="curve"/>
      <point x="366" y="401" type="line" smooth="yes"/>
      <point x="402" y="357"/>
      <point x="436" y="295"/>
      <point x="436" y="230" type="curve" smooth="yes"/>
      <point x="436" y="65"/>
      <point x="314" y="-10"/>
      <point x="191" y="-10" type="curve" smooth="yes"/>
      <point x="39" y="-10"/>
      <point x="-30" y="78"/>
      <point x="-30" y="172" type="curve" smooth="yes"/>
      <point x="-30" y="309"/>
      <point x="110" y="381"/>
      <point x="207" y="421" type="curve"/>
    </contour>
    <contour>
      <point x="231" y="390" type="line"/>
      <point x="137" y="339"/>
      <point x="74" y="294"/>
      <point x="74" y="179" type="curve" smooth="yes"/>
      <point x="74" y="99"/>
      <point x="117" y="32"/>
      <point x="203" y="32" type="curve" smooth="yes"/>
      <point x="292" y="32"/>
      <point x="346" y="90"/>
      <point x="346" y="181" type="curve" smooth="yes"/>
      <point x="346" y="233"/>
      <point x="324" y="274"/>
      <point x="292" y="314" type="curve" smooth="yes"/>
    </contour>
    <contour>
      <point x="309" y="467" type="curve"/>
      <point x="376" y="513"/>
      <point x="431" y="569"/>
      <point x="431" y="651" type="curve" smooth="yes"/>
      <point x="431" y="702"/>
      <point x="406" y="738"/>
      <point x="348" y="738" type="curve" smooth="yes"/>
      <point x="277" y="738"/>
      <point x="222" y="693"/>
      <point x="222" y="623" type="curve" smooth="yes"/>
      <point x="222" y="559"/>
      <point x="271" y="507"/>
    </contour>
  </outline>
</glyph>
<glyph name="equal.tnum" format="1">
  <advance width="518"/>
  <outline>
    <contour>
      <point x="100" y="274" type="line"/>
      <point x="466" y="274" type="line"/>
      <point x="466" y="232" type="line"/>
      <point x="100" y="232" type="line"/>
    </contour>
    <contour>
      <point x="100" y="424" type="line"/>
      <point x="466" y="424" type="line"/>
      <point x="466" y="382" type="line"/>
      <point x="100" y="382" type="line"/>
    </contour>
  </outline>
</glyph>
<glyph name="f_b" format="1">
  <advance width="914"/>
  <outline>
    <contour>
      <point x="623" y="790" type="curve"/>
      <point x="732" y="820" type="line"/>
      <point x="736" y="816" type="line"/>
      <point x="591" y="462" type="line"/>
      <point x="596" y="462" type="line"/>
      <point x="641" y="512"/>
      <point x="696" y="540"/>
      <point x="747" y="540" type="curve" smooth="yes"/>
      <point x="822" y="540"/>
      <point x="871" y="485"/>
      <point x="871" y="386" type="curve" smooth="yes"/>
      <point x="871" y="193"/>
      <point x="693" y="-10"/>
      <point x="516" y="-10" type="curve" smooth="yes"/>
      <point x="423" y="-10"/>
      <point x="373" y="43"/>
      <point x="373" y="131" type="curve" smooth="yes"/>
      <point x="373" y="165"/>
      <point x="382" y="205"/>
      <point x="400" y="249" type="curve" smooth="yes"/>
      <point x="558" y="635" type="line" smooth="yes"/>
      <point x="572" y="670"/>
      <point x="575" y="688"/>
      <point x="575" y="717" type="curve" smooth="yes"/>
      <point x="575" y="777"/>
      <point x="556" y="803"/>
      <point x="512" y="803" type="curve" smooth="yes"/>
      <point x="443" y="803"/>
      <point x="388" y="739"/>
      <point x="329" y="590" type="curve" smooth="yes"/>
      <point x="305" y="530" type="line" name="hr01"/>
      <point x="403" y="530" type="line"/>
      <point x="390" y="498" type="line"/>
      <point x="293" y="498" type="line"/>
      <point x="166" y="203" type="line" smooth="yes"/>
      <point x="29" y="-115"/>
      <point x="-93" y="-256"/>
      <point x="-231" y="-256" type="curve" smooth="yes"/>
      <point x="-297" y="-256"/>
      <point x="-342" y="-223"/>
      <point x="-342" y="-176" type="curve" smooth="yes"/>
      <point x="-342" y="-148"/>
      <point x="-326" y="-132"/>
      <point x="-296" y="-132" type="curve" smooth="yes"/>
      <point x="-226" y="-132"/>
      <point x="-256" y="-221"/>
      <point x="-203" y="-221" type="curve" smooth="yes" name="hr02"/>
      <point x="-141" y="-221"/>
      <point x="-58" y="-97"/>
      <point x="39" y="143" type="curve" smooth="yes"/>
      <point x="183" y="498" type="line"/>
      <point x="95" y="498" type="line"/>
      <point x="107" y="530" type="line"/>
      <point x="196" y="530" type="line"/>
      <point x="227" y="600" type="line" smooth="yes"/>
      <point x="291" y="745"/>
      <point x="395" y="830"/>
      <point x="510" y="830" type="curve" smooth="yes"/>
      <point x="557" y="830"/>
      <point x="598" y="814"/>
    </contour>
    <contour>
      <point x="528" y="310" type="curve" smooth="yes"/>
      <point x="500" y="253"/>
      <point x="455" y="143"/>
      <point x="455" y="82" type="curve" smooth="yes"/>
      <point x="455" y="47"/>
      <point x="477" y="25"/>
      <point x="508" y="25" type="curve" smooth="yes"/>
      <point x="609" y="25"/>
      <point x="774" y="269"/>
      <point x="774" y="416" type="curve" smooth="yes"/>
      <point x="774" y="469"/>
      <point x="754" y="505"/>
      <point x="722" y="505" type="curve" smooth="yes" name="hr03"/>
      <point x="667" y="505"/>
      <point x="580" y="419"/>
    </contour>
  </outline>
</glyph>
